M48
; DRILL file KiCad 10.0.3-2.fc44 date 2026-06-08T18:29:30
; FORMAT={-:-/ absolute / metric / decimal}
; #@! TF.CreationDate,2026-06-08T18:29:30-05:00
; #@! TF.GenerationSoftware,Kicad,Pcbnew,10.0.3-2.fc44
; #@! TF.FileFunction,Plated,1,2,PTH
FMAT,2
METRIC
; #@! TA.AperFunction,Plated,PTH,ViaDrill
T1C0.300
; #@! TA.AperFunction,Plated,PTH,ComponentDrill
T2C0.920
; #@! TA.AperFunction,Plated,PTH,ComponentDrill
T3C1.000
; #@! TA.AperFunction,Plated,PTH,ComponentDrill
T4C1.020
; #@! TA.AperFunction,Plated,PTH,ComponentDrill
T5C1.250
; #@! TA.AperFunction,Plated,PTH,ComponentDrill
T6C1.550
; #@! TA.AperFunction,Plated,PTH,ComponentDrill
T7C1.750
; #@! TA.AperFunction,Plated,PTH,ComponentDrill
T8C1.800
; #@! TA.AperFunction,Plated,PTH,ComponentDrill
T9C3.200
%
G90
G05
T1
X116.8Y-94.0
T2
X110.5Y-81.0
T3
X113.38Y-126.044
X115.92Y-126.044
X118.46Y-126.044
X121.0Y-126.044
X123.54Y-126.044
X126.08Y-126.044
X128.62Y-126.044
T4
X100.38Y-91.23
X100.38Y-109.01
X102.92Y-91.23
X102.92Y-109.01
X105.46Y-91.23
X105.46Y-109.01
X108.0Y-91.23
X108.0Y-109.01
X110.54Y-91.23
X110.54Y-109.01
X113.08Y-91.23
X113.08Y-109.01
X115.62Y-91.23
X115.62Y-109.01
X118.16Y-91.23
X118.16Y-109.01
X120.7Y-91.23
X120.7Y-109.01
X123.24Y-91.23
X123.24Y-109.01
X125.78Y-91.23
X125.78Y-109.01
X128.32Y-91.23
X128.32Y-109.01
X130.86Y-91.23
X130.86Y-109.01
X133.4Y-91.23
X133.4Y-109.01
X135.94Y-91.23
X135.94Y-109.01
X138.48Y-91.23
X138.48Y-109.01
X141.02Y-91.23
X141.02Y-109.01
X143.56Y-91.23
X143.56Y-109.01
X146.1Y-91.23
X146.1Y-109.01
X148.41Y-97.58
X148.41Y-100.12
X148.41Y-102.66
X148.64Y-91.23
X148.64Y-109.01
T5
X138.59Y-116.434
X141.13Y-116.434
X143.67Y-116.434
X146.21Y-116.434
X148.75Y-116.434
X151.29Y-116.434
X153.83Y-116.434
X156.37Y-116.434
X158.91Y-116.434
T6
X117.1Y-117.76
X118.74Y-77.64
X128.6Y-117.76
T7
X114.56Y-115.22
X114.56Y-120.3
X116.2Y-75.1
X116.2Y-80.18
X119.64Y-115.22
X119.64Y-120.3
X121.28Y-75.1
X121.28Y-80.18
X126.06Y-115.22
X126.06Y-120.3
X131.14Y-115.22
X131.14Y-120.3
T8
X102.7Y-77.2
X102.7Y-84.8
T9
X102.0Y-69.5
X102.0Y-126.0
X108.3Y-126.044
X133.7Y-126.044
X139.352Y-122.435
X158.148Y-122.435
X164.0Y-83.0
X164.0Y-126.0
M30
