%TF.GenerationSoftware,KiCad,Pcbnew,10.0.3-2.fc44*%
%TF.CreationDate,2026-06-08T18:25:06-05:00*%
%TF.ProjectId,clockgen-cx-jig,636c6f63-6b67-4656-9e2d-63782d6a6967,1.0*%
%TF.SameCoordinates,Original*%
%TF.FileFunction,Copper,L2,Bot*%
%TF.FilePolarity,Positive*%
%FSLAX46Y46*%
G04 Gerber Fmt 4.6, Leading zero omitted, Abs format (unit mm)*
G04 Created by KiCad (PCBNEW 10.0.3-2.fc44) date 2026-06-08 18:25:06*
%MOMM*%
%LPD*%
G01*
G04 APERTURE LIST*
G04 Aperture macros list*
%AMRoundRect*
0 Rectangle with rounded corners*
0 $1 Rounding radius*
0 $2 $3 $4 $5 $6 $7 $8 $9 X,Y pos of 4 corners*
0 Add a 4 corners polygon primitive as box body*
4,1,4,$2,$3,$4,$5,$6,$7,$8,$9,$2,$3,0*
0 Add four circle primitives for the rounded corners*
1,1,$1+$1,$2,$3*
1,1,$1+$1,$4,$5*
1,1,$1+$1,$6,$7*
1,1,$1+$1,$8,$9*
0 Add four rect primitives between the rounded corners*
20,1,$1+$1,$2,$3,$4,$5,0*
20,1,$1+$1,$4,$5,$6,$7,0*
20,1,$1+$1,$6,$7,$8,$9,0*
20,1,$1+$1,$8,$9,$2,$3,0*%
G04 Aperture macros list end*
%TA.AperFunction,SMDPad,CuDef*%
%ADD10RoundRect,0.250000X1.600000X-0.425000X1.600000X0.425000X-1.600000X0.425000X-1.600000X-0.425000X0*%
%TD*%
%TA.AperFunction,ViaPad*%
%ADD11C,0.800000*%
%TD*%
G04 APERTURE END LIST*
D10*
%TO.P,J1,2,Ext_2*%
%TO.N,GND*%
X142905182Y-78147275D03*
X142905182Y-83797275D03*
%TD*%
D11*
%TO.N,GND*%
X133400000Y-79400000D03*
X139200000Y-83800000D03*
X139200000Y-78200000D03*
X129500000Y-79200000D03*
X131500000Y-84800000D03*
X142900000Y-85900000D03*
X126700000Y-79100000D03*
X126700000Y-82900000D03*
%TD*%
%TA.AperFunction,Conductor*%
%TO.N,GND*%
G36*
X145143039Y-75020185D02*
G01*
X145188794Y-75072989D01*
X145200000Y-75124500D01*
X145200000Y-77057070D01*
X145180315Y-77124109D01*
X145127511Y-77169864D01*
X145058353Y-77179808D01*
X144994797Y-77150783D01*
X144988319Y-77144751D01*
X144973527Y-77129959D01*
X144824306Y-77037918D01*
X144824301Y-77037916D01*
X144657879Y-76982769D01*
X144657872Y-76982768D01*
X144555168Y-76972275D01*
X143155182Y-76972275D01*
X143155182Y-79322274D01*
X144555154Y-79322274D01*
X144555168Y-79322273D01*
X144657879Y-79311780D01*
X144824301Y-79256633D01*
X144824306Y-79256631D01*
X144973527Y-79164590D01*
X144988319Y-79149799D01*
X145049642Y-79116314D01*
X145119334Y-79121298D01*
X145175267Y-79163170D01*
X145199684Y-79228634D01*
X145200000Y-79237480D01*
X145200000Y-82707070D01*
X145180315Y-82774109D01*
X145127511Y-82819864D01*
X145058353Y-82829808D01*
X144994797Y-82800783D01*
X144988319Y-82794751D01*
X144973527Y-82779959D01*
X144824306Y-82687918D01*
X144824301Y-82687916D01*
X144657879Y-82632769D01*
X144657872Y-82632768D01*
X144555168Y-82622275D01*
X143155182Y-82622275D01*
X143155182Y-84972274D01*
X144555154Y-84972274D01*
X144555168Y-84972273D01*
X144657879Y-84961780D01*
X144824301Y-84906633D01*
X144824306Y-84906631D01*
X144973527Y-84814590D01*
X144988319Y-84799799D01*
X145049642Y-84766314D01*
X145119334Y-84771298D01*
X145175267Y-84813170D01*
X145199684Y-84878634D01*
X145200000Y-84887480D01*
X145200000Y-86875500D01*
X145180315Y-86942539D01*
X145127511Y-86988294D01*
X145076000Y-86999500D01*
X125124500Y-86999500D01*
X125057461Y-86979815D01*
X125011706Y-86927011D01*
X125000500Y-86875500D01*
X125000500Y-84272261D01*
X140555183Y-84272261D01*
X140565676Y-84374972D01*
X140620823Y-84541394D01*
X140620825Y-84541399D01*
X140712866Y-84690620D01*
X140836836Y-84814590D01*
X140986057Y-84906631D01*
X140986062Y-84906633D01*
X141152484Y-84961780D01*
X141152491Y-84961781D01*
X141255201Y-84972274D01*
X142655181Y-84972274D01*
X142655182Y-84972273D01*
X142655182Y-84047275D01*
X140555183Y-84047275D01*
X140555183Y-84272261D01*
X125000500Y-84272261D01*
X125000500Y-83322288D01*
X140555182Y-83322288D01*
X140555182Y-83547275D01*
X142655182Y-83547275D01*
X142655182Y-82622275D01*
X141255210Y-82622275D01*
X141255194Y-82622276D01*
X141152484Y-82632769D01*
X140986062Y-82687916D01*
X140986057Y-82687918D01*
X140836836Y-82779959D01*
X140712866Y-82903929D01*
X140620825Y-83053150D01*
X140620823Y-83053155D01*
X140565676Y-83219577D01*
X140565675Y-83219584D01*
X140555182Y-83322288D01*
X125000500Y-83322288D01*
X125000500Y-78622261D01*
X140555183Y-78622261D01*
X140565676Y-78724972D01*
X140620823Y-78891394D01*
X140620825Y-78891399D01*
X140712866Y-79040620D01*
X140836836Y-79164590D01*
X140986057Y-79256631D01*
X140986062Y-79256633D01*
X141152484Y-79311780D01*
X141152491Y-79311781D01*
X141255201Y-79322274D01*
X142655181Y-79322274D01*
X142655182Y-79322273D01*
X142655182Y-78397275D01*
X140555183Y-78397275D01*
X140555183Y-78622261D01*
X125000500Y-78622261D01*
X125000500Y-77672288D01*
X140555182Y-77672288D01*
X140555182Y-77897275D01*
X142655182Y-77897275D01*
X142655182Y-76972275D01*
X141255210Y-76972275D01*
X141255194Y-76972276D01*
X141152484Y-76982769D01*
X140986062Y-77037916D01*
X140986057Y-77037918D01*
X140836836Y-77129959D01*
X140712866Y-77253929D01*
X140620825Y-77403150D01*
X140620823Y-77403155D01*
X140565676Y-77569577D01*
X140565675Y-77569584D01*
X140555182Y-77672288D01*
X125000500Y-77672288D01*
X125000500Y-75124500D01*
X125020185Y-75057461D01*
X125072989Y-75011706D01*
X125124500Y-75000500D01*
X145076000Y-75000500D01*
X145143039Y-75020185D01*
G37*
%TD.AperFunction*%
%TD*%
M02*
