%TF.GenerationSoftware,KiCad,Pcbnew,10.0.3-2.fc44*%
%TF.CreationDate,2026-06-08T18:25:06-05:00*%
%TF.ProjectId,clockgen-cx-jig,636c6f63-6b67-4656-9e2d-63782d6a6967,1.0*%
%TF.SameCoordinates,Original*%
%TF.FileFunction,Copper,L1,Top*%
%TF.FilePolarity,Positive*%
%FSLAX46Y46*%
G04 Gerber Fmt 4.6, Leading zero omitted, Abs format (unit mm)*
G04 Created by KiCad (PCBNEW 10.0.3-2.fc44) date 2026-06-08 18:25:06*
%MOMM*%
%LPD*%
G01*
G04 APERTURE LIST*
G04 Aperture macros list*
%AMRoundRect*
0 Rectangle with rounded corners*
0 $1 Rounding radius*
0 $2 $3 $4 $5 $6 $7 $8 $9 X,Y pos of 4 corners*
0 Add a 4 corners polygon primitive as box body*
4,1,4,$2,$3,$4,$5,$6,$7,$8,$9,$2,$3,0*
0 Add four circle primitives for the rounded corners*
1,1,$1+$1,$2,$3*
1,1,$1+$1,$4,$5*
1,1,$1+$1,$6,$7*
1,1,$1+$1,$8,$9*
0 Add four rect primitives between the rounded corners*
20,1,$1+$1,$2,$3,$4,$5,0*
20,1,$1+$1,$4,$5,$6,$7,0*
20,1,$1+$1,$6,$7,$8,$9,0*
20,1,$1+$1,$8,$9,$2,$3,0*%
G04 Aperture macros list end*
%TA.AperFunction,SMDPad,CuDef*%
%ADD10RoundRect,0.250000X-0.475000X0.337500X-0.475000X-0.337500X0.475000X-0.337500X0.475000X0.337500X0*%
%TD*%
%TA.AperFunction,SMDPad,CuDef*%
%ADD11C,2.000000*%
%TD*%
%TA.AperFunction,SMDPad,CuDef*%
%ADD12RoundRect,0.250000X-0.450000X0.350000X-0.450000X-0.350000X0.450000X-0.350000X0.450000X0.350000X0*%
%TD*%
%TA.AperFunction,SMDPad,CuDef*%
%ADD13RoundRect,0.250000X1.350000X-0.385000X1.350000X0.385000X-1.350000X0.385000X-1.350000X-0.385000X0*%
%TD*%
%TA.AperFunction,SMDPad,CuDef*%
%ADD14RoundRect,0.250000X1.600000X-0.425000X1.600000X0.425000X-1.600000X0.425000X-1.600000X-0.425000X0*%
%TD*%
%TA.AperFunction,SMDPad,CuDef*%
%ADD15RoundRect,0.250000X-0.350000X-0.450000X0.350000X-0.450000X0.350000X0.450000X-0.350000X0.450000X0*%
%TD*%
%TA.AperFunction,SMDPad,CuDef*%
%ADD16RoundRect,0.250000X0.337500X0.475000X-0.337500X0.475000X-0.337500X-0.475000X0.337500X-0.475000X0*%
%TD*%
%TA.AperFunction,ViaPad*%
%ADD17C,0.800000*%
%TD*%
%TA.AperFunction,Conductor*%
%ADD18C,0.250000*%
%TD*%
%TA.AperFunction,Conductor*%
%ADD19C,0.500000*%
%TD*%
G04 APERTURE END LIST*
D10*
%TO.P,C2,1*%
%TO.N,/XT2*%
X135000000Y-83062500D03*
%TO.P,C2,2*%
%TO.N,GND*%
X135000000Y-85137500D03*
%TD*%
D11*
%TO.P,J4,1,Pin_1_1*%
%TO.N,/V_{cc}_3V3*%
X131600000Y-78100000D03*
%TD*%
D12*
%TO.P,R3,1*%
%TO.N,/XT1*%
X131600000Y-81000000D03*
%TO.P,R3,2*%
%TO.N,/XT2*%
X131600000Y-83000000D03*
%TD*%
D11*
%TO.P,J3,1,Pin_1_1*%
%TO.N,/XT2*%
X128100000Y-84800000D03*
%TD*%
D12*
%TO.P,R2,1*%
%TO.N,/XT2*%
X137400000Y-83100000D03*
%TO.P,R2,2*%
%TO.N,GND*%
X137400000Y-85100000D03*
%TD*%
D13*
%TO.P,J1,1,In_1*%
%TO.N,Net-(J1-In)*%
X143155182Y-80972275D03*
D14*
%TO.P,J1,2,Ext_2*%
%TO.N,GND*%
X142905182Y-78147275D03*
X142905182Y-83797275D03*
%TD*%
D11*
%TO.P,J5,1,Pin_1_1*%
%TO.N,GND*%
X128150001Y-77200000D03*
%TD*%
%TO.P,J2,1,Pin_1_1*%
%TO.N,/XT1*%
X128100000Y-81000000D03*
%TD*%
D15*
%TO.P,R1,1*%
%TO.N,/V_{cc}_3V3*%
X135200000Y-78100000D03*
%TO.P,R1,2*%
%TO.N,/XT2*%
X137200000Y-78100000D03*
%TD*%
D16*
%TO.P,C1,1*%
%TO.N,Net-(J1-In)*%
X137237500Y-80700000D03*
%TO.P,C1,2*%
%TO.N,/XT1*%
X135162500Y-80700000D03*
%TD*%
D17*
%TO.N,GND*%
X133400000Y-79400000D03*
X139200000Y-83800000D03*
X139200000Y-78200000D03*
X129500000Y-79200000D03*
X131500000Y-84800000D03*
X142900000Y-85900000D03*
X126700000Y-79100000D03*
X126700000Y-82900000D03*
%TD*%
%TO.N,/XT2*%
D18*
X136200000Y-83062500D02*
X137362500Y-83062500D01*
X131600000Y-83000000D02*
X134937500Y-83000000D01*
X137562500Y-83062500D02*
X137600000Y-83100000D01*
X135162500Y-83100000D02*
X135200000Y-83062500D01*
X136200000Y-79100000D02*
X136200000Y-83062500D01*
X137200000Y-78100000D02*
X136200000Y-79100000D01*
X135000000Y-83062500D02*
X136200000Y-83062500D01*
X129900000Y-83000000D02*
X130100000Y-83000000D01*
X128100000Y-84800000D02*
X129900000Y-83000000D01*
X131600000Y-83000000D02*
X130100000Y-83000000D01*
X134937500Y-83000000D02*
X135000000Y-83062500D01*
%TO.N,GND*%
D19*
X135000000Y-85137500D02*
X137362500Y-85137500D01*
X137562500Y-85137500D02*
X137600000Y-85100000D01*
D18*
X137762500Y-85137500D02*
X137800000Y-85100000D01*
%TO.N,/V_{cc}_3V3*%
X135200000Y-78100000D02*
X131600000Y-78100000D01*
%TO.N,/XT1*%
X134862500Y-81000000D02*
X135162500Y-80700000D01*
X128100000Y-81000000D02*
X131600000Y-81000000D01*
X131600000Y-81000000D02*
X134862500Y-81000000D01*
%TO.N,Net-(J1-In)*%
X137537500Y-81000000D02*
X137237500Y-80700000D01*
X142154500Y-81000000D02*
X137537500Y-81000000D01*
%TD*%
%TA.AperFunction,Conductor*%
%TO.N,GND*%
G36*
X145143039Y-75020185D02*
G01*
X145188794Y-75072989D01*
X145200000Y-75124500D01*
X145200000Y-77057070D01*
X145180315Y-77124109D01*
X145127511Y-77169864D01*
X145058353Y-77179808D01*
X144994797Y-77150783D01*
X144988319Y-77144751D01*
X144973527Y-77129959D01*
X144824306Y-77037918D01*
X144824301Y-77037916D01*
X144657879Y-76982769D01*
X144657872Y-76982768D01*
X144555168Y-76972275D01*
X143155182Y-76972275D01*
X143155182Y-79322274D01*
X144555154Y-79322274D01*
X144555168Y-79322273D01*
X144657879Y-79311780D01*
X144824301Y-79256633D01*
X144824306Y-79256631D01*
X144973527Y-79164590D01*
X144988319Y-79149799D01*
X145049642Y-79116314D01*
X145119334Y-79121298D01*
X145175267Y-79163170D01*
X145199684Y-79228634D01*
X145200000Y-79237480D01*
X145200000Y-80330673D01*
X145180315Y-80397712D01*
X145127511Y-80443467D01*
X145058353Y-80453411D01*
X144994797Y-80424386D01*
X144959818Y-80374006D01*
X144948979Y-80344946D01*
X144948975Y-80344939D01*
X144862729Y-80229730D01*
X144862726Y-80229727D01*
X144747517Y-80143481D01*
X144747510Y-80143477D01*
X144612664Y-80093183D01*
X144612665Y-80093183D01*
X144553065Y-80086776D01*
X144553063Y-80086775D01*
X144553055Y-80086775D01*
X144553046Y-80086775D01*
X141757311Y-80086775D01*
X141757305Y-80086776D01*
X141697698Y-80093183D01*
X141562853Y-80143477D01*
X141562846Y-80143481D01*
X141447637Y-80229727D01*
X141447634Y-80229730D01*
X141361388Y-80344939D01*
X141361384Y-80344946D01*
X141311090Y-80479791D01*
X141307439Y-80513756D01*
X141280701Y-80578307D01*
X141223308Y-80618155D01*
X141184150Y-80624500D01*
X138199499Y-80624500D01*
X138132460Y-80604815D01*
X138086705Y-80552011D01*
X138075499Y-80500500D01*
X138075499Y-80177129D01*
X138075498Y-80177123D01*
X138075497Y-80177116D01*
X138069091Y-80117517D01*
X138060015Y-80093184D01*
X138018797Y-79982671D01*
X138018793Y-79982664D01*
X137932547Y-79867455D01*
X137932544Y-79867452D01*
X137817335Y-79781206D01*
X137817328Y-79781202D01*
X137682486Y-79730910D01*
X137682485Y-79730909D01*
X137682483Y-79730909D01*
X137622873Y-79724500D01*
X137622863Y-79724500D01*
X136852129Y-79724500D01*
X136852123Y-79724501D01*
X136792514Y-79730909D01*
X136742832Y-79749439D01*
X136673140Y-79754423D01*
X136611817Y-79720937D01*
X136578333Y-79659613D01*
X136575500Y-79633257D01*
X136575500Y-79306898D01*
X136584145Y-79277454D01*
X136590668Y-79247472D01*
X136594422Y-79242456D01*
X136595185Y-79239859D01*
X136611810Y-79219226D01*
X136744220Y-79086815D01*
X136805539Y-79053333D01*
X136831889Y-79050499D01*
X137597872Y-79050499D01*
X137657483Y-79044091D01*
X137792331Y-78993796D01*
X137907546Y-78907546D01*
X137993796Y-78792331D01*
X138044091Y-78657483D01*
X138047878Y-78622261D01*
X140555183Y-78622261D01*
X140565676Y-78724972D01*
X140620823Y-78891394D01*
X140620825Y-78891399D01*
X140712866Y-79040620D01*
X140836836Y-79164590D01*
X140986057Y-79256631D01*
X140986062Y-79256633D01*
X141152484Y-79311780D01*
X141152491Y-79311781D01*
X141255201Y-79322274D01*
X142655181Y-79322274D01*
X142655182Y-79322273D01*
X142655182Y-78397275D01*
X140555183Y-78397275D01*
X140555183Y-78622261D01*
X138047878Y-78622261D01*
X138050500Y-78597873D01*
X138050499Y-78069105D01*
X138050499Y-77672288D01*
X140555182Y-77672288D01*
X140555182Y-77897275D01*
X142655182Y-77897275D01*
X142655182Y-76972275D01*
X141255210Y-76972275D01*
X141255194Y-76972276D01*
X141152484Y-76982769D01*
X140986062Y-77037916D01*
X140986057Y-77037918D01*
X140836836Y-77129959D01*
X140712866Y-77253929D01*
X140620825Y-77403150D01*
X140620823Y-77403155D01*
X140565676Y-77569577D01*
X140565675Y-77569584D01*
X140555182Y-77672288D01*
X138050499Y-77672288D01*
X138050499Y-77669139D01*
X138050499Y-77602129D01*
X138050498Y-77602123D01*
X138050497Y-77602116D01*
X138044091Y-77542517D01*
X138007568Y-77444595D01*
X137993797Y-77407671D01*
X137993793Y-77407664D01*
X137907547Y-77292455D01*
X137907544Y-77292452D01*
X137792335Y-77206206D01*
X137792328Y-77206202D01*
X137657482Y-77155908D01*
X137657483Y-77155908D01*
X137597883Y-77149501D01*
X137597881Y-77149500D01*
X137597873Y-77149500D01*
X137597864Y-77149500D01*
X136802129Y-77149500D01*
X136802123Y-77149501D01*
X136742516Y-77155908D01*
X136607671Y-77206202D01*
X136607664Y-77206206D01*
X136492455Y-77292452D01*
X136492452Y-77292455D01*
X136406206Y-77407664D01*
X136406202Y-77407671D01*
X136355908Y-77542517D01*
X136349501Y-77602116D01*
X136349501Y-77602123D01*
X136349500Y-77602135D01*
X136349500Y-78368100D01*
X136340855Y-78397537D01*
X136334332Y-78427528D01*
X136330577Y-78432543D01*
X136329815Y-78435139D01*
X136313180Y-78455782D01*
X136262179Y-78506782D01*
X136200856Y-78540266D01*
X136131164Y-78535281D01*
X136075231Y-78493409D01*
X136050815Y-78427945D01*
X136050499Y-78419122D01*
X136050499Y-77602128D01*
X136044091Y-77542517D01*
X136007568Y-77444595D01*
X135993797Y-77407671D01*
X135993793Y-77407664D01*
X135907547Y-77292455D01*
X135907544Y-77292452D01*
X135792335Y-77206206D01*
X135792328Y-77206202D01*
X135657482Y-77155908D01*
X135657483Y-77155908D01*
X135597883Y-77149501D01*
X135597881Y-77149500D01*
X135597873Y-77149500D01*
X135597864Y-77149500D01*
X134802129Y-77149500D01*
X134802123Y-77149501D01*
X134742516Y-77155908D01*
X134607671Y-77206202D01*
X134607664Y-77206206D01*
X134492455Y-77292452D01*
X134492452Y-77292455D01*
X134406206Y-77407664D01*
X134406202Y-77407671D01*
X134355908Y-77542517D01*
X134349501Y-77602116D01*
X134349501Y-77602123D01*
X134349322Y-77605452D01*
X134348065Y-77605384D01*
X134329815Y-77667539D01*
X134277011Y-77713294D01*
X134225500Y-77724500D01*
X132882938Y-77724500D01*
X132815899Y-77704815D01*
X132770144Y-77652011D01*
X132765007Y-77638819D01*
X132763328Y-77633653D01*
X132758884Y-77619975D01*
X132669524Y-77444595D01*
X132553828Y-77285354D01*
X132414646Y-77146172D01*
X132255405Y-77030476D01*
X132080029Y-76941117D01*
X131892826Y-76880290D01*
X131698422Y-76849500D01*
X131698417Y-76849500D01*
X131501583Y-76849500D01*
X131501578Y-76849500D01*
X131307173Y-76880290D01*
X131119970Y-76941117D01*
X130944594Y-77030476D01*
X130853741Y-77096485D01*
X130785354Y-77146172D01*
X130785352Y-77146174D01*
X130785351Y-77146174D01*
X130646174Y-77285351D01*
X130646174Y-77285352D01*
X130646172Y-77285354D01*
X130596485Y-77353741D01*
X130530476Y-77444594D01*
X130441117Y-77619970D01*
X130380290Y-77807173D01*
X130349500Y-78001577D01*
X130349500Y-78198422D01*
X130380290Y-78392826D01*
X130441117Y-78580029D01*
X130502246Y-78700000D01*
X130530476Y-78755405D01*
X130646172Y-78914646D01*
X130785354Y-79053828D01*
X130944595Y-79169524D01*
X131027455Y-79211743D01*
X131119970Y-79258882D01*
X131119972Y-79258882D01*
X131119975Y-79258884D01*
X131220317Y-79291487D01*
X131307173Y-79319709D01*
X131501578Y-79350500D01*
X131501583Y-79350500D01*
X131698422Y-79350500D01*
X131892826Y-79319709D01*
X132080025Y-79258884D01*
X132255405Y-79169524D01*
X132414646Y-79053828D01*
X132553828Y-78914646D01*
X132669524Y-78755405D01*
X132758884Y-78580025D01*
X132765007Y-78561181D01*
X132804445Y-78503506D01*
X132868804Y-78476308D01*
X132882938Y-78475500D01*
X134225501Y-78475500D01*
X134292540Y-78495185D01*
X134338295Y-78547989D01*
X134348437Y-78594611D01*
X134349099Y-78594576D01*
X134349146Y-78594571D01*
X134349146Y-78594573D01*
X134349324Y-78594564D01*
X134349501Y-78597876D01*
X134355908Y-78657483D01*
X134406202Y-78792328D01*
X134406206Y-78792335D01*
X134492452Y-78907544D01*
X134492455Y-78907547D01*
X134607664Y-78993793D01*
X134607671Y-78993797D01*
X134742517Y-79044091D01*
X134742516Y-79044091D01*
X134749444Y-79044835D01*
X134802127Y-79050500D01*
X135597872Y-79050499D01*
X135657483Y-79044091D01*
X135657485Y-79044090D01*
X135657487Y-79044090D01*
X135665031Y-79042308D01*
X135665342Y-79043624D01*
X135726858Y-79039225D01*
X135788181Y-79072709D01*
X135821666Y-79134032D01*
X135824500Y-79160391D01*
X135824500Y-79633257D01*
X135804815Y-79700296D01*
X135752011Y-79746051D01*
X135682853Y-79755995D01*
X135657168Y-79749439D01*
X135607488Y-79730910D01*
X135607484Y-79730909D01*
X135607483Y-79730909D01*
X135547873Y-79724500D01*
X135547863Y-79724500D01*
X134777129Y-79724500D01*
X134777123Y-79724501D01*
X134717516Y-79730908D01*
X134582671Y-79781202D01*
X134582664Y-79781206D01*
X134467455Y-79867452D01*
X134467452Y-79867455D01*
X134381206Y-79982664D01*
X134381202Y-79982671D01*
X134330908Y-80117517D01*
X134328117Y-80143481D01*
X134324501Y-80177123D01*
X134324500Y-80177135D01*
X134324500Y-80500500D01*
X134304815Y-80567539D01*
X134252011Y-80613294D01*
X134200500Y-80624500D01*
X132660764Y-80624500D01*
X132593725Y-80604815D01*
X132547970Y-80552011D01*
X132544582Y-80543833D01*
X132493797Y-80407671D01*
X132493793Y-80407664D01*
X132407547Y-80292455D01*
X132407544Y-80292452D01*
X132292335Y-80206206D01*
X132292328Y-80206202D01*
X132157482Y-80155908D01*
X132157483Y-80155908D01*
X132097883Y-80149501D01*
X132097881Y-80149500D01*
X132097873Y-80149500D01*
X132097864Y-80149500D01*
X131102129Y-80149500D01*
X131102123Y-80149501D01*
X131042516Y-80155908D01*
X130907671Y-80206202D01*
X130907664Y-80206206D01*
X130792455Y-80292452D01*
X130792452Y-80292455D01*
X130706206Y-80407664D01*
X130706202Y-80407671D01*
X130655418Y-80543833D01*
X130613547Y-80599767D01*
X130548083Y-80624184D01*
X130539236Y-80624500D01*
X129382938Y-80624500D01*
X129315899Y-80604815D01*
X129270144Y-80552011D01*
X129265007Y-80538819D01*
X129263328Y-80533653D01*
X129258884Y-80519975D01*
X129169524Y-80344595D01*
X129053828Y-80185354D01*
X128914646Y-80046172D01*
X128755405Y-79930476D01*
X128580029Y-79841117D01*
X128392826Y-79780290D01*
X128198422Y-79749500D01*
X128198417Y-79749500D01*
X128001583Y-79749500D01*
X128001578Y-79749500D01*
X127807173Y-79780290D01*
X127619970Y-79841117D01*
X127444594Y-79930476D01*
X127372765Y-79982664D01*
X127285354Y-80046172D01*
X127285352Y-80046174D01*
X127285351Y-80046174D01*
X127146174Y-80185351D01*
X127146174Y-80185352D01*
X127146172Y-80185354D01*
X127113931Y-80229730D01*
X127030476Y-80344594D01*
X126941117Y-80519970D01*
X126880290Y-80707173D01*
X126849500Y-80901577D01*
X126849500Y-81098422D01*
X126880290Y-81292826D01*
X126941117Y-81480029D01*
X127002045Y-81599606D01*
X127030476Y-81655405D01*
X127146172Y-81814646D01*
X127285354Y-81953828D01*
X127444595Y-82069524D01*
X127527455Y-82111743D01*
X127619970Y-82158882D01*
X127619972Y-82158882D01*
X127619975Y-82158884D01*
X127675441Y-82176906D01*
X127807173Y-82219709D01*
X128001578Y-82250500D01*
X128001583Y-82250500D01*
X128198422Y-82250500D01*
X128392826Y-82219709D01*
X128580025Y-82158884D01*
X128755405Y-82069524D01*
X128914646Y-81953828D01*
X129053828Y-81814646D01*
X129169524Y-81655405D01*
X129258884Y-81480025D01*
X129265007Y-81461181D01*
X129304445Y-81403506D01*
X129368804Y-81376308D01*
X129382938Y-81375500D01*
X130539236Y-81375500D01*
X130606275Y-81395185D01*
X130652030Y-81447989D01*
X130655418Y-81456167D01*
X130706202Y-81592328D01*
X130706206Y-81592335D01*
X130792452Y-81707544D01*
X130792455Y-81707547D01*
X130907664Y-81793793D01*
X130907671Y-81793797D01*
X131042517Y-81844091D01*
X131042516Y-81844091D01*
X131049444Y-81844835D01*
X131102127Y-81850500D01*
X132097872Y-81850499D01*
X132157483Y-81844091D01*
X132292331Y-81793796D01*
X132407546Y-81707546D01*
X132493796Y-81592331D01*
X132535682Y-81480029D01*
X132544582Y-81456167D01*
X132586453Y-81400233D01*
X132651917Y-81375816D01*
X132660764Y-81375500D01*
X134287820Y-81375500D01*
X134354859Y-81395185D01*
X134387085Y-81425187D01*
X134467454Y-81532546D01*
X134500500Y-81557284D01*
X134582664Y-81618793D01*
X134582671Y-81618797D01*
X134627618Y-81635561D01*
X134717517Y-81669091D01*
X134777127Y-81675500D01*
X135547872Y-81675499D01*
X135607483Y-81669091D01*
X135657167Y-81650559D01*
X135726858Y-81645576D01*
X135788181Y-81679061D01*
X135821666Y-81740384D01*
X135824500Y-81766742D01*
X135824500Y-82142581D01*
X135804815Y-82209620D01*
X135752011Y-82255375D01*
X135682853Y-82265319D01*
X135657168Y-82258763D01*
X135582485Y-82230909D01*
X135582483Y-82230908D01*
X135522883Y-82224501D01*
X135522881Y-82224500D01*
X135522873Y-82224500D01*
X135522864Y-82224500D01*
X134477129Y-82224500D01*
X134477123Y-82224501D01*
X134417516Y-82230908D01*
X134282671Y-82281202D01*
X134282664Y-82281206D01*
X134167455Y-82367452D01*
X134167452Y-82367455D01*
X134081206Y-82482664D01*
X134081202Y-82482671D01*
X134058391Y-82543833D01*
X134016520Y-82599767D01*
X133951056Y-82624184D01*
X133942209Y-82624500D01*
X132660764Y-82624500D01*
X132593725Y-82604815D01*
X132547970Y-82552011D01*
X132544582Y-82543833D01*
X132493797Y-82407671D01*
X132493793Y-82407664D01*
X132407547Y-82292455D01*
X132407544Y-82292452D01*
X132292335Y-82206206D01*
X132292328Y-82206202D01*
X132157482Y-82155908D01*
X132157483Y-82155908D01*
X132097883Y-82149501D01*
X132097881Y-82149500D01*
X132097873Y-82149500D01*
X132097864Y-82149500D01*
X131102129Y-82149500D01*
X131102123Y-82149501D01*
X131042516Y-82155908D01*
X130907671Y-82206202D01*
X130907664Y-82206206D01*
X130792455Y-82292452D01*
X130792452Y-82292455D01*
X130706206Y-82407664D01*
X130706202Y-82407671D01*
X130655418Y-82543833D01*
X130613547Y-82599767D01*
X130548083Y-82624184D01*
X130539236Y-82624500D01*
X129850564Y-82624500D01*
X129802812Y-82637295D01*
X129802811Y-82637294D01*
X129755063Y-82650089D01*
X129755062Y-82650089D01*
X129669435Y-82699527D01*
X128741654Y-83627307D01*
X128680331Y-83660792D01*
X128610639Y-83655808D01*
X128597684Y-83650114D01*
X128580025Y-83641116D01*
X128537526Y-83627307D01*
X128392826Y-83580290D01*
X128198422Y-83549500D01*
X128198417Y-83549500D01*
X128001583Y-83549500D01*
X128001578Y-83549500D01*
X127807173Y-83580290D01*
X127619970Y-83641117D01*
X127444594Y-83730476D01*
X127407335Y-83757547D01*
X127285354Y-83846172D01*
X127285352Y-83846174D01*
X127285351Y-83846174D01*
X127146174Y-83985351D01*
X127146174Y-83985352D01*
X127146172Y-83985354D01*
X127116068Y-84026788D01*
X127030476Y-84144594D01*
X126941117Y-84319970D01*
X126880290Y-84507173D01*
X126849500Y-84701577D01*
X126849500Y-84898422D01*
X126880290Y-85092826D01*
X126941117Y-85280029D01*
X127030476Y-85455405D01*
X127146172Y-85614646D01*
X127285354Y-85753828D01*
X127444595Y-85869524D01*
X127527455Y-85911743D01*
X127619970Y-85958882D01*
X127619972Y-85958882D01*
X127619975Y-85958884D01*
X127720317Y-85991487D01*
X127807173Y-86019709D01*
X128001578Y-86050500D01*
X128001583Y-86050500D01*
X128198422Y-86050500D01*
X128392826Y-86019709D01*
X128580025Y-85958884D01*
X128755405Y-85869524D01*
X128914646Y-85753828D01*
X129053828Y-85614646D01*
X129118970Y-85524986D01*
X133775001Y-85524986D01*
X133785494Y-85627697D01*
X133840641Y-85794119D01*
X133840643Y-85794124D01*
X133932684Y-85943345D01*
X134056654Y-86067315D01*
X134205875Y-86159356D01*
X134205880Y-86159358D01*
X134372302Y-86214505D01*
X134372309Y-86214506D01*
X134475019Y-86224999D01*
X134749999Y-86224999D01*
X134750000Y-86224998D01*
X134750000Y-85387500D01*
X135250000Y-85387500D01*
X135250000Y-86224999D01*
X135524972Y-86224999D01*
X135524986Y-86224998D01*
X135627697Y-86214505D01*
X135794119Y-86159358D01*
X135794124Y-86159356D01*
X135943345Y-86067315D01*
X136067315Y-85943345D01*
X136114671Y-85866570D01*
X136166619Y-85819846D01*
X136235582Y-85808623D01*
X136299664Y-85836467D01*
X136325749Y-85866570D01*
X136357684Y-85918345D01*
X136481654Y-86042315D01*
X136630875Y-86134356D01*
X136630880Y-86134358D01*
X136797302Y-86189505D01*
X136797309Y-86189506D01*
X136900019Y-86199999D01*
X137149999Y-86199999D01*
X137650000Y-86199999D01*
X137899972Y-86199999D01*
X137899986Y-86199998D01*
X138002697Y-86189505D01*
X138169119Y-86134358D01*
X138169124Y-86134356D01*
X138318345Y-86042315D01*
X138442315Y-85918345D01*
X138534356Y-85769124D01*
X138534358Y-85769119D01*
X138589505Y-85602697D01*
X138589506Y-85602690D01*
X138599999Y-85499986D01*
X138600000Y-85499973D01*
X138600000Y-85350000D01*
X137650000Y-85350000D01*
X137650000Y-86199999D01*
X137149999Y-86199999D01*
X137150000Y-86199998D01*
X137150000Y-85350000D01*
X136355000Y-85350000D01*
X136353819Y-85351181D01*
X136292496Y-85384666D01*
X136266138Y-85387500D01*
X135250000Y-85387500D01*
X134750000Y-85387500D01*
X133775001Y-85387500D01*
X133775001Y-85524986D01*
X129118970Y-85524986D01*
X129169524Y-85455405D01*
X129258884Y-85280025D01*
X129319709Y-85092826D01*
X129350500Y-84898422D01*
X129350500Y-84701577D01*
X129319709Y-84507173D01*
X129262679Y-84331656D01*
X129258884Y-84319975D01*
X129258882Y-84319972D01*
X129258882Y-84319970D01*
X129249888Y-84302319D01*
X129236992Y-84233649D01*
X129263268Y-84168909D01*
X129272683Y-84158352D01*
X130019218Y-83411819D01*
X130080541Y-83378334D01*
X130106899Y-83375500D01*
X130539236Y-83375500D01*
X130606275Y-83395185D01*
X130652030Y-83447989D01*
X130655418Y-83456167D01*
X130706202Y-83592328D01*
X130706206Y-83592335D01*
X130792452Y-83707544D01*
X130792455Y-83707547D01*
X130907664Y-83793793D01*
X130907671Y-83793797D01*
X131042517Y-83844091D01*
X131042516Y-83844091D01*
X131049444Y-83844835D01*
X131102127Y-83850500D01*
X132097872Y-83850499D01*
X132157483Y-83844091D01*
X132292331Y-83793796D01*
X132407546Y-83707546D01*
X132493796Y-83592331D01*
X132544091Y-83457483D01*
X132544090Y-83457483D01*
X132544582Y-83456167D01*
X132586453Y-83400233D01*
X132651917Y-83375816D01*
X132660764Y-83375500D01*
X133905336Y-83375500D01*
X133972375Y-83395185D01*
X134018130Y-83447989D01*
X134028626Y-83486246D01*
X134030909Y-83507483D01*
X134081202Y-83642328D01*
X134081206Y-83642335D01*
X134167452Y-83757544D01*
X134167455Y-83757547D01*
X134282664Y-83843793D01*
X134282673Y-83843798D01*
X134302468Y-83851181D01*
X134358402Y-83893051D01*
X134382820Y-83958515D01*
X134367969Y-84026788D01*
X134318565Y-84076194D01*
X134298141Y-84085069D01*
X134205878Y-84115642D01*
X134205875Y-84115643D01*
X134056654Y-84207684D01*
X133932684Y-84331654D01*
X133840643Y-84480875D01*
X133840641Y-84480880D01*
X133785494Y-84647302D01*
X133785493Y-84647309D01*
X133775000Y-84750013D01*
X133775000Y-84887500D01*
X136070000Y-84887500D01*
X136071181Y-84886319D01*
X136132504Y-84852834D01*
X136158862Y-84850000D01*
X138599999Y-84850000D01*
X138599999Y-84700028D01*
X138599998Y-84700013D01*
X138589505Y-84597302D01*
X138534358Y-84430880D01*
X138534356Y-84430875D01*
X138442315Y-84281654D01*
X138432922Y-84272261D01*
X140555183Y-84272261D01*
X140565676Y-84374972D01*
X140620823Y-84541394D01*
X140620825Y-84541399D01*
X140712866Y-84690620D01*
X140836836Y-84814590D01*
X140986057Y-84906631D01*
X140986062Y-84906633D01*
X141152484Y-84961780D01*
X141152491Y-84961781D01*
X141255201Y-84972274D01*
X142655181Y-84972274D01*
X142655182Y-84972273D01*
X142655182Y-84047275D01*
X140555183Y-84047275D01*
X140555183Y-84272261D01*
X138432922Y-84272261D01*
X138318345Y-84157684D01*
X138227725Y-84101789D01*
X138156604Y-84059055D01*
X138137171Y-84037948D01*
X138115627Y-84018981D01*
X138113797Y-84012562D01*
X138109278Y-84007654D01*
X138104339Y-83979385D01*
X138096473Y-83951788D01*
X138098403Y-83945400D01*
X138097255Y-83938827D01*
X138108383Y-83912377D01*
X138116686Y-83884906D01*
X138122588Y-83878616D01*
X138124352Y-83874425D01*
X138130443Y-83870245D01*
X138146154Y-83853503D01*
X138207546Y-83807546D01*
X138293796Y-83692331D01*
X138344091Y-83557483D01*
X138350500Y-83497873D01*
X138350500Y-83322288D01*
X140555182Y-83322288D01*
X140555182Y-83547275D01*
X142655182Y-83547275D01*
X142655182Y-82622275D01*
X141255210Y-82622275D01*
X141255194Y-82622276D01*
X141152484Y-82632769D01*
X140986062Y-82687916D01*
X140986057Y-82687918D01*
X140836836Y-82779959D01*
X140712866Y-82903929D01*
X140620825Y-83053150D01*
X140620823Y-83053155D01*
X140565676Y-83219577D01*
X140565675Y-83219584D01*
X140555182Y-83322288D01*
X138350500Y-83322288D01*
X138350499Y-83053155D01*
X138350499Y-82702129D01*
X138350498Y-82702123D01*
X138344091Y-82642516D01*
X138293797Y-82507671D01*
X138293793Y-82507664D01*
X138207547Y-82392455D01*
X138207544Y-82392452D01*
X138092335Y-82306206D01*
X138092328Y-82306202D01*
X137957482Y-82255908D01*
X137957483Y-82255908D01*
X137897883Y-82249501D01*
X137897881Y-82249500D01*
X137897873Y-82249500D01*
X137897864Y-82249500D01*
X136902129Y-82249500D01*
X136902123Y-82249501D01*
X136842516Y-82255908D01*
X136742833Y-82293088D01*
X136673141Y-82298072D01*
X136611818Y-82264586D01*
X136578334Y-82203263D01*
X136575500Y-82176906D01*
X136575500Y-81766742D01*
X136595185Y-81699703D01*
X136647989Y-81653948D01*
X136717147Y-81644004D01*
X136742830Y-81650559D01*
X136782278Y-81665272D01*
X136792511Y-81669089D01*
X136792517Y-81669091D01*
X136852127Y-81675500D01*
X137622872Y-81675499D01*
X137682483Y-81669091D01*
X137817331Y-81618796D01*
X137932546Y-81532546D01*
X138012914Y-81425188D01*
X138068847Y-81383318D01*
X138112180Y-81375500D01*
X141191885Y-81375500D01*
X141258924Y-81395185D01*
X141304679Y-81447989D01*
X141307987Y-81457636D01*
X141308380Y-81457490D01*
X141361384Y-81599603D01*
X141361388Y-81599610D01*
X141447634Y-81714819D01*
X141447637Y-81714822D01*
X141562846Y-81801068D01*
X141562853Y-81801072D01*
X141697699Y-81851366D01*
X141697698Y-81851366D01*
X141704626Y-81852110D01*
X141757309Y-81857775D01*
X144553054Y-81857774D01*
X144612665Y-81851366D01*
X144747513Y-81801071D01*
X144862728Y-81714821D01*
X144948978Y-81599606D01*
X144951690Y-81592335D01*
X144959818Y-81570544D01*
X145001689Y-81514610D01*
X145067153Y-81490192D01*
X145135426Y-81505043D01*
X145184832Y-81554448D01*
X145200000Y-81613876D01*
X145200000Y-82707070D01*
X145180315Y-82774109D01*
X145127511Y-82819864D01*
X145058353Y-82829808D01*
X144994797Y-82800783D01*
X144988319Y-82794751D01*
X144973527Y-82779959D01*
X144824306Y-82687918D01*
X144824301Y-82687916D01*
X144657879Y-82632769D01*
X144657872Y-82632768D01*
X144555168Y-82622275D01*
X143155182Y-82622275D01*
X143155182Y-84972274D01*
X144555154Y-84972274D01*
X144555168Y-84972273D01*
X144657879Y-84961780D01*
X144824301Y-84906633D01*
X144824306Y-84906631D01*
X144973527Y-84814590D01*
X144988319Y-84799799D01*
X145049642Y-84766314D01*
X145119334Y-84771298D01*
X145175267Y-84813170D01*
X145199684Y-84878634D01*
X145200000Y-84887480D01*
X145200000Y-86875500D01*
X145180315Y-86942539D01*
X145127511Y-86988294D01*
X145076000Y-86999500D01*
X125124500Y-86999500D01*
X125057461Y-86979815D01*
X125011706Y-86927011D01*
X125000500Y-86875500D01*
X125000500Y-78422658D01*
X127280894Y-78422658D01*
X127363829Y-78482914D01*
X127574198Y-78590102D01*
X127798753Y-78663065D01*
X127798752Y-78663065D01*
X128031949Y-78700000D01*
X128268053Y-78700000D01*
X128501248Y-78663065D01*
X128725803Y-78590102D01*
X128936164Y-78482918D01*
X128936170Y-78482914D01*
X129019105Y-78422658D01*
X129019106Y-78422658D01*
X128150001Y-77553554D01*
X127280894Y-78422658D01*
X125000500Y-78422658D01*
X125000500Y-77081947D01*
X126650001Y-77081947D01*
X126650001Y-77318052D01*
X126686935Y-77551247D01*
X126759898Y-77775802D01*
X126867088Y-77986174D01*
X126927339Y-78069104D01*
X126927341Y-78069105D01*
X127796447Y-77200000D01*
X127796446Y-77199999D01*
X128503555Y-77199999D01*
X128503555Y-77200001D01*
X129372659Y-78069105D01*
X129372659Y-78069104D01*
X129432915Y-77986169D01*
X129432919Y-77986163D01*
X129540103Y-77775802D01*
X129613066Y-77551247D01*
X129650001Y-77318052D01*
X129650001Y-77081947D01*
X129613066Y-76848752D01*
X129540103Y-76624197D01*
X129432915Y-76413828D01*
X129372659Y-76330894D01*
X129372659Y-76330893D01*
X128503555Y-77199999D01*
X127796446Y-77199999D01*
X126927341Y-76330894D01*
X126867085Y-76413830D01*
X126759898Y-76624197D01*
X126686935Y-76848752D01*
X126650001Y-77081947D01*
X125000500Y-77081947D01*
X125000500Y-75977340D01*
X127280895Y-75977340D01*
X128150001Y-76846446D01*
X128150002Y-76846446D01*
X129019106Y-75977340D01*
X129019105Y-75977338D01*
X128936175Y-75917087D01*
X128725803Y-75809897D01*
X128501248Y-75736934D01*
X128501249Y-75736934D01*
X128268053Y-75700000D01*
X128031949Y-75700000D01*
X127798753Y-75736934D01*
X127574198Y-75809897D01*
X127363831Y-75917084D01*
X127280895Y-75977340D01*
X125000500Y-75977340D01*
X125000500Y-75124500D01*
X125020185Y-75057461D01*
X125072989Y-75011706D01*
X125124500Y-75000500D01*
X145076000Y-75000500D01*
X145143039Y-75020185D01*
G37*
%TD.AperFunction*%
%TD*%
M02*
