%TF.GenerationSoftware,KiCad,Pcbnew,10.0.3-2.fc44*%
%TF.CreationDate,2026-06-08T18:25:07-05:00*%
%TF.ProjectId,clockgen-cx-jig,636c6f63-6b67-4656-9e2d-63782d6a6967,1.0*%
%TF.SameCoordinates,Original*%
%TF.FileFunction,Legend,Bot*%
%TF.FilePolarity,Positive*%
%FSLAX46Y46*%
G04 Gerber Fmt 4.6, Leading zero omitted, Abs format (unit mm)*
G04 Created by KiCad (PCBNEW 10.0.3-2.fc44) date 2026-06-08 18:25:07*
%MOMM*%
%LPD*%
G01*
G04 APERTURE LIST*
G04 Aperture macros list*
%AMRoundRect*
0 Rectangle with rounded corners*
0 $1 Rounding radius*
0 $2 $3 $4 $5 $6 $7 $8 $9 X,Y pos of 4 corners*
0 Add a 4 corners polygon primitive as box body*
4,1,4,$2,$3,$4,$5,$6,$7,$8,$9,$2,$3,0*
0 Add four circle primitives for the rounded corners*
1,1,$1+$1,$2,$3*
1,1,$1+$1,$4,$5*
1,1,$1+$1,$6,$7*
1,1,$1+$1,$8,$9*
0 Add four rect primitives between the rounded corners*
20,1,$1+$1,$2,$3,$4,$5,0*
20,1,$1+$1,$4,$5,$6,$7,0*
20,1,$1+$1,$6,$7,$8,$9,0*
20,1,$1+$1,$8,$9,$2,$3,0*%
G04 Aperture macros list end*
%ADD10C,0.150000*%
%ADD11RoundRect,0.250000X1.600000X-0.425000X1.600000X0.425000X-1.600000X0.425000X-1.600000X-0.425000X0*%
G04 APERTURE END LIST*
D10*
X137492877Y-77068748D02*
X137540496Y-77116368D01*
X137540496Y-77116368D02*
X137683353Y-77163987D01*
X137683353Y-77163987D02*
X137778591Y-77163987D01*
X137778591Y-77163987D02*
X137921448Y-77116368D01*
X137921448Y-77116368D02*
X138016686Y-77021129D01*
X138016686Y-77021129D02*
X138064305Y-76925891D01*
X138064305Y-76925891D02*
X138111924Y-76735415D01*
X138111924Y-76735415D02*
X138111924Y-76592558D01*
X138111924Y-76592558D02*
X138064305Y-76402082D01*
X138064305Y-76402082D02*
X138016686Y-76306844D01*
X138016686Y-76306844D02*
X137921448Y-76211606D01*
X137921448Y-76211606D02*
X137778591Y-76163987D01*
X137778591Y-76163987D02*
X137683353Y-76163987D01*
X137683353Y-76163987D02*
X137540496Y-76211606D01*
X137540496Y-76211606D02*
X137492877Y-76259225D01*
X136921448Y-77163987D02*
X137016686Y-77116368D01*
X137016686Y-77116368D02*
X137064305Y-77021129D01*
X137064305Y-77021129D02*
X137064305Y-76163987D01*
X136397638Y-77163987D02*
X136492876Y-77116368D01*
X136492876Y-77116368D02*
X136540495Y-77068748D01*
X136540495Y-77068748D02*
X136588114Y-76973510D01*
X136588114Y-76973510D02*
X136588114Y-76687796D01*
X136588114Y-76687796D02*
X136540495Y-76592558D01*
X136540495Y-76592558D02*
X136492876Y-76544939D01*
X136492876Y-76544939D02*
X136397638Y-76497320D01*
X136397638Y-76497320D02*
X136254781Y-76497320D01*
X136254781Y-76497320D02*
X136159543Y-76544939D01*
X136159543Y-76544939D02*
X136111924Y-76592558D01*
X136111924Y-76592558D02*
X136064305Y-76687796D01*
X136064305Y-76687796D02*
X136064305Y-76973510D01*
X136064305Y-76973510D02*
X136111924Y-77068748D01*
X136111924Y-77068748D02*
X136159543Y-77116368D01*
X136159543Y-77116368D02*
X136254781Y-77163987D01*
X136254781Y-77163987D02*
X136397638Y-77163987D01*
X135207162Y-77116368D02*
X135302400Y-77163987D01*
X135302400Y-77163987D02*
X135492876Y-77163987D01*
X135492876Y-77163987D02*
X135588114Y-77116368D01*
X135588114Y-77116368D02*
X135635733Y-77068748D01*
X135635733Y-77068748D02*
X135683352Y-76973510D01*
X135683352Y-76973510D02*
X135683352Y-76687796D01*
X135683352Y-76687796D02*
X135635733Y-76592558D01*
X135635733Y-76592558D02*
X135588114Y-76544939D01*
X135588114Y-76544939D02*
X135492876Y-76497320D01*
X135492876Y-76497320D02*
X135302400Y-76497320D01*
X135302400Y-76497320D02*
X135207162Y-76544939D01*
X134778590Y-77163987D02*
X134778590Y-76163987D01*
X134683352Y-76783034D02*
X134397638Y-77163987D01*
X134397638Y-76497320D02*
X134778590Y-76878272D01*
X133540495Y-76497320D02*
X133540495Y-77306844D01*
X133540495Y-77306844D02*
X133588114Y-77402082D01*
X133588114Y-77402082D02*
X133635733Y-77449701D01*
X133635733Y-77449701D02*
X133730971Y-77497320D01*
X133730971Y-77497320D02*
X133873828Y-77497320D01*
X133873828Y-77497320D02*
X133969066Y-77449701D01*
X133540495Y-77116368D02*
X133635733Y-77163987D01*
X133635733Y-77163987D02*
X133826209Y-77163987D01*
X133826209Y-77163987D02*
X133921447Y-77116368D01*
X133921447Y-77116368D02*
X133969066Y-77068748D01*
X133969066Y-77068748D02*
X134016685Y-76973510D01*
X134016685Y-76973510D02*
X134016685Y-76687796D01*
X134016685Y-76687796D02*
X133969066Y-76592558D01*
X133969066Y-76592558D02*
X133921447Y-76544939D01*
X133921447Y-76544939D02*
X133826209Y-76497320D01*
X133826209Y-76497320D02*
X133635733Y-76497320D01*
X133635733Y-76497320D02*
X133540495Y-76544939D01*
X132683352Y-77116368D02*
X132778590Y-77163987D01*
X132778590Y-77163987D02*
X132969066Y-77163987D01*
X132969066Y-77163987D02*
X133064304Y-77116368D01*
X133064304Y-77116368D02*
X133111923Y-77021129D01*
X133111923Y-77021129D02*
X133111923Y-76640177D01*
X133111923Y-76640177D02*
X133064304Y-76544939D01*
X133064304Y-76544939D02*
X132969066Y-76497320D01*
X132969066Y-76497320D02*
X132778590Y-76497320D01*
X132778590Y-76497320D02*
X132683352Y-76544939D01*
X132683352Y-76544939D02*
X132635733Y-76640177D01*
X132635733Y-76640177D02*
X132635733Y-76735415D01*
X132635733Y-76735415D02*
X133111923Y-76830653D01*
X132207161Y-76497320D02*
X132207161Y-77163987D01*
X132207161Y-76592558D02*
X132159542Y-76544939D01*
X132159542Y-76544939D02*
X132064304Y-76497320D01*
X132064304Y-76497320D02*
X131921447Y-76497320D01*
X131921447Y-76497320D02*
X131826209Y-76544939D01*
X131826209Y-76544939D02*
X131778590Y-76640177D01*
X131778590Y-76640177D02*
X131778590Y-77163987D01*
X129969066Y-77068748D02*
X130016685Y-77116368D01*
X130016685Y-77116368D02*
X130159542Y-77163987D01*
X130159542Y-77163987D02*
X130254780Y-77163987D01*
X130254780Y-77163987D02*
X130397637Y-77116368D01*
X130397637Y-77116368D02*
X130492875Y-77021129D01*
X130492875Y-77021129D02*
X130540494Y-76925891D01*
X130540494Y-76925891D02*
X130588113Y-76735415D01*
X130588113Y-76735415D02*
X130588113Y-76592558D01*
X130588113Y-76592558D02*
X130540494Y-76402082D01*
X130540494Y-76402082D02*
X130492875Y-76306844D01*
X130492875Y-76306844D02*
X130397637Y-76211606D01*
X130397637Y-76211606D02*
X130254780Y-76163987D01*
X130254780Y-76163987D02*
X130159542Y-76163987D01*
X130159542Y-76163987D02*
X130016685Y-76211606D01*
X130016685Y-76211606D02*
X129969066Y-76259225D01*
X129635732Y-76163987D02*
X128969066Y-77163987D01*
X128969066Y-76163987D02*
X129635732Y-77163987D01*
X127540494Y-76163987D02*
X127540494Y-76878272D01*
X127540494Y-76878272D02*
X127588113Y-77021129D01*
X127588113Y-77021129D02*
X127683351Y-77116368D01*
X127683351Y-77116368D02*
X127826208Y-77163987D01*
X127826208Y-77163987D02*
X127921446Y-77163987D01*
X127064303Y-77163987D02*
X127064303Y-76497320D01*
X127064303Y-76163987D02*
X127111922Y-76211606D01*
X127111922Y-76211606D02*
X127064303Y-76259225D01*
X127064303Y-76259225D02*
X127016684Y-76211606D01*
X127016684Y-76211606D02*
X127064303Y-76163987D01*
X127064303Y-76163987D02*
X127064303Y-76259225D01*
X126159542Y-76497320D02*
X126159542Y-77306844D01*
X126159542Y-77306844D02*
X126207161Y-77402082D01*
X126207161Y-77402082D02*
X126254780Y-77449701D01*
X126254780Y-77449701D02*
X126350018Y-77497320D01*
X126350018Y-77497320D02*
X126492875Y-77497320D01*
X126492875Y-77497320D02*
X126588113Y-77449701D01*
X126159542Y-77116368D02*
X126254780Y-77163987D01*
X126254780Y-77163987D02*
X126445256Y-77163987D01*
X126445256Y-77163987D02*
X126540494Y-77116368D01*
X126540494Y-77116368D02*
X126588113Y-77068748D01*
X126588113Y-77068748D02*
X126635732Y-76973510D01*
X126635732Y-76973510D02*
X126635732Y-76687796D01*
X126635732Y-76687796D02*
X126588113Y-76592558D01*
X126588113Y-76592558D02*
X126540494Y-76544939D01*
X126540494Y-76544939D02*
X126445256Y-76497320D01*
X126445256Y-76497320D02*
X126254780Y-76497320D01*
X126254780Y-76497320D02*
X126159542Y-76544939D01*
X137564305Y-78773931D02*
X137897638Y-78297740D01*
X138135733Y-78773931D02*
X138135733Y-77773931D01*
X138135733Y-77773931D02*
X137754781Y-77773931D01*
X137754781Y-77773931D02*
X137659543Y-77821550D01*
X137659543Y-77821550D02*
X137611924Y-77869169D01*
X137611924Y-77869169D02*
X137564305Y-77964407D01*
X137564305Y-77964407D02*
X137564305Y-78107264D01*
X137564305Y-78107264D02*
X137611924Y-78202502D01*
X137611924Y-78202502D02*
X137659543Y-78250121D01*
X137659543Y-78250121D02*
X137754781Y-78297740D01*
X137754781Y-78297740D02*
X138135733Y-78297740D01*
X136754781Y-78726312D02*
X136850019Y-78773931D01*
X136850019Y-78773931D02*
X137040495Y-78773931D01*
X137040495Y-78773931D02*
X137135733Y-78726312D01*
X137135733Y-78726312D02*
X137183352Y-78631073D01*
X137183352Y-78631073D02*
X137183352Y-78250121D01*
X137183352Y-78250121D02*
X137135733Y-78154883D01*
X137135733Y-78154883D02*
X137040495Y-78107264D01*
X137040495Y-78107264D02*
X136850019Y-78107264D01*
X136850019Y-78107264D02*
X136754781Y-78154883D01*
X136754781Y-78154883D02*
X136707162Y-78250121D01*
X136707162Y-78250121D02*
X136707162Y-78345359D01*
X136707162Y-78345359D02*
X137183352Y-78440597D01*
X135897638Y-78726312D02*
X135992876Y-78773931D01*
X135992876Y-78773931D02*
X136183352Y-78773931D01*
X136183352Y-78773931D02*
X136278590Y-78726312D01*
X136278590Y-78726312D02*
X136326209Y-78631073D01*
X136326209Y-78631073D02*
X136326209Y-78250121D01*
X136326209Y-78250121D02*
X136278590Y-78154883D01*
X136278590Y-78154883D02*
X136183352Y-78107264D01*
X136183352Y-78107264D02*
X135992876Y-78107264D01*
X135992876Y-78107264D02*
X135897638Y-78154883D01*
X135897638Y-78154883D02*
X135850019Y-78250121D01*
X135850019Y-78250121D02*
X135850019Y-78345359D01*
X135850019Y-78345359D02*
X136326209Y-78440597D01*
X134992876Y-78726312D02*
X135088114Y-78773931D01*
X135088114Y-78773931D02*
X135278590Y-78773931D01*
X135278590Y-78773931D02*
X135373828Y-78726312D01*
X135373828Y-78726312D02*
X135421447Y-78678692D01*
X135421447Y-78678692D02*
X135469066Y-78583454D01*
X135469066Y-78583454D02*
X135469066Y-78297740D01*
X135469066Y-78297740D02*
X135421447Y-78202502D01*
X135421447Y-78202502D02*
X135373828Y-78154883D01*
X135373828Y-78154883D02*
X135278590Y-78107264D01*
X135278590Y-78107264D02*
X135088114Y-78107264D01*
X135088114Y-78107264D02*
X134992876Y-78154883D01*
X134183352Y-78726312D02*
X134278590Y-78773931D01*
X134278590Y-78773931D02*
X134469066Y-78773931D01*
X134469066Y-78773931D02*
X134564304Y-78726312D01*
X134564304Y-78726312D02*
X134611923Y-78631073D01*
X134611923Y-78631073D02*
X134611923Y-78250121D01*
X134611923Y-78250121D02*
X134564304Y-78154883D01*
X134564304Y-78154883D02*
X134469066Y-78107264D01*
X134469066Y-78107264D02*
X134278590Y-78107264D01*
X134278590Y-78107264D02*
X134183352Y-78154883D01*
X134183352Y-78154883D02*
X134135733Y-78250121D01*
X134135733Y-78250121D02*
X134135733Y-78345359D01*
X134135733Y-78345359D02*
X134611923Y-78440597D01*
X132945256Y-78773931D02*
X132945256Y-77773931D01*
X132945256Y-77773931D02*
X132707161Y-77773931D01*
X132707161Y-77773931D02*
X132564304Y-77821550D01*
X132564304Y-77821550D02*
X132469066Y-77916788D01*
X132469066Y-77916788D02*
X132421447Y-78012026D01*
X132421447Y-78012026D02*
X132373828Y-78202502D01*
X132373828Y-78202502D02*
X132373828Y-78345359D01*
X132373828Y-78345359D02*
X132421447Y-78535835D01*
X132421447Y-78535835D02*
X132469066Y-78631073D01*
X132469066Y-78631073D02*
X132564304Y-78726312D01*
X132564304Y-78726312D02*
X132707161Y-78773931D01*
X132707161Y-78773931D02*
X132945256Y-78773931D01*
X131802399Y-78773931D02*
X131897637Y-78726312D01*
X131897637Y-78726312D02*
X131945256Y-78678692D01*
X131945256Y-78678692D02*
X131992875Y-78583454D01*
X131992875Y-78583454D02*
X131992875Y-78297740D01*
X131992875Y-78297740D02*
X131945256Y-78202502D01*
X131945256Y-78202502D02*
X131897637Y-78154883D01*
X131897637Y-78154883D02*
X131802399Y-78107264D01*
X131802399Y-78107264D02*
X131659542Y-78107264D01*
X131659542Y-78107264D02*
X131564304Y-78154883D01*
X131564304Y-78154883D02*
X131516685Y-78202502D01*
X131516685Y-78202502D02*
X131469066Y-78297740D01*
X131469066Y-78297740D02*
X131469066Y-78583454D01*
X131469066Y-78583454D02*
X131516685Y-78678692D01*
X131516685Y-78678692D02*
X131564304Y-78726312D01*
X131564304Y-78726312D02*
X131659542Y-78773931D01*
X131659542Y-78773931D02*
X131802399Y-78773931D01*
X130611923Y-78773931D02*
X130611923Y-77773931D01*
X130611923Y-78726312D02*
X130707161Y-78773931D01*
X130707161Y-78773931D02*
X130897637Y-78773931D01*
X130897637Y-78773931D02*
X130992875Y-78726312D01*
X130992875Y-78726312D02*
X131040494Y-78678692D01*
X131040494Y-78678692D02*
X131088113Y-78583454D01*
X131088113Y-78583454D02*
X131088113Y-78297740D01*
X131088113Y-78297740D02*
X131040494Y-78202502D01*
X131040494Y-78202502D02*
X130992875Y-78154883D01*
X130992875Y-78154883D02*
X130897637Y-78107264D01*
X130897637Y-78107264D02*
X130707161Y-78107264D01*
X130707161Y-78107264D02*
X130611923Y-78154883D01*
X129707161Y-78107264D02*
X129707161Y-78916788D01*
X129707161Y-78916788D02*
X129754780Y-79012026D01*
X129754780Y-79012026D02*
X129802399Y-79059645D01*
X129802399Y-79059645D02*
X129897637Y-79107264D01*
X129897637Y-79107264D02*
X130040494Y-79107264D01*
X130040494Y-79107264D02*
X130135732Y-79059645D01*
X129707161Y-78726312D02*
X129802399Y-78773931D01*
X129802399Y-78773931D02*
X129992875Y-78773931D01*
X129992875Y-78773931D02*
X130088113Y-78726312D01*
X130088113Y-78726312D02*
X130135732Y-78678692D01*
X130135732Y-78678692D02*
X130183351Y-78583454D01*
X130183351Y-78583454D02*
X130183351Y-78297740D01*
X130183351Y-78297740D02*
X130135732Y-78202502D01*
X130135732Y-78202502D02*
X130088113Y-78154883D01*
X130088113Y-78154883D02*
X129992875Y-78107264D01*
X129992875Y-78107264D02*
X129802399Y-78107264D01*
X129802399Y-78107264D02*
X129707161Y-78154883D01*
X128850018Y-78726312D02*
X128945256Y-78773931D01*
X128945256Y-78773931D02*
X129135732Y-78773931D01*
X129135732Y-78773931D02*
X129230970Y-78726312D01*
X129230970Y-78726312D02*
X129278589Y-78631073D01*
X129278589Y-78631073D02*
X129278589Y-78250121D01*
X129278589Y-78250121D02*
X129230970Y-78154883D01*
X129230970Y-78154883D02*
X129135732Y-78107264D01*
X129135732Y-78107264D02*
X128945256Y-78107264D01*
X128945256Y-78107264D02*
X128850018Y-78154883D01*
X128850018Y-78154883D02*
X128802399Y-78250121D01*
X128802399Y-78250121D02*
X128802399Y-78345359D01*
X128802399Y-78345359D02*
X129278589Y-78440597D01*
X127040494Y-78678692D02*
X127088113Y-78726312D01*
X127088113Y-78726312D02*
X127230970Y-78773931D01*
X127230970Y-78773931D02*
X127326208Y-78773931D01*
X127326208Y-78773931D02*
X127469065Y-78726312D01*
X127469065Y-78726312D02*
X127564303Y-78631073D01*
X127564303Y-78631073D02*
X127611922Y-78535835D01*
X127611922Y-78535835D02*
X127659541Y-78345359D01*
X127659541Y-78345359D02*
X127659541Y-78202502D01*
X127659541Y-78202502D02*
X127611922Y-78012026D01*
X127611922Y-78012026D02*
X127564303Y-77916788D01*
X127564303Y-77916788D02*
X127469065Y-77821550D01*
X127469065Y-77821550D02*
X127326208Y-77773931D01*
X127326208Y-77773931D02*
X127230970Y-77773931D01*
X127230970Y-77773931D02*
X127088113Y-77821550D01*
X127088113Y-77821550D02*
X127040494Y-77869169D01*
X126040494Y-78678692D02*
X126088113Y-78726312D01*
X126088113Y-78726312D02*
X126230970Y-78773931D01*
X126230970Y-78773931D02*
X126326208Y-78773931D01*
X126326208Y-78773931D02*
X126469065Y-78726312D01*
X126469065Y-78726312D02*
X126564303Y-78631073D01*
X126564303Y-78631073D02*
X126611922Y-78535835D01*
X126611922Y-78535835D02*
X126659541Y-78345359D01*
X126659541Y-78345359D02*
X126659541Y-78202502D01*
X126659541Y-78202502D02*
X126611922Y-78012026D01*
X126611922Y-78012026D02*
X126564303Y-77916788D01*
X126564303Y-77916788D02*
X126469065Y-77821550D01*
X126469065Y-77821550D02*
X126326208Y-77773931D01*
X126326208Y-77773931D02*
X126230970Y-77773931D01*
X126230970Y-77773931D02*
X126088113Y-77821550D01*
X126088113Y-77821550D02*
X126040494Y-77869169D01*
X135564304Y-79860065D02*
X135421447Y-79907684D01*
X135421447Y-79907684D02*
X135373828Y-79955303D01*
X135373828Y-79955303D02*
X135326209Y-80050541D01*
X135326209Y-80050541D02*
X135326209Y-80193398D01*
X135326209Y-80193398D02*
X135373828Y-80288636D01*
X135373828Y-80288636D02*
X135421447Y-80336256D01*
X135421447Y-80336256D02*
X135516685Y-80383875D01*
X135516685Y-80383875D02*
X135897637Y-80383875D01*
X135897637Y-80383875D02*
X135897637Y-79383875D01*
X135897637Y-79383875D02*
X135564304Y-79383875D01*
X135564304Y-79383875D02*
X135469066Y-79431494D01*
X135469066Y-79431494D02*
X135421447Y-79479113D01*
X135421447Y-79479113D02*
X135373828Y-79574351D01*
X135373828Y-79574351D02*
X135373828Y-79669589D01*
X135373828Y-79669589D02*
X135421447Y-79764827D01*
X135421447Y-79764827D02*
X135469066Y-79812446D01*
X135469066Y-79812446D02*
X135564304Y-79860065D01*
X135564304Y-79860065D02*
X135897637Y-79860065D01*
X134707161Y-79907684D02*
X134707161Y-80383875D01*
X135040494Y-79383875D02*
X134707161Y-79907684D01*
X134707161Y-79907684D02*
X134373828Y-79383875D01*
X134040494Y-80002922D02*
X133278590Y-80002922D01*
X132850018Y-80336256D02*
X132707161Y-80383875D01*
X132707161Y-80383875D02*
X132469066Y-80383875D01*
X132469066Y-80383875D02*
X132373828Y-80336256D01*
X132373828Y-80336256D02*
X132326209Y-80288636D01*
X132326209Y-80288636D02*
X132278590Y-80193398D01*
X132278590Y-80193398D02*
X132278590Y-80098160D01*
X132278590Y-80098160D02*
X132326209Y-80002922D01*
X132326209Y-80002922D02*
X132373828Y-79955303D01*
X132373828Y-79955303D02*
X132469066Y-79907684D01*
X132469066Y-79907684D02*
X132659542Y-79860065D01*
X132659542Y-79860065D02*
X132754780Y-79812446D01*
X132754780Y-79812446D02*
X132802399Y-79764827D01*
X132802399Y-79764827D02*
X132850018Y-79669589D01*
X132850018Y-79669589D02*
X132850018Y-79574351D01*
X132850018Y-79574351D02*
X132802399Y-79479113D01*
X132802399Y-79479113D02*
X132754780Y-79431494D01*
X132754780Y-79431494D02*
X132659542Y-79383875D01*
X132659542Y-79383875D02*
X132421447Y-79383875D01*
X132421447Y-79383875D02*
X132278590Y-79431494D01*
X131897637Y-80098160D02*
X131421447Y-80098160D01*
X131992875Y-80383875D02*
X131659542Y-79383875D01*
X131659542Y-79383875D02*
X131326209Y-80383875D01*
X129802399Y-79717208D02*
X129802399Y-80383875D01*
X130040494Y-79336256D02*
X130278589Y-80050541D01*
X130278589Y-80050541D02*
X129659542Y-80050541D01*
X129278589Y-80288636D02*
X129230970Y-80336256D01*
X129230970Y-80336256D02*
X129278589Y-80383875D01*
X129278589Y-80383875D02*
X129326208Y-80336256D01*
X129326208Y-80336256D02*
X129278589Y-80288636D01*
X129278589Y-80288636D02*
X129278589Y-80383875D01*
X128611923Y-79383875D02*
X128516685Y-79383875D01*
X128516685Y-79383875D02*
X128421447Y-79431494D01*
X128421447Y-79431494D02*
X128373828Y-79479113D01*
X128373828Y-79479113D02*
X128326209Y-79574351D01*
X128326209Y-79574351D02*
X128278590Y-79764827D01*
X128278590Y-79764827D02*
X128278590Y-80002922D01*
X128278590Y-80002922D02*
X128326209Y-80193398D01*
X128326209Y-80193398D02*
X128373828Y-80288636D01*
X128373828Y-80288636D02*
X128421447Y-80336256D01*
X128421447Y-80336256D02*
X128516685Y-80383875D01*
X128516685Y-80383875D02*
X128611923Y-80383875D01*
X128611923Y-80383875D02*
X128707161Y-80336256D01*
X128707161Y-80336256D02*
X128754780Y-80288636D01*
X128754780Y-80288636D02*
X128802399Y-80193398D01*
X128802399Y-80193398D02*
X128850018Y-80002922D01*
X128850018Y-80002922D02*
X128850018Y-79764827D01*
X128850018Y-79764827D02*
X128802399Y-79574351D01*
X128802399Y-79574351D02*
X128754780Y-79479113D01*
X128754780Y-79479113D02*
X128707161Y-79431494D01*
X128707161Y-79431494D02*
X128611923Y-79383875D01*
X136969066Y-81089057D02*
X136921447Y-81041438D01*
X136921447Y-81041438D02*
X136826209Y-80993819D01*
X136826209Y-80993819D02*
X136588114Y-80993819D01*
X136588114Y-80993819D02*
X136492876Y-81041438D01*
X136492876Y-81041438D02*
X136445257Y-81089057D01*
X136445257Y-81089057D02*
X136397638Y-81184295D01*
X136397638Y-81184295D02*
X136397638Y-81279533D01*
X136397638Y-81279533D02*
X136445257Y-81422390D01*
X136445257Y-81422390D02*
X137016685Y-81993819D01*
X137016685Y-81993819D02*
X136397638Y-81993819D01*
X135778590Y-80993819D02*
X135683352Y-80993819D01*
X135683352Y-80993819D02*
X135588114Y-81041438D01*
X135588114Y-81041438D02*
X135540495Y-81089057D01*
X135540495Y-81089057D02*
X135492876Y-81184295D01*
X135492876Y-81184295D02*
X135445257Y-81374771D01*
X135445257Y-81374771D02*
X135445257Y-81612866D01*
X135445257Y-81612866D02*
X135492876Y-81803342D01*
X135492876Y-81803342D02*
X135540495Y-81898580D01*
X135540495Y-81898580D02*
X135588114Y-81946200D01*
X135588114Y-81946200D02*
X135683352Y-81993819D01*
X135683352Y-81993819D02*
X135778590Y-81993819D01*
X135778590Y-81993819D02*
X135873828Y-81946200D01*
X135873828Y-81946200D02*
X135921447Y-81898580D01*
X135921447Y-81898580D02*
X135969066Y-81803342D01*
X135969066Y-81803342D02*
X136016685Y-81612866D01*
X136016685Y-81612866D02*
X136016685Y-81374771D01*
X136016685Y-81374771D02*
X135969066Y-81184295D01*
X135969066Y-81184295D02*
X135921447Y-81089057D01*
X135921447Y-81089057D02*
X135873828Y-81041438D01*
X135873828Y-81041438D02*
X135778590Y-80993819D01*
X135064304Y-81089057D02*
X135016685Y-81041438D01*
X135016685Y-81041438D02*
X134921447Y-80993819D01*
X134921447Y-80993819D02*
X134683352Y-80993819D01*
X134683352Y-80993819D02*
X134588114Y-81041438D01*
X134588114Y-81041438D02*
X134540495Y-81089057D01*
X134540495Y-81089057D02*
X134492876Y-81184295D01*
X134492876Y-81184295D02*
X134492876Y-81279533D01*
X134492876Y-81279533D02*
X134540495Y-81422390D01*
X134540495Y-81422390D02*
X135111923Y-81993819D01*
X135111923Y-81993819D02*
X134492876Y-81993819D01*
X133635733Y-80993819D02*
X133826209Y-80993819D01*
X133826209Y-80993819D02*
X133921447Y-81041438D01*
X133921447Y-81041438D02*
X133969066Y-81089057D01*
X133969066Y-81089057D02*
X134064304Y-81231914D01*
X134064304Y-81231914D02*
X134111923Y-81422390D01*
X134111923Y-81422390D02*
X134111923Y-81803342D01*
X134111923Y-81803342D02*
X134064304Y-81898580D01*
X134064304Y-81898580D02*
X134016685Y-81946200D01*
X134016685Y-81946200D02*
X133921447Y-81993819D01*
X133921447Y-81993819D02*
X133730971Y-81993819D01*
X133730971Y-81993819D02*
X133635733Y-81946200D01*
X133635733Y-81946200D02*
X133588114Y-81898580D01*
X133588114Y-81898580D02*
X133540495Y-81803342D01*
X133540495Y-81803342D02*
X133540495Y-81565247D01*
X133540495Y-81565247D02*
X133588114Y-81470009D01*
X133588114Y-81470009D02*
X133635733Y-81422390D01*
X133635733Y-81422390D02*
X133730971Y-81374771D01*
X133730971Y-81374771D02*
X133921447Y-81374771D01*
X133921447Y-81374771D02*
X134016685Y-81422390D01*
X134016685Y-81422390D02*
X134064304Y-81470009D01*
X134064304Y-81470009D02*
X134111923Y-81565247D01*
X133111923Y-81612866D02*
X132350019Y-81612866D01*
X131683352Y-80993819D02*
X131588114Y-80993819D01*
X131588114Y-80993819D02*
X131492876Y-81041438D01*
X131492876Y-81041438D02*
X131445257Y-81089057D01*
X131445257Y-81089057D02*
X131397638Y-81184295D01*
X131397638Y-81184295D02*
X131350019Y-81374771D01*
X131350019Y-81374771D02*
X131350019Y-81612866D01*
X131350019Y-81612866D02*
X131397638Y-81803342D01*
X131397638Y-81803342D02*
X131445257Y-81898580D01*
X131445257Y-81898580D02*
X131492876Y-81946200D01*
X131492876Y-81946200D02*
X131588114Y-81993819D01*
X131588114Y-81993819D02*
X131683352Y-81993819D01*
X131683352Y-81993819D02*
X131778590Y-81946200D01*
X131778590Y-81946200D02*
X131826209Y-81898580D01*
X131826209Y-81898580D02*
X131873828Y-81803342D01*
X131873828Y-81803342D02*
X131921447Y-81612866D01*
X131921447Y-81612866D02*
X131921447Y-81374771D01*
X131921447Y-81374771D02*
X131873828Y-81184295D01*
X131873828Y-81184295D02*
X131826209Y-81089057D01*
X131826209Y-81089057D02*
X131778590Y-81041438D01*
X131778590Y-81041438D02*
X131683352Y-80993819D01*
X130492876Y-80993819D02*
X130683352Y-80993819D01*
X130683352Y-80993819D02*
X130778590Y-81041438D01*
X130778590Y-81041438D02*
X130826209Y-81089057D01*
X130826209Y-81089057D02*
X130921447Y-81231914D01*
X130921447Y-81231914D02*
X130969066Y-81422390D01*
X130969066Y-81422390D02*
X130969066Y-81803342D01*
X130969066Y-81803342D02*
X130921447Y-81898580D01*
X130921447Y-81898580D02*
X130873828Y-81946200D01*
X130873828Y-81946200D02*
X130778590Y-81993819D01*
X130778590Y-81993819D02*
X130588114Y-81993819D01*
X130588114Y-81993819D02*
X130492876Y-81946200D01*
X130492876Y-81946200D02*
X130445257Y-81898580D01*
X130445257Y-81898580D02*
X130397638Y-81803342D01*
X130397638Y-81803342D02*
X130397638Y-81565247D01*
X130397638Y-81565247D02*
X130445257Y-81470009D01*
X130445257Y-81470009D02*
X130492876Y-81422390D01*
X130492876Y-81422390D02*
X130588114Y-81374771D01*
X130588114Y-81374771D02*
X130778590Y-81374771D01*
X130778590Y-81374771D02*
X130873828Y-81422390D01*
X130873828Y-81422390D02*
X130921447Y-81470009D01*
X130921447Y-81470009D02*
X130969066Y-81565247D01*
X129969066Y-81612866D02*
X129207162Y-81612866D01*
X128540495Y-80993819D02*
X128445257Y-80993819D01*
X128445257Y-80993819D02*
X128350019Y-81041438D01*
X128350019Y-81041438D02*
X128302400Y-81089057D01*
X128302400Y-81089057D02*
X128254781Y-81184295D01*
X128254781Y-81184295D02*
X128207162Y-81374771D01*
X128207162Y-81374771D02*
X128207162Y-81612866D01*
X128207162Y-81612866D02*
X128254781Y-81803342D01*
X128254781Y-81803342D02*
X128302400Y-81898580D01*
X128302400Y-81898580D02*
X128350019Y-81946200D01*
X128350019Y-81946200D02*
X128445257Y-81993819D01*
X128445257Y-81993819D02*
X128540495Y-81993819D01*
X128540495Y-81993819D02*
X128635733Y-81946200D01*
X128635733Y-81946200D02*
X128683352Y-81898580D01*
X128683352Y-81898580D02*
X128730971Y-81803342D01*
X128730971Y-81803342D02*
X128778590Y-81612866D01*
X128778590Y-81612866D02*
X128778590Y-81374771D01*
X128778590Y-81374771D02*
X128730971Y-81184295D01*
X128730971Y-81184295D02*
X128683352Y-81089057D01*
X128683352Y-81089057D02*
X128635733Y-81041438D01*
X128635733Y-81041438D02*
X128540495Y-80993819D01*
X127350019Y-80993819D02*
X127540495Y-80993819D01*
X127540495Y-80993819D02*
X127635733Y-81041438D01*
X127635733Y-81041438D02*
X127683352Y-81089057D01*
X127683352Y-81089057D02*
X127778590Y-81231914D01*
X127778590Y-81231914D02*
X127826209Y-81422390D01*
X127826209Y-81422390D02*
X127826209Y-81803342D01*
X127826209Y-81803342D02*
X127778590Y-81898580D01*
X127778590Y-81898580D02*
X127730971Y-81946200D01*
X127730971Y-81946200D02*
X127635733Y-81993819D01*
X127635733Y-81993819D02*
X127445257Y-81993819D01*
X127445257Y-81993819D02*
X127350019Y-81946200D01*
X127350019Y-81946200D02*
X127302400Y-81898580D01*
X127302400Y-81898580D02*
X127254781Y-81803342D01*
X127254781Y-81803342D02*
X127254781Y-81565247D01*
X127254781Y-81565247D02*
X127302400Y-81470009D01*
X127302400Y-81470009D02*
X127350019Y-81422390D01*
X127350019Y-81422390D02*
X127445257Y-81374771D01*
X127445257Y-81374771D02*
X127635733Y-81374771D01*
X127635733Y-81374771D02*
X127730971Y-81422390D01*
X127730971Y-81422390D02*
X127778590Y-81470009D01*
X127778590Y-81470009D02*
X127826209Y-81565247D01*
X137421447Y-82603763D02*
X137230971Y-82603763D01*
X137230971Y-82603763D02*
X137135733Y-82651382D01*
X137135733Y-82651382D02*
X137040495Y-82746620D01*
X137040495Y-82746620D02*
X136992876Y-82937096D01*
X136992876Y-82937096D02*
X136992876Y-83270429D01*
X136992876Y-83270429D02*
X137040495Y-83460905D01*
X137040495Y-83460905D02*
X137135733Y-83556144D01*
X137135733Y-83556144D02*
X137230971Y-83603763D01*
X137230971Y-83603763D02*
X137421447Y-83603763D01*
X137421447Y-83603763D02*
X137516685Y-83556144D01*
X137516685Y-83556144D02*
X137611923Y-83460905D01*
X137611923Y-83460905D02*
X137659542Y-83270429D01*
X137659542Y-83270429D02*
X137659542Y-82937096D01*
X137659542Y-82937096D02*
X137611923Y-82746620D01*
X137611923Y-82746620D02*
X137516685Y-82651382D01*
X137516685Y-82651382D02*
X137421447Y-82603763D01*
X136564304Y-83603763D02*
X136564304Y-82937096D01*
X136564304Y-83127572D02*
X136516685Y-83032334D01*
X136516685Y-83032334D02*
X136469066Y-82984715D01*
X136469066Y-82984715D02*
X136373828Y-82937096D01*
X136373828Y-82937096D02*
X136278590Y-82937096D01*
X135945256Y-83603763D02*
X135945256Y-82937096D01*
X135945256Y-82603763D02*
X135992875Y-82651382D01*
X135992875Y-82651382D02*
X135945256Y-82699001D01*
X135945256Y-82699001D02*
X135897637Y-82651382D01*
X135897637Y-82651382D02*
X135945256Y-82603763D01*
X135945256Y-82603763D02*
X135945256Y-82699001D01*
X135040495Y-82937096D02*
X135040495Y-83746620D01*
X135040495Y-83746620D02*
X135088114Y-83841858D01*
X135088114Y-83841858D02*
X135135733Y-83889477D01*
X135135733Y-83889477D02*
X135230971Y-83937096D01*
X135230971Y-83937096D02*
X135373828Y-83937096D01*
X135373828Y-83937096D02*
X135469066Y-83889477D01*
X135040495Y-83556144D02*
X135135733Y-83603763D01*
X135135733Y-83603763D02*
X135326209Y-83603763D01*
X135326209Y-83603763D02*
X135421447Y-83556144D01*
X135421447Y-83556144D02*
X135469066Y-83508524D01*
X135469066Y-83508524D02*
X135516685Y-83413286D01*
X135516685Y-83413286D02*
X135516685Y-83127572D01*
X135516685Y-83127572D02*
X135469066Y-83032334D01*
X135469066Y-83032334D02*
X135421447Y-82984715D01*
X135421447Y-82984715D02*
X135326209Y-82937096D01*
X135326209Y-82937096D02*
X135135733Y-82937096D01*
X135135733Y-82937096D02*
X135040495Y-82984715D01*
X134564304Y-83603763D02*
X134564304Y-82937096D01*
X134564304Y-82603763D02*
X134611923Y-82651382D01*
X134611923Y-82651382D02*
X134564304Y-82699001D01*
X134564304Y-82699001D02*
X134516685Y-82651382D01*
X134516685Y-82651382D02*
X134564304Y-82603763D01*
X134564304Y-82603763D02*
X134564304Y-82699001D01*
X134088114Y-82937096D02*
X134088114Y-83603763D01*
X134088114Y-83032334D02*
X134040495Y-82984715D01*
X134040495Y-82984715D02*
X133945257Y-82937096D01*
X133945257Y-82937096D02*
X133802400Y-82937096D01*
X133802400Y-82937096D02*
X133707162Y-82984715D01*
X133707162Y-82984715D02*
X133659543Y-83079953D01*
X133659543Y-83079953D02*
X133659543Y-83603763D01*
X132754781Y-83603763D02*
X132754781Y-83079953D01*
X132754781Y-83079953D02*
X132802400Y-82984715D01*
X132802400Y-82984715D02*
X132897638Y-82937096D01*
X132897638Y-82937096D02*
X133088114Y-82937096D01*
X133088114Y-82937096D02*
X133183352Y-82984715D01*
X132754781Y-83556144D02*
X132850019Y-83603763D01*
X132850019Y-83603763D02*
X133088114Y-83603763D01*
X133088114Y-83603763D02*
X133183352Y-83556144D01*
X133183352Y-83556144D02*
X133230971Y-83460905D01*
X133230971Y-83460905D02*
X133230971Y-83365667D01*
X133230971Y-83365667D02*
X133183352Y-83270429D01*
X133183352Y-83270429D02*
X133088114Y-83222810D01*
X133088114Y-83222810D02*
X132850019Y-83222810D01*
X132850019Y-83222810D02*
X132754781Y-83175191D01*
X132135733Y-83603763D02*
X132230971Y-83556144D01*
X132230971Y-83556144D02*
X132278590Y-83460905D01*
X132278590Y-83460905D02*
X132278590Y-82603763D01*
X130564304Y-83603763D02*
X130564304Y-82603763D01*
X130564304Y-83556144D02*
X130659542Y-83603763D01*
X130659542Y-83603763D02*
X130850018Y-83603763D01*
X130850018Y-83603763D02*
X130945256Y-83556144D01*
X130945256Y-83556144D02*
X130992875Y-83508524D01*
X130992875Y-83508524D02*
X131040494Y-83413286D01*
X131040494Y-83413286D02*
X131040494Y-83127572D01*
X131040494Y-83127572D02*
X130992875Y-83032334D01*
X130992875Y-83032334D02*
X130945256Y-82984715D01*
X130945256Y-82984715D02*
X130850018Y-82937096D01*
X130850018Y-82937096D02*
X130659542Y-82937096D01*
X130659542Y-82937096D02*
X130564304Y-82984715D01*
X129707161Y-83556144D02*
X129802399Y-83603763D01*
X129802399Y-83603763D02*
X129992875Y-83603763D01*
X129992875Y-83603763D02*
X130088113Y-83556144D01*
X130088113Y-83556144D02*
X130135732Y-83460905D01*
X130135732Y-83460905D02*
X130135732Y-83079953D01*
X130135732Y-83079953D02*
X130088113Y-82984715D01*
X130088113Y-82984715D02*
X129992875Y-82937096D01*
X129992875Y-82937096D02*
X129802399Y-82937096D01*
X129802399Y-82937096D02*
X129707161Y-82984715D01*
X129707161Y-82984715D02*
X129659542Y-83079953D01*
X129659542Y-83079953D02*
X129659542Y-83175191D01*
X129659542Y-83175191D02*
X130135732Y-83270429D01*
X129278589Y-83556144D02*
X129183351Y-83603763D01*
X129183351Y-83603763D02*
X128992875Y-83603763D01*
X128992875Y-83603763D02*
X128897637Y-83556144D01*
X128897637Y-83556144D02*
X128850018Y-83460905D01*
X128850018Y-83460905D02*
X128850018Y-83413286D01*
X128850018Y-83413286D02*
X128897637Y-83318048D01*
X128897637Y-83318048D02*
X128992875Y-83270429D01*
X128992875Y-83270429D02*
X129135732Y-83270429D01*
X129135732Y-83270429D02*
X129230970Y-83222810D01*
X129230970Y-83222810D02*
X129278589Y-83127572D01*
X129278589Y-83127572D02*
X129278589Y-83079953D01*
X129278589Y-83079953D02*
X129230970Y-82984715D01*
X129230970Y-82984715D02*
X129135732Y-82937096D01*
X129135732Y-82937096D02*
X128992875Y-82937096D01*
X128992875Y-82937096D02*
X128897637Y-82984715D01*
X128421446Y-83603763D02*
X128421446Y-82937096D01*
X128421446Y-82603763D02*
X128469065Y-82651382D01*
X128469065Y-82651382D02*
X128421446Y-82699001D01*
X128421446Y-82699001D02*
X128373827Y-82651382D01*
X128373827Y-82651382D02*
X128421446Y-82603763D01*
X128421446Y-82603763D02*
X128421446Y-82699001D01*
X127516685Y-82937096D02*
X127516685Y-83746620D01*
X127516685Y-83746620D02*
X127564304Y-83841858D01*
X127564304Y-83841858D02*
X127611923Y-83889477D01*
X127611923Y-83889477D02*
X127707161Y-83937096D01*
X127707161Y-83937096D02*
X127850018Y-83937096D01*
X127850018Y-83937096D02*
X127945256Y-83889477D01*
X127516685Y-83556144D02*
X127611923Y-83603763D01*
X127611923Y-83603763D02*
X127802399Y-83603763D01*
X127802399Y-83603763D02*
X127897637Y-83556144D01*
X127897637Y-83556144D02*
X127945256Y-83508524D01*
X127945256Y-83508524D02*
X127992875Y-83413286D01*
X127992875Y-83413286D02*
X127992875Y-83127572D01*
X127992875Y-83127572D02*
X127945256Y-83032334D01*
X127945256Y-83032334D02*
X127897637Y-82984715D01*
X127897637Y-82984715D02*
X127802399Y-82937096D01*
X127802399Y-82937096D02*
X127611923Y-82937096D01*
X127611923Y-82937096D02*
X127516685Y-82984715D01*
X127040494Y-82937096D02*
X127040494Y-83603763D01*
X127040494Y-83032334D02*
X126992875Y-82984715D01*
X126992875Y-82984715D02*
X126897637Y-82937096D01*
X126897637Y-82937096D02*
X126754780Y-82937096D01*
X126754780Y-82937096D02*
X126659542Y-82984715D01*
X126659542Y-82984715D02*
X126611923Y-83079953D01*
X126611923Y-83079953D02*
X126611923Y-83603763D01*
X136850019Y-85213707D02*
X136850019Y-84213707D01*
X136850019Y-84594659D02*
X136754781Y-84547040D01*
X136754781Y-84547040D02*
X136564305Y-84547040D01*
X136564305Y-84547040D02*
X136469067Y-84594659D01*
X136469067Y-84594659D02*
X136421448Y-84642278D01*
X136421448Y-84642278D02*
X136373829Y-84737516D01*
X136373829Y-84737516D02*
X136373829Y-85023230D01*
X136373829Y-85023230D02*
X136421448Y-85118468D01*
X136421448Y-85118468D02*
X136469067Y-85166088D01*
X136469067Y-85166088D02*
X136564305Y-85213707D01*
X136564305Y-85213707D02*
X136754781Y-85213707D01*
X136754781Y-85213707D02*
X136850019Y-85166088D01*
X136040495Y-84547040D02*
X135802400Y-85213707D01*
X135564305Y-84547040D02*
X135802400Y-85213707D01*
X135802400Y-85213707D02*
X135897638Y-85451802D01*
X135897638Y-85451802D02*
X135945257Y-85499421D01*
X135945257Y-85499421D02*
X136040495Y-85547040D01*
X133850019Y-85213707D02*
X134183352Y-84737516D01*
X134421447Y-85213707D02*
X134421447Y-84213707D01*
X134421447Y-84213707D02*
X134040495Y-84213707D01*
X134040495Y-84213707D02*
X133945257Y-84261326D01*
X133945257Y-84261326D02*
X133897638Y-84308945D01*
X133897638Y-84308945D02*
X133850019Y-84404183D01*
X133850019Y-84404183D02*
X133850019Y-84547040D01*
X133850019Y-84547040D02*
X133897638Y-84642278D01*
X133897638Y-84642278D02*
X133945257Y-84689897D01*
X133945257Y-84689897D02*
X134040495Y-84737516D01*
X134040495Y-84737516D02*
X134421447Y-84737516D01*
X133040495Y-85166088D02*
X133135733Y-85213707D01*
X133135733Y-85213707D02*
X133326209Y-85213707D01*
X133326209Y-85213707D02*
X133421447Y-85166088D01*
X133421447Y-85166088D02*
X133469066Y-85070849D01*
X133469066Y-85070849D02*
X133469066Y-84689897D01*
X133469066Y-84689897D02*
X133421447Y-84594659D01*
X133421447Y-84594659D02*
X133326209Y-84547040D01*
X133326209Y-84547040D02*
X133135733Y-84547040D01*
X133135733Y-84547040D02*
X133040495Y-84594659D01*
X133040495Y-84594659D02*
X132992876Y-84689897D01*
X132992876Y-84689897D02*
X132992876Y-84785135D01*
X132992876Y-84785135D02*
X133469066Y-84880373D01*
X132564304Y-84547040D02*
X132564304Y-85213707D01*
X132564304Y-84642278D02*
X132516685Y-84594659D01*
X132516685Y-84594659D02*
X132421447Y-84547040D01*
X132421447Y-84547040D02*
X132278590Y-84547040D01*
X132278590Y-84547040D02*
X132183352Y-84594659D01*
X132183352Y-84594659D02*
X132135733Y-84689897D01*
X132135733Y-84689897D02*
X132135733Y-85213707D01*
X131278590Y-85166088D02*
X131373828Y-85213707D01*
X131373828Y-85213707D02*
X131564304Y-85213707D01*
X131564304Y-85213707D02*
X131659542Y-85166088D01*
X131659542Y-85166088D02*
X131707161Y-85070849D01*
X131707161Y-85070849D02*
X131707161Y-84689897D01*
X131707161Y-84689897D02*
X131659542Y-84594659D01*
X131659542Y-84594659D02*
X131564304Y-84547040D01*
X131564304Y-84547040D02*
X131373828Y-84547040D01*
X131373828Y-84547040D02*
X131278590Y-84594659D01*
X131278590Y-84594659D02*
X131230971Y-84689897D01*
X131230971Y-84689897D02*
X131230971Y-84785135D01*
X131230971Y-84785135D02*
X131707161Y-84880373D01*
X130135732Y-84213707D02*
X129897637Y-85213707D01*
X129897637Y-85213707D02*
X129707161Y-84499421D01*
X129707161Y-84499421D02*
X129516685Y-85213707D01*
X129516685Y-85213707D02*
X129278590Y-84213707D01*
X128754780Y-85213707D02*
X128850018Y-85166088D01*
X128850018Y-85166088D02*
X128897637Y-85118468D01*
X128897637Y-85118468D02*
X128945256Y-85023230D01*
X128945256Y-85023230D02*
X128945256Y-84737516D01*
X128945256Y-84737516D02*
X128897637Y-84642278D01*
X128897637Y-84642278D02*
X128850018Y-84594659D01*
X128850018Y-84594659D02*
X128754780Y-84547040D01*
X128754780Y-84547040D02*
X128611923Y-84547040D01*
X128611923Y-84547040D02*
X128516685Y-84594659D01*
X128516685Y-84594659D02*
X128469066Y-84642278D01*
X128469066Y-84642278D02*
X128421447Y-84737516D01*
X128421447Y-84737516D02*
X128421447Y-85023230D01*
X128421447Y-85023230D02*
X128469066Y-85118468D01*
X128469066Y-85118468D02*
X128516685Y-85166088D01*
X128516685Y-85166088D02*
X128611923Y-85213707D01*
X128611923Y-85213707D02*
X128754780Y-85213707D01*
X127850018Y-85213707D02*
X127945256Y-85166088D01*
X127945256Y-85166088D02*
X127992875Y-85070849D01*
X127992875Y-85070849D02*
X127992875Y-84213707D01*
X127611922Y-84547040D02*
X127230970Y-84547040D01*
X127469065Y-85213707D02*
X127469065Y-84356564D01*
X127469065Y-84356564D02*
X127421446Y-84261326D01*
X127421446Y-84261326D02*
X127326208Y-84213707D01*
X127326208Y-84213707D02*
X127230970Y-84213707D01*
%LPC*%
D11*
%TO.C,J1*%
X142905182Y-78147275D03*
X142905182Y-83797275D03*
%TD*%
%LPD*%
M02*
