%TF.GenerationSoftware,KiCad,Pcbnew,10.0.3-2.fc44*%
%TF.CreationDate,2026-06-08T18:29:02-05:00*%
%TF.ProjectId,clockgen-main-board,636c6f63-6b67-4656-9e2d-6d61696e2d62,1.0*%
%TF.SameCoordinates,Original*%
%TF.FileFunction,Legend,Bot*%
%TF.FilePolarity,Positive*%
%FSLAX46Y46*%
G04 Gerber Fmt 4.6, Leading zero omitted, Abs format (unit mm)*
G04 Created by KiCad (PCBNEW 10.0.3-2.fc44) date 2026-06-08 18:29:02*
%MOMM*%
%LPD*%
G01*
G04 APERTURE LIST*
%ADD10C,0.150000*%
G04 APERTURE END LIST*
D10*
X102000000Y-118000000D02*
X102800000Y-118000000D01*
X102000000Y-120000000D02*
X102800000Y-120000000D01*
X102000000Y-122000000D02*
X102600000Y-122000000D01*
X102000000Y-122600000D02*
X102000000Y-111800000D01*
X102050000Y-112200000D02*
X102850000Y-112200000D01*
X102050000Y-114200000D02*
X102850000Y-114200000D01*
X107800000Y-122000000D02*
X108400000Y-122000000D01*
X108400000Y-121600000D02*
X108400000Y-122400000D01*
X109250000Y-93250000D02*
X109750000Y-94000000D01*
X109250000Y-96750000D02*
X109250000Y-93250000D01*
X109250000Y-103250000D02*
X109250000Y-106750000D01*
X109250000Y-106750000D02*
X108750000Y-106000000D01*
X109400000Y-112200000D02*
X163950000Y-112200000D01*
X109400000Y-114200000D02*
X112362080Y-114200000D01*
X109400000Y-118000000D02*
X115400000Y-118000000D01*
X109400000Y-120000000D02*
X112400000Y-120000000D01*
X114250000Y-99500000D02*
X115000000Y-99000000D01*
X117750000Y-99500000D02*
X114250000Y-99500000D01*
X119000000Y-118000000D02*
X126850000Y-118000000D01*
X121750000Y-120000000D02*
X124350000Y-120000000D01*
X121935246Y-114200000D02*
X124054107Y-114200000D01*
X124250000Y-99500000D02*
X127750000Y-99500000D01*
X127750000Y-99500000D02*
X127000000Y-100000000D01*
X130400000Y-118000000D02*
X139400000Y-118000000D01*
X133000000Y-120000000D02*
X133800000Y-120000000D01*
X133320931Y-114200000D02*
X158200000Y-114200000D01*
X133800000Y-119600000D02*
X133800000Y-123600000D01*
X139400000Y-117800000D02*
X139400000Y-120000000D01*
X141800000Y-122400000D02*
X143200000Y-122400000D01*
X142800000Y-122400000D02*
X142800000Y-126200000D01*
X143200000Y-126200000D02*
X136200000Y-126200000D01*
X154500000Y-84000000D02*
X155500000Y-84000000D01*
X155000000Y-101500000D02*
X155000000Y-84000001D01*
X155000000Y-108500000D02*
X155000000Y-111400000D01*
X155000000Y-117800000D02*
X155000000Y-126000000D01*
X155500000Y-126000000D02*
X154500000Y-126000000D01*
X158200000Y-113800000D02*
X158200000Y-115000000D01*
X158200000Y-117800000D02*
X158200000Y-120000000D01*
X159800000Y-88200000D02*
X156800000Y-88200000D01*
X161533452Y-86466548D02*
X159800000Y-88200000D01*
X161533452Y-86466548D02*
X161356676Y-87350431D01*
X164000000Y-111800000D02*
X164000000Y-122400000D01*
X107057142Y-121454819D02*
X107247618Y-121454819D01*
X107247618Y-121454819D02*
X107342856Y-121502438D01*
X107342856Y-121502438D02*
X107390475Y-121550057D01*
X107390475Y-121550057D02*
X107485713Y-121692914D01*
X107485713Y-121692914D02*
X107533332Y-121883390D01*
X107533332Y-121883390D02*
X107533332Y-122264342D01*
X107533332Y-122264342D02*
X107485713Y-122359580D01*
X107485713Y-122359580D02*
X107438094Y-122407200D01*
X107438094Y-122407200D02*
X107342856Y-122454819D01*
X107342856Y-122454819D02*
X107152380Y-122454819D01*
X107152380Y-122454819D02*
X107057142Y-122407200D01*
X107057142Y-122407200D02*
X107009523Y-122359580D01*
X107009523Y-122359580D02*
X106961904Y-122264342D01*
X106961904Y-122264342D02*
X106961904Y-122026247D01*
X106961904Y-122026247D02*
X107009523Y-121931009D01*
X107009523Y-121931009D02*
X107057142Y-121883390D01*
X107057142Y-121883390D02*
X107152380Y-121835771D01*
X107152380Y-121835771D02*
X107342856Y-121835771D01*
X107342856Y-121835771D02*
X107438094Y-121883390D01*
X107438094Y-121883390D02*
X107485713Y-121931009D01*
X107485713Y-121931009D02*
X107533332Y-122026247D01*
X106533332Y-122359580D02*
X106485713Y-122407200D01*
X106485713Y-122407200D02*
X106533332Y-122454819D01*
X106533332Y-122454819D02*
X106580951Y-122407200D01*
X106580951Y-122407200D02*
X106533332Y-122359580D01*
X106533332Y-122359580D02*
X106533332Y-122454819D01*
X106152380Y-121454819D02*
X105533333Y-121454819D01*
X105533333Y-121454819D02*
X105866666Y-121835771D01*
X105866666Y-121835771D02*
X105723809Y-121835771D01*
X105723809Y-121835771D02*
X105628571Y-121883390D01*
X105628571Y-121883390D02*
X105580952Y-121931009D01*
X105580952Y-121931009D02*
X105533333Y-122026247D01*
X105533333Y-122026247D02*
X105533333Y-122264342D01*
X105533333Y-122264342D02*
X105580952Y-122359580D01*
X105580952Y-122359580D02*
X105628571Y-122407200D01*
X105628571Y-122407200D02*
X105723809Y-122454819D01*
X105723809Y-122454819D02*
X106009523Y-122454819D01*
X106009523Y-122454819D02*
X106104761Y-122407200D01*
X106104761Y-122407200D02*
X106152380Y-122359580D01*
X105104761Y-122454819D02*
X105104761Y-121788152D01*
X105104761Y-121883390D02*
X105057142Y-121835771D01*
X105057142Y-121835771D02*
X104961904Y-121788152D01*
X104961904Y-121788152D02*
X104819047Y-121788152D01*
X104819047Y-121788152D02*
X104723809Y-121835771D01*
X104723809Y-121835771D02*
X104676190Y-121931009D01*
X104676190Y-121931009D02*
X104676190Y-122454819D01*
X104676190Y-121931009D02*
X104628571Y-121835771D01*
X104628571Y-121835771D02*
X104533333Y-121788152D01*
X104533333Y-121788152D02*
X104390476Y-121788152D01*
X104390476Y-121788152D02*
X104295237Y-121835771D01*
X104295237Y-121835771D02*
X104247618Y-121931009D01*
X104247618Y-121931009D02*
X104247618Y-122454819D01*
X103771428Y-122454819D02*
X103771428Y-121788152D01*
X103771428Y-121883390D02*
X103723809Y-121835771D01*
X103723809Y-121835771D02*
X103628571Y-121788152D01*
X103628571Y-121788152D02*
X103485714Y-121788152D01*
X103485714Y-121788152D02*
X103390476Y-121835771D01*
X103390476Y-121835771D02*
X103342857Y-121931009D01*
X103342857Y-121931009D02*
X103342857Y-122454819D01*
X103342857Y-121931009D02*
X103295238Y-121835771D01*
X103295238Y-121835771D02*
X103200000Y-121788152D01*
X103200000Y-121788152D02*
X103057143Y-121788152D01*
X103057143Y-121788152D02*
X102961904Y-121835771D01*
X102961904Y-121835771D02*
X102914285Y-121931009D01*
X102914285Y-121931009D02*
X102914285Y-122454819D01*
X108333332Y-111654819D02*
X108523808Y-111654819D01*
X108523808Y-111654819D02*
X108619046Y-111702438D01*
X108619046Y-111702438D02*
X108666665Y-111750057D01*
X108666665Y-111750057D02*
X108761903Y-111892914D01*
X108761903Y-111892914D02*
X108809522Y-112083390D01*
X108809522Y-112083390D02*
X108809522Y-112464342D01*
X108809522Y-112464342D02*
X108761903Y-112559580D01*
X108761903Y-112559580D02*
X108714284Y-112607200D01*
X108714284Y-112607200D02*
X108619046Y-112654819D01*
X108619046Y-112654819D02*
X108428570Y-112654819D01*
X108428570Y-112654819D02*
X108333332Y-112607200D01*
X108333332Y-112607200D02*
X108285713Y-112559580D01*
X108285713Y-112559580D02*
X108238094Y-112464342D01*
X108238094Y-112464342D02*
X108238094Y-112226247D01*
X108238094Y-112226247D02*
X108285713Y-112131009D01*
X108285713Y-112131009D02*
X108333332Y-112083390D01*
X108333332Y-112083390D02*
X108428570Y-112035771D01*
X108428570Y-112035771D02*
X108619046Y-112035771D01*
X108619046Y-112035771D02*
X108714284Y-112083390D01*
X108714284Y-112083390D02*
X108761903Y-112131009D01*
X108761903Y-112131009D02*
X108809522Y-112226247D01*
X107857141Y-111750057D02*
X107809522Y-111702438D01*
X107809522Y-111702438D02*
X107714284Y-111654819D01*
X107714284Y-111654819D02*
X107476189Y-111654819D01*
X107476189Y-111654819D02*
X107380951Y-111702438D01*
X107380951Y-111702438D02*
X107333332Y-111750057D01*
X107333332Y-111750057D02*
X107285713Y-111845295D01*
X107285713Y-111845295D02*
X107285713Y-111940533D01*
X107285713Y-111940533D02*
X107333332Y-112083390D01*
X107333332Y-112083390D02*
X107904760Y-112654819D01*
X107904760Y-112654819D02*
X107285713Y-112654819D01*
X106857141Y-112559580D02*
X106809522Y-112607200D01*
X106809522Y-112607200D02*
X106857141Y-112654819D01*
X106857141Y-112654819D02*
X106904760Y-112607200D01*
X106904760Y-112607200D02*
X106857141Y-112559580D01*
X106857141Y-112559580D02*
X106857141Y-112654819D01*
X106190475Y-111654819D02*
X106095237Y-111654819D01*
X106095237Y-111654819D02*
X105999999Y-111702438D01*
X105999999Y-111702438D02*
X105952380Y-111750057D01*
X105952380Y-111750057D02*
X105904761Y-111845295D01*
X105904761Y-111845295D02*
X105857142Y-112035771D01*
X105857142Y-112035771D02*
X105857142Y-112273866D01*
X105857142Y-112273866D02*
X105904761Y-112464342D01*
X105904761Y-112464342D02*
X105952380Y-112559580D01*
X105952380Y-112559580D02*
X105999999Y-112607200D01*
X105999999Y-112607200D02*
X106095237Y-112654819D01*
X106095237Y-112654819D02*
X106190475Y-112654819D01*
X106190475Y-112654819D02*
X106285713Y-112607200D01*
X106285713Y-112607200D02*
X106333332Y-112559580D01*
X106333332Y-112559580D02*
X106380951Y-112464342D01*
X106380951Y-112464342D02*
X106428570Y-112273866D01*
X106428570Y-112273866D02*
X106428570Y-112035771D01*
X106428570Y-112035771D02*
X106380951Y-111845295D01*
X106380951Y-111845295D02*
X106333332Y-111750057D01*
X106333332Y-111750057D02*
X106285713Y-111702438D01*
X106285713Y-111702438D02*
X106190475Y-111654819D01*
X105428570Y-112654819D02*
X105428570Y-111988152D01*
X105428570Y-112083390D02*
X105380951Y-112035771D01*
X105380951Y-112035771D02*
X105285713Y-111988152D01*
X105285713Y-111988152D02*
X105142856Y-111988152D01*
X105142856Y-111988152D02*
X105047618Y-112035771D01*
X105047618Y-112035771D02*
X104999999Y-112131009D01*
X104999999Y-112131009D02*
X104999999Y-112654819D01*
X104999999Y-112131009D02*
X104952380Y-112035771D01*
X104952380Y-112035771D02*
X104857142Y-111988152D01*
X104857142Y-111988152D02*
X104714285Y-111988152D01*
X104714285Y-111988152D02*
X104619046Y-112035771D01*
X104619046Y-112035771D02*
X104571427Y-112131009D01*
X104571427Y-112131009D02*
X104571427Y-112654819D01*
X104095237Y-112654819D02*
X104095237Y-111988152D01*
X104095237Y-112083390D02*
X104047618Y-112035771D01*
X104047618Y-112035771D02*
X103952380Y-111988152D01*
X103952380Y-111988152D02*
X103809523Y-111988152D01*
X103809523Y-111988152D02*
X103714285Y-112035771D01*
X103714285Y-112035771D02*
X103666666Y-112131009D01*
X103666666Y-112131009D02*
X103666666Y-112654819D01*
X103666666Y-112131009D02*
X103619047Y-112035771D01*
X103619047Y-112035771D02*
X103523809Y-111988152D01*
X103523809Y-111988152D02*
X103380952Y-111988152D01*
X103380952Y-111988152D02*
X103285713Y-112035771D01*
X103285713Y-112035771D02*
X103238094Y-112131009D01*
X103238094Y-112131009D02*
X103238094Y-112654819D01*
X108285713Y-113654819D02*
X108761903Y-113654819D01*
X108761903Y-113654819D02*
X108809522Y-114131009D01*
X108809522Y-114131009D02*
X108761903Y-114083390D01*
X108761903Y-114083390D02*
X108666665Y-114035771D01*
X108666665Y-114035771D02*
X108428570Y-114035771D01*
X108428570Y-114035771D02*
X108333332Y-114083390D01*
X108333332Y-114083390D02*
X108285713Y-114131009D01*
X108285713Y-114131009D02*
X108238094Y-114226247D01*
X108238094Y-114226247D02*
X108238094Y-114464342D01*
X108238094Y-114464342D02*
X108285713Y-114559580D01*
X108285713Y-114559580D02*
X108333332Y-114607200D01*
X108333332Y-114607200D02*
X108428570Y-114654819D01*
X108428570Y-114654819D02*
X108666665Y-114654819D01*
X108666665Y-114654819D02*
X108761903Y-114607200D01*
X108761903Y-114607200D02*
X108809522Y-114559580D01*
X107380951Y-113654819D02*
X107571427Y-113654819D01*
X107571427Y-113654819D02*
X107666665Y-113702438D01*
X107666665Y-113702438D02*
X107714284Y-113750057D01*
X107714284Y-113750057D02*
X107809522Y-113892914D01*
X107809522Y-113892914D02*
X107857141Y-114083390D01*
X107857141Y-114083390D02*
X107857141Y-114464342D01*
X107857141Y-114464342D02*
X107809522Y-114559580D01*
X107809522Y-114559580D02*
X107761903Y-114607200D01*
X107761903Y-114607200D02*
X107666665Y-114654819D01*
X107666665Y-114654819D02*
X107476189Y-114654819D01*
X107476189Y-114654819D02*
X107380951Y-114607200D01*
X107380951Y-114607200D02*
X107333332Y-114559580D01*
X107333332Y-114559580D02*
X107285713Y-114464342D01*
X107285713Y-114464342D02*
X107285713Y-114226247D01*
X107285713Y-114226247D02*
X107333332Y-114131009D01*
X107333332Y-114131009D02*
X107380951Y-114083390D01*
X107380951Y-114083390D02*
X107476189Y-114035771D01*
X107476189Y-114035771D02*
X107666665Y-114035771D01*
X107666665Y-114035771D02*
X107761903Y-114083390D01*
X107761903Y-114083390D02*
X107809522Y-114131009D01*
X107809522Y-114131009D02*
X107857141Y-114226247D01*
X106857141Y-114559580D02*
X106809522Y-114607200D01*
X106809522Y-114607200D02*
X106857141Y-114654819D01*
X106857141Y-114654819D02*
X106904760Y-114607200D01*
X106904760Y-114607200D02*
X106857141Y-114559580D01*
X106857141Y-114559580D02*
X106857141Y-114654819D01*
X106428570Y-113750057D02*
X106380951Y-113702438D01*
X106380951Y-113702438D02*
X106285713Y-113654819D01*
X106285713Y-113654819D02*
X106047618Y-113654819D01*
X106047618Y-113654819D02*
X105952380Y-113702438D01*
X105952380Y-113702438D02*
X105904761Y-113750057D01*
X105904761Y-113750057D02*
X105857142Y-113845295D01*
X105857142Y-113845295D02*
X105857142Y-113940533D01*
X105857142Y-113940533D02*
X105904761Y-114083390D01*
X105904761Y-114083390D02*
X106476189Y-114654819D01*
X106476189Y-114654819D02*
X105857142Y-114654819D01*
X105428570Y-114654819D02*
X105428570Y-113988152D01*
X105428570Y-114083390D02*
X105380951Y-114035771D01*
X105380951Y-114035771D02*
X105285713Y-113988152D01*
X105285713Y-113988152D02*
X105142856Y-113988152D01*
X105142856Y-113988152D02*
X105047618Y-114035771D01*
X105047618Y-114035771D02*
X104999999Y-114131009D01*
X104999999Y-114131009D02*
X104999999Y-114654819D01*
X104999999Y-114131009D02*
X104952380Y-114035771D01*
X104952380Y-114035771D02*
X104857142Y-113988152D01*
X104857142Y-113988152D02*
X104714285Y-113988152D01*
X104714285Y-113988152D02*
X104619046Y-114035771D01*
X104619046Y-114035771D02*
X104571427Y-114131009D01*
X104571427Y-114131009D02*
X104571427Y-114654819D01*
X104095237Y-114654819D02*
X104095237Y-113988152D01*
X104095237Y-114083390D02*
X104047618Y-114035771D01*
X104047618Y-114035771D02*
X103952380Y-113988152D01*
X103952380Y-113988152D02*
X103809523Y-113988152D01*
X103809523Y-113988152D02*
X103714285Y-114035771D01*
X103714285Y-114035771D02*
X103666666Y-114131009D01*
X103666666Y-114131009D02*
X103666666Y-114654819D01*
X103666666Y-114131009D02*
X103619047Y-114035771D01*
X103619047Y-114035771D02*
X103523809Y-113988152D01*
X103523809Y-113988152D02*
X103380952Y-113988152D01*
X103380952Y-113988152D02*
X103285713Y-114035771D01*
X103285713Y-114035771D02*
X103238094Y-114131009D01*
X103238094Y-114131009D02*
X103238094Y-114654819D01*
X108857141Y-117454819D02*
X108238094Y-117454819D01*
X108238094Y-117454819D02*
X108571427Y-117835771D01*
X108571427Y-117835771D02*
X108428570Y-117835771D01*
X108428570Y-117835771D02*
X108333332Y-117883390D01*
X108333332Y-117883390D02*
X108285713Y-117931009D01*
X108285713Y-117931009D02*
X108238094Y-118026247D01*
X108238094Y-118026247D02*
X108238094Y-118264342D01*
X108238094Y-118264342D02*
X108285713Y-118359580D01*
X108285713Y-118359580D02*
X108333332Y-118407200D01*
X108333332Y-118407200D02*
X108428570Y-118454819D01*
X108428570Y-118454819D02*
X108714284Y-118454819D01*
X108714284Y-118454819D02*
X108809522Y-118407200D01*
X108809522Y-118407200D02*
X108857141Y-118359580D01*
X107904760Y-117454819D02*
X107238094Y-117454819D01*
X107238094Y-117454819D02*
X107666665Y-118454819D01*
X106857141Y-118359580D02*
X106809522Y-118407200D01*
X106809522Y-118407200D02*
X106857141Y-118454819D01*
X106857141Y-118454819D02*
X106904760Y-118407200D01*
X106904760Y-118407200D02*
X106857141Y-118359580D01*
X106857141Y-118359580D02*
X106857141Y-118454819D01*
X105952380Y-117788152D02*
X105952380Y-118454819D01*
X106190475Y-117407200D02*
X106428570Y-118121485D01*
X106428570Y-118121485D02*
X105809523Y-118121485D01*
X105428570Y-118454819D02*
X105428570Y-117788152D01*
X105428570Y-117883390D02*
X105380951Y-117835771D01*
X105380951Y-117835771D02*
X105285713Y-117788152D01*
X105285713Y-117788152D02*
X105142856Y-117788152D01*
X105142856Y-117788152D02*
X105047618Y-117835771D01*
X105047618Y-117835771D02*
X104999999Y-117931009D01*
X104999999Y-117931009D02*
X104999999Y-118454819D01*
X104999999Y-117931009D02*
X104952380Y-117835771D01*
X104952380Y-117835771D02*
X104857142Y-117788152D01*
X104857142Y-117788152D02*
X104714285Y-117788152D01*
X104714285Y-117788152D02*
X104619046Y-117835771D01*
X104619046Y-117835771D02*
X104571427Y-117931009D01*
X104571427Y-117931009D02*
X104571427Y-118454819D01*
X104095237Y-118454819D02*
X104095237Y-117788152D01*
X104095237Y-117883390D02*
X104047618Y-117835771D01*
X104047618Y-117835771D02*
X103952380Y-117788152D01*
X103952380Y-117788152D02*
X103809523Y-117788152D01*
X103809523Y-117788152D02*
X103714285Y-117835771D01*
X103714285Y-117835771D02*
X103666666Y-117931009D01*
X103666666Y-117931009D02*
X103666666Y-118454819D01*
X103666666Y-117931009D02*
X103619047Y-117835771D01*
X103619047Y-117835771D02*
X103523809Y-117788152D01*
X103523809Y-117788152D02*
X103380952Y-117788152D01*
X103380952Y-117788152D02*
X103285713Y-117835771D01*
X103285713Y-117835771D02*
X103238094Y-117931009D01*
X103238094Y-117931009D02*
X103238094Y-118454819D01*
X108857141Y-119454819D02*
X108238094Y-119454819D01*
X108238094Y-119454819D02*
X108571427Y-119835771D01*
X108571427Y-119835771D02*
X108428570Y-119835771D01*
X108428570Y-119835771D02*
X108333332Y-119883390D01*
X108333332Y-119883390D02*
X108285713Y-119931009D01*
X108285713Y-119931009D02*
X108238094Y-120026247D01*
X108238094Y-120026247D02*
X108238094Y-120264342D01*
X108238094Y-120264342D02*
X108285713Y-120359580D01*
X108285713Y-120359580D02*
X108333332Y-120407200D01*
X108333332Y-120407200D02*
X108428570Y-120454819D01*
X108428570Y-120454819D02*
X108714284Y-120454819D01*
X108714284Y-120454819D02*
X108809522Y-120407200D01*
X108809522Y-120407200D02*
X108857141Y-120359580D01*
X107285713Y-120454819D02*
X107857141Y-120454819D01*
X107571427Y-120454819D02*
X107571427Y-119454819D01*
X107571427Y-119454819D02*
X107666665Y-119597676D01*
X107666665Y-119597676D02*
X107761903Y-119692914D01*
X107761903Y-119692914D02*
X107857141Y-119740533D01*
X106857141Y-120359580D02*
X106809522Y-120407200D01*
X106809522Y-120407200D02*
X106857141Y-120454819D01*
X106857141Y-120454819D02*
X106904760Y-120407200D01*
X106904760Y-120407200D02*
X106857141Y-120359580D01*
X106857141Y-120359580D02*
X106857141Y-120454819D01*
X106476189Y-119454819D02*
X105809523Y-119454819D01*
X105809523Y-119454819D02*
X106238094Y-120454819D01*
X105428570Y-120454819D02*
X105428570Y-119788152D01*
X105428570Y-119883390D02*
X105380951Y-119835771D01*
X105380951Y-119835771D02*
X105285713Y-119788152D01*
X105285713Y-119788152D02*
X105142856Y-119788152D01*
X105142856Y-119788152D02*
X105047618Y-119835771D01*
X105047618Y-119835771D02*
X104999999Y-119931009D01*
X104999999Y-119931009D02*
X104999999Y-120454819D01*
X104999999Y-119931009D02*
X104952380Y-119835771D01*
X104952380Y-119835771D02*
X104857142Y-119788152D01*
X104857142Y-119788152D02*
X104714285Y-119788152D01*
X104714285Y-119788152D02*
X104619046Y-119835771D01*
X104619046Y-119835771D02*
X104571427Y-119931009D01*
X104571427Y-119931009D02*
X104571427Y-120454819D01*
X104095237Y-120454819D02*
X104095237Y-119788152D01*
X104095237Y-119883390D02*
X104047618Y-119835771D01*
X104047618Y-119835771D02*
X103952380Y-119788152D01*
X103952380Y-119788152D02*
X103809523Y-119788152D01*
X103809523Y-119788152D02*
X103714285Y-119835771D01*
X103714285Y-119835771D02*
X103666666Y-119931009D01*
X103666666Y-119931009D02*
X103666666Y-120454819D01*
X103666666Y-119931009D02*
X103619047Y-119835771D01*
X103619047Y-119835771D02*
X103523809Y-119788152D01*
X103523809Y-119788152D02*
X103380952Y-119788152D01*
X103380952Y-119788152D02*
X103285713Y-119835771D01*
X103285713Y-119835771D02*
X103238094Y-119931009D01*
X103238094Y-119931009D02*
X103238094Y-120454819D01*
X123142856Y-98954819D02*
X122476190Y-98954819D01*
X122476190Y-98954819D02*
X122904761Y-99954819D01*
X121904761Y-98954819D02*
X121809523Y-98954819D01*
X121809523Y-98954819D02*
X121714285Y-99002438D01*
X121714285Y-99002438D02*
X121666666Y-99050057D01*
X121666666Y-99050057D02*
X121619047Y-99145295D01*
X121619047Y-99145295D02*
X121571428Y-99335771D01*
X121571428Y-99335771D02*
X121571428Y-99573866D01*
X121571428Y-99573866D02*
X121619047Y-99764342D01*
X121619047Y-99764342D02*
X121666666Y-99859580D01*
X121666666Y-99859580D02*
X121714285Y-99907200D01*
X121714285Y-99907200D02*
X121809523Y-99954819D01*
X121809523Y-99954819D02*
X121904761Y-99954819D01*
X121904761Y-99954819D02*
X121999999Y-99907200D01*
X121999999Y-99907200D02*
X122047618Y-99859580D01*
X122047618Y-99859580D02*
X122095237Y-99764342D01*
X122095237Y-99764342D02*
X122142856Y-99573866D01*
X122142856Y-99573866D02*
X122142856Y-99335771D01*
X122142856Y-99335771D02*
X122095237Y-99145295D01*
X122095237Y-99145295D02*
X122047618Y-99050057D01*
X122047618Y-99050057D02*
X121999999Y-99002438D01*
X121999999Y-99002438D02*
X121904761Y-98954819D01*
X121142856Y-99954819D02*
X121142856Y-99288152D01*
X121142856Y-99383390D02*
X121095237Y-99335771D01*
X121095237Y-99335771D02*
X120999999Y-99288152D01*
X120999999Y-99288152D02*
X120857142Y-99288152D01*
X120857142Y-99288152D02*
X120761904Y-99335771D01*
X120761904Y-99335771D02*
X120714285Y-99431009D01*
X120714285Y-99431009D02*
X120714285Y-99954819D01*
X120714285Y-99431009D02*
X120666666Y-99335771D01*
X120666666Y-99335771D02*
X120571428Y-99288152D01*
X120571428Y-99288152D02*
X120428571Y-99288152D01*
X120428571Y-99288152D02*
X120333332Y-99335771D01*
X120333332Y-99335771D02*
X120285713Y-99431009D01*
X120285713Y-99431009D02*
X120285713Y-99954819D01*
X119809523Y-99954819D02*
X119809523Y-99288152D01*
X119809523Y-99383390D02*
X119761904Y-99335771D01*
X119761904Y-99335771D02*
X119666666Y-99288152D01*
X119666666Y-99288152D02*
X119523809Y-99288152D01*
X119523809Y-99288152D02*
X119428571Y-99335771D01*
X119428571Y-99335771D02*
X119380952Y-99431009D01*
X119380952Y-99431009D02*
X119380952Y-99954819D01*
X119380952Y-99431009D02*
X119333333Y-99335771D01*
X119333333Y-99335771D02*
X119238095Y-99288152D01*
X119238095Y-99288152D02*
X119095238Y-99288152D01*
X119095238Y-99288152D02*
X118999999Y-99335771D01*
X118999999Y-99335771D02*
X118952380Y-99431009D01*
X118952380Y-99431009D02*
X118952380Y-99954819D01*
X147980951Y-123654819D02*
X147361904Y-123654819D01*
X147361904Y-123654819D02*
X147695237Y-124035771D01*
X147695237Y-124035771D02*
X147552380Y-124035771D01*
X147552380Y-124035771D02*
X147457142Y-124083390D01*
X147457142Y-124083390D02*
X147409523Y-124131009D01*
X147409523Y-124131009D02*
X147361904Y-124226247D01*
X147361904Y-124226247D02*
X147361904Y-124464342D01*
X147361904Y-124464342D02*
X147409523Y-124559580D01*
X147409523Y-124559580D02*
X147457142Y-124607200D01*
X147457142Y-124607200D02*
X147552380Y-124654819D01*
X147552380Y-124654819D02*
X147838094Y-124654819D01*
X147838094Y-124654819D02*
X147933332Y-124607200D01*
X147933332Y-124607200D02*
X147980951Y-124559580D01*
X146933332Y-124559580D02*
X146885713Y-124607200D01*
X146885713Y-124607200D02*
X146933332Y-124654819D01*
X146933332Y-124654819D02*
X146980951Y-124607200D01*
X146980951Y-124607200D02*
X146933332Y-124559580D01*
X146933332Y-124559580D02*
X146933332Y-124654819D01*
X146314285Y-124083390D02*
X146409523Y-124035771D01*
X146409523Y-124035771D02*
X146457142Y-123988152D01*
X146457142Y-123988152D02*
X146504761Y-123892914D01*
X146504761Y-123892914D02*
X146504761Y-123845295D01*
X146504761Y-123845295D02*
X146457142Y-123750057D01*
X146457142Y-123750057D02*
X146409523Y-123702438D01*
X146409523Y-123702438D02*
X146314285Y-123654819D01*
X146314285Y-123654819D02*
X146123809Y-123654819D01*
X146123809Y-123654819D02*
X146028571Y-123702438D01*
X146028571Y-123702438D02*
X145980952Y-123750057D01*
X145980952Y-123750057D02*
X145933333Y-123845295D01*
X145933333Y-123845295D02*
X145933333Y-123892914D01*
X145933333Y-123892914D02*
X145980952Y-123988152D01*
X145980952Y-123988152D02*
X146028571Y-124035771D01*
X146028571Y-124035771D02*
X146123809Y-124083390D01*
X146123809Y-124083390D02*
X146314285Y-124083390D01*
X146314285Y-124083390D02*
X146409523Y-124131009D01*
X146409523Y-124131009D02*
X146457142Y-124178628D01*
X146457142Y-124178628D02*
X146504761Y-124273866D01*
X146504761Y-124273866D02*
X146504761Y-124464342D01*
X146504761Y-124464342D02*
X146457142Y-124559580D01*
X146457142Y-124559580D02*
X146409523Y-124607200D01*
X146409523Y-124607200D02*
X146314285Y-124654819D01*
X146314285Y-124654819D02*
X146123809Y-124654819D01*
X146123809Y-124654819D02*
X146028571Y-124607200D01*
X146028571Y-124607200D02*
X145980952Y-124559580D01*
X145980952Y-124559580D02*
X145933333Y-124464342D01*
X145933333Y-124464342D02*
X145933333Y-124273866D01*
X145933333Y-124273866D02*
X145980952Y-124178628D01*
X145980952Y-124178628D02*
X146028571Y-124131009D01*
X146028571Y-124131009D02*
X146123809Y-124083390D01*
X145504761Y-124654819D02*
X145504761Y-123988152D01*
X145504761Y-124083390D02*
X145457142Y-124035771D01*
X145457142Y-124035771D02*
X145361904Y-123988152D01*
X145361904Y-123988152D02*
X145219047Y-123988152D01*
X145219047Y-123988152D02*
X145123809Y-124035771D01*
X145123809Y-124035771D02*
X145076190Y-124131009D01*
X145076190Y-124131009D02*
X145076190Y-124654819D01*
X145076190Y-124131009D02*
X145028571Y-124035771D01*
X145028571Y-124035771D02*
X144933333Y-123988152D01*
X144933333Y-123988152D02*
X144790476Y-123988152D01*
X144790476Y-123988152D02*
X144695237Y-124035771D01*
X144695237Y-124035771D02*
X144647618Y-124131009D01*
X144647618Y-124131009D02*
X144647618Y-124654819D01*
X144171428Y-124654819D02*
X144171428Y-123988152D01*
X144171428Y-124083390D02*
X144123809Y-124035771D01*
X144123809Y-124035771D02*
X144028571Y-123988152D01*
X144028571Y-123988152D02*
X143885714Y-123988152D01*
X143885714Y-123988152D02*
X143790476Y-124035771D01*
X143790476Y-124035771D02*
X143742857Y-124131009D01*
X143742857Y-124131009D02*
X143742857Y-124654819D01*
X143742857Y-124131009D02*
X143695238Y-124035771D01*
X143695238Y-124035771D02*
X143600000Y-123988152D01*
X143600000Y-123988152D02*
X143457143Y-123988152D01*
X143457143Y-123988152D02*
X143361904Y-124035771D01*
X143361904Y-124035771D02*
X143314285Y-124131009D01*
X143314285Y-124131009D02*
X143314285Y-124654819D01*
X108704819Y-98428571D02*
X108704819Y-97952381D01*
X108704819Y-97952381D02*
X109181009Y-97904762D01*
X109181009Y-97904762D02*
X109133390Y-97952381D01*
X109133390Y-97952381D02*
X109085771Y-98047619D01*
X109085771Y-98047619D02*
X109085771Y-98285714D01*
X109085771Y-98285714D02*
X109133390Y-98380952D01*
X109133390Y-98380952D02*
X109181009Y-98428571D01*
X109181009Y-98428571D02*
X109276247Y-98476190D01*
X109276247Y-98476190D02*
X109514342Y-98476190D01*
X109514342Y-98476190D02*
X109609580Y-98428571D01*
X109609580Y-98428571D02*
X109657200Y-98380952D01*
X109657200Y-98380952D02*
X109704819Y-98285714D01*
X109704819Y-98285714D02*
X109704819Y-98047619D01*
X109704819Y-98047619D02*
X109657200Y-97952381D01*
X109657200Y-97952381D02*
X109609580Y-97904762D01*
X108704819Y-99095238D02*
X108704819Y-99190476D01*
X108704819Y-99190476D02*
X108752438Y-99285714D01*
X108752438Y-99285714D02*
X108800057Y-99333333D01*
X108800057Y-99333333D02*
X108895295Y-99380952D01*
X108895295Y-99380952D02*
X109085771Y-99428571D01*
X109085771Y-99428571D02*
X109323866Y-99428571D01*
X109323866Y-99428571D02*
X109514342Y-99380952D01*
X109514342Y-99380952D02*
X109609580Y-99333333D01*
X109609580Y-99333333D02*
X109657200Y-99285714D01*
X109657200Y-99285714D02*
X109704819Y-99190476D01*
X109704819Y-99190476D02*
X109704819Y-99095238D01*
X109704819Y-99095238D02*
X109657200Y-99000000D01*
X109657200Y-99000000D02*
X109609580Y-98952381D01*
X109609580Y-98952381D02*
X109514342Y-98904762D01*
X109514342Y-98904762D02*
X109323866Y-98857143D01*
X109323866Y-98857143D02*
X109085771Y-98857143D01*
X109085771Y-98857143D02*
X108895295Y-98904762D01*
X108895295Y-98904762D02*
X108800057Y-98952381D01*
X108800057Y-98952381D02*
X108752438Y-99000000D01*
X108752438Y-99000000D02*
X108704819Y-99095238D01*
X109704819Y-99857143D02*
X109038152Y-99857143D01*
X109133390Y-99857143D02*
X109085771Y-99904762D01*
X109085771Y-99904762D02*
X109038152Y-100000000D01*
X109038152Y-100000000D02*
X109038152Y-100142857D01*
X109038152Y-100142857D02*
X109085771Y-100238095D01*
X109085771Y-100238095D02*
X109181009Y-100285714D01*
X109181009Y-100285714D02*
X109704819Y-100285714D01*
X109181009Y-100285714D02*
X109085771Y-100333333D01*
X109085771Y-100333333D02*
X109038152Y-100428571D01*
X109038152Y-100428571D02*
X109038152Y-100571428D01*
X109038152Y-100571428D02*
X109085771Y-100666667D01*
X109085771Y-100666667D02*
X109181009Y-100714286D01*
X109181009Y-100714286D02*
X109704819Y-100714286D01*
X109704819Y-101190476D02*
X109038152Y-101190476D01*
X109133390Y-101190476D02*
X109085771Y-101238095D01*
X109085771Y-101238095D02*
X109038152Y-101333333D01*
X109038152Y-101333333D02*
X109038152Y-101476190D01*
X109038152Y-101476190D02*
X109085771Y-101571428D01*
X109085771Y-101571428D02*
X109181009Y-101619047D01*
X109181009Y-101619047D02*
X109704819Y-101619047D01*
X109181009Y-101619047D02*
X109085771Y-101666666D01*
X109085771Y-101666666D02*
X109038152Y-101761904D01*
X109038152Y-101761904D02*
X109038152Y-101904761D01*
X109038152Y-101904761D02*
X109085771Y-102000000D01*
X109085771Y-102000000D02*
X109181009Y-102047619D01*
X109181009Y-102047619D02*
X109704819Y-102047619D01*
X154788152Y-103380952D02*
X155454819Y-103380952D01*
X154407200Y-103142857D02*
X155121485Y-102904762D01*
X155121485Y-102904762D02*
X155121485Y-103523809D01*
X154550057Y-103857143D02*
X154502438Y-103904762D01*
X154502438Y-103904762D02*
X154454819Y-104000000D01*
X154454819Y-104000000D02*
X154454819Y-104238095D01*
X154454819Y-104238095D02*
X154502438Y-104333333D01*
X154502438Y-104333333D02*
X154550057Y-104380952D01*
X154550057Y-104380952D02*
X154645295Y-104428571D01*
X154645295Y-104428571D02*
X154740533Y-104428571D01*
X154740533Y-104428571D02*
X154883390Y-104380952D01*
X154883390Y-104380952D02*
X155454819Y-103809524D01*
X155454819Y-103809524D02*
X155454819Y-104428571D01*
X155454819Y-104857143D02*
X154788152Y-104857143D01*
X154883390Y-104857143D02*
X154835771Y-104904762D01*
X154835771Y-104904762D02*
X154788152Y-105000000D01*
X154788152Y-105000000D02*
X154788152Y-105142857D01*
X154788152Y-105142857D02*
X154835771Y-105238095D01*
X154835771Y-105238095D02*
X154931009Y-105285714D01*
X154931009Y-105285714D02*
X155454819Y-105285714D01*
X154931009Y-105285714D02*
X154835771Y-105333333D01*
X154835771Y-105333333D02*
X154788152Y-105428571D01*
X154788152Y-105428571D02*
X154788152Y-105571428D01*
X154788152Y-105571428D02*
X154835771Y-105666667D01*
X154835771Y-105666667D02*
X154931009Y-105714286D01*
X154931009Y-105714286D02*
X155454819Y-105714286D01*
X155454819Y-106190476D02*
X154788152Y-106190476D01*
X154883390Y-106190476D02*
X154835771Y-106238095D01*
X154835771Y-106238095D02*
X154788152Y-106333333D01*
X154788152Y-106333333D02*
X154788152Y-106476190D01*
X154788152Y-106476190D02*
X154835771Y-106571428D01*
X154835771Y-106571428D02*
X154931009Y-106619047D01*
X154931009Y-106619047D02*
X155454819Y-106619047D01*
X154931009Y-106619047D02*
X154835771Y-106666666D01*
X154835771Y-106666666D02*
X154788152Y-106761904D01*
X154788152Y-106761904D02*
X154788152Y-106904761D01*
X154788152Y-106904761D02*
X154835771Y-107000000D01*
X154835771Y-107000000D02*
X154931009Y-107047619D01*
X154931009Y-107047619D02*
X155454819Y-107047619D01*
X157390476Y-88530180D02*
X157390476Y-89530180D01*
X157390476Y-89530180D02*
X157723809Y-88815895D01*
X157723809Y-88815895D02*
X158057142Y-89530180D01*
X158057142Y-89530180D02*
X158057142Y-88530180D01*
X158438095Y-89530180D02*
X159057142Y-89530180D01*
X159057142Y-89530180D02*
X158723809Y-89149228D01*
X158723809Y-89149228D02*
X158866666Y-89149228D01*
X158866666Y-89149228D02*
X158961904Y-89101609D01*
X158961904Y-89101609D02*
X159009523Y-89053990D01*
X159009523Y-89053990D02*
X159057142Y-88958752D01*
X159057142Y-88958752D02*
X159057142Y-88720657D01*
X159057142Y-88720657D02*
X159009523Y-88625419D01*
X159009523Y-88625419D02*
X158961904Y-88577800D01*
X158961904Y-88577800D02*
X158866666Y-88530180D01*
X158866666Y-88530180D02*
X158580952Y-88530180D01*
X158580952Y-88530180D02*
X158485714Y-88577800D01*
X158485714Y-88577800D02*
X158438095Y-88625419D01*
X104293332Y-86040466D02*
X104764736Y-86983275D01*
X104764736Y-86983275D02*
X103821927Y-86511871D01*
X104293331Y-87387336D02*
X104225988Y-87522023D01*
X104225988Y-87522023D02*
X104057629Y-87690382D01*
X104057629Y-87690382D02*
X103956614Y-87724054D01*
X103956614Y-87724054D02*
X103889270Y-87724054D01*
X103889270Y-87724054D02*
X103788255Y-87690382D01*
X103788255Y-87690382D02*
X103720912Y-87623039D01*
X103720912Y-87623039D02*
X103687240Y-87522023D01*
X103687240Y-87522023D02*
X103687240Y-87454680D01*
X103687240Y-87454680D02*
X103720912Y-87353665D01*
X103720912Y-87353665D02*
X103821927Y-87185306D01*
X103821927Y-87185306D02*
X103855599Y-87084291D01*
X103855599Y-87084291D02*
X103855599Y-87016947D01*
X103855599Y-87016947D02*
X103821927Y-86915932D01*
X103821927Y-86915932D02*
X103754583Y-86848588D01*
X103754583Y-86848588D02*
X103653568Y-86814917D01*
X103653568Y-86814917D02*
X103586225Y-86814917D01*
X103586225Y-86814917D02*
X103485209Y-86848588D01*
X103485209Y-86848588D02*
X103316851Y-87016947D01*
X103316851Y-87016947D02*
X103249507Y-87151634D01*
X103148492Y-87926084D02*
X103485209Y-88262802D01*
X103013805Y-87319993D02*
X103148492Y-87926084D01*
X103148492Y-87926084D02*
X102542400Y-87791397D01*
X103013805Y-88666863D02*
X102946461Y-88801550D01*
X102946461Y-88801550D02*
X102778102Y-88969909D01*
X102778102Y-88969909D02*
X102677087Y-89003581D01*
X102677087Y-89003581D02*
X102609744Y-89003581D01*
X102609744Y-89003581D02*
X102508728Y-88969909D01*
X102508728Y-88969909D02*
X102441385Y-88902565D01*
X102441385Y-88902565D02*
X102407713Y-88801550D01*
X102407713Y-88801550D02*
X102407713Y-88734207D01*
X102407713Y-88734207D02*
X102441385Y-88633191D01*
X102441385Y-88633191D02*
X102542400Y-88464833D01*
X102542400Y-88464833D02*
X102576072Y-88363817D01*
X102576072Y-88363817D02*
X102576072Y-88296474D01*
X102576072Y-88296474D02*
X102542400Y-88195458D01*
X102542400Y-88195458D02*
X102475057Y-88128115D01*
X102475057Y-88128115D02*
X102374041Y-88094443D01*
X102374041Y-88094443D02*
X102306698Y-88094443D01*
X102306698Y-88094443D02*
X102205683Y-88128115D01*
X102205683Y-88128115D02*
X102037324Y-88296474D01*
X102037324Y-88296474D02*
X101969980Y-88431161D01*
X138969964Y-111830376D02*
X139003636Y-111729361D01*
X139003636Y-111729361D02*
X139104651Y-111628346D01*
X139104651Y-111628346D02*
X139239338Y-111561002D01*
X139239338Y-111561002D02*
X139374025Y-111561002D01*
X139374025Y-111561002D02*
X139475040Y-111594674D01*
X139475040Y-111594674D02*
X139643399Y-111695689D01*
X139643399Y-111695689D02*
X139744414Y-111796705D01*
X139744414Y-111796705D02*
X139845429Y-111965063D01*
X139845429Y-111965063D02*
X139879101Y-112066079D01*
X139879101Y-112066079D02*
X139879101Y-112200766D01*
X139879101Y-112200766D02*
X139811758Y-112335453D01*
X139811758Y-112335453D02*
X139744414Y-112402796D01*
X139744414Y-112402796D02*
X139609727Y-112470140D01*
X139609727Y-112470140D02*
X139542384Y-112470140D01*
X139542384Y-112470140D02*
X139306681Y-112234437D01*
X139306681Y-112234437D02*
X139441368Y-112099750D01*
X139306681Y-112840529D02*
X138599575Y-112133422D01*
X138599575Y-112133422D02*
X138330201Y-112402796D01*
X138330201Y-112402796D02*
X138296529Y-112503811D01*
X138296529Y-112503811D02*
X138296529Y-112571155D01*
X138296529Y-112571155D02*
X138330201Y-112672170D01*
X138330201Y-112672170D02*
X138431216Y-112773185D01*
X138431216Y-112773185D02*
X138532231Y-112806857D01*
X138532231Y-112806857D02*
X138599575Y-112806857D01*
X138599575Y-112806857D02*
X138700590Y-112773185D01*
X138700590Y-112773185D02*
X138969964Y-112503811D01*
X138229185Y-113918025D02*
X138633246Y-113513964D01*
X138431216Y-113715994D02*
X137724109Y-113008888D01*
X137724109Y-113008888D02*
X137892468Y-113042559D01*
X137892468Y-113042559D02*
X138027155Y-113042559D01*
X138027155Y-113042559D02*
X138128170Y-113008888D01*
X136882315Y-113850681D02*
X137219033Y-113513964D01*
X137219033Y-113513964D02*
X137589422Y-113817010D01*
X137589422Y-113817010D02*
X137522079Y-113817010D01*
X137522079Y-113817010D02*
X137421063Y-113850681D01*
X137421063Y-113850681D02*
X137252705Y-114019040D01*
X137252705Y-114019040D02*
X137219033Y-114120055D01*
X137219033Y-114120055D02*
X137219033Y-114187399D01*
X137219033Y-114187399D02*
X137252705Y-114288414D01*
X137252705Y-114288414D02*
X137421063Y-114456773D01*
X137421063Y-114456773D02*
X137522079Y-114490445D01*
X137522079Y-114490445D02*
X137589422Y-114490445D01*
X137589422Y-114490445D02*
X137690437Y-114456773D01*
X137690437Y-114456773D02*
X137858796Y-114288414D01*
X137858796Y-114288414D02*
X137892468Y-114187399D01*
X137892468Y-114187399D02*
X137892468Y-114120055D01*
X141509964Y-111876376D02*
X141543636Y-111775361D01*
X141543636Y-111775361D02*
X141644651Y-111674346D01*
X141644651Y-111674346D02*
X141779338Y-111607002D01*
X141779338Y-111607002D02*
X141914025Y-111607002D01*
X141914025Y-111607002D02*
X142015040Y-111640674D01*
X142015040Y-111640674D02*
X142183399Y-111741689D01*
X142183399Y-111741689D02*
X142284414Y-111842705D01*
X142284414Y-111842705D02*
X142385429Y-112011063D01*
X142385429Y-112011063D02*
X142419101Y-112112079D01*
X142419101Y-112112079D02*
X142419101Y-112246766D01*
X142419101Y-112246766D02*
X142351758Y-112381453D01*
X142351758Y-112381453D02*
X142284414Y-112448796D01*
X142284414Y-112448796D02*
X142149727Y-112516140D01*
X142149727Y-112516140D02*
X142082384Y-112516140D01*
X142082384Y-112516140D02*
X141846681Y-112280437D01*
X141846681Y-112280437D02*
X141981368Y-112145750D01*
X141846681Y-112886529D02*
X141139575Y-112179422D01*
X141139575Y-112179422D02*
X140870201Y-112448796D01*
X140870201Y-112448796D02*
X140836529Y-112549811D01*
X140836529Y-112549811D02*
X140836529Y-112617155D01*
X140836529Y-112617155D02*
X140870201Y-112718170D01*
X140870201Y-112718170D02*
X140971216Y-112819185D01*
X140971216Y-112819185D02*
X141072231Y-112852857D01*
X141072231Y-112852857D02*
X141139575Y-112852857D01*
X141139575Y-112852857D02*
X141240590Y-112819185D01*
X141240590Y-112819185D02*
X141509964Y-112549811D01*
X140769185Y-113964025D02*
X141173246Y-113559964D01*
X140971216Y-113761994D02*
X140264109Y-113054888D01*
X140264109Y-113054888D02*
X140432468Y-113088559D01*
X140432468Y-113088559D02*
X140567155Y-113088559D01*
X140567155Y-113088559D02*
X140668170Y-113054888D01*
X139691689Y-114098712D02*
X140163094Y-114570116D01*
X139590674Y-113660979D02*
X140264109Y-113997697D01*
X140264109Y-113997697D02*
X139826376Y-114435429D01*
X146589964Y-111830376D02*
X146623636Y-111729361D01*
X146623636Y-111729361D02*
X146724651Y-111628346D01*
X146724651Y-111628346D02*
X146859338Y-111561002D01*
X146859338Y-111561002D02*
X146994025Y-111561002D01*
X146994025Y-111561002D02*
X147095040Y-111594674D01*
X147095040Y-111594674D02*
X147263399Y-111695689D01*
X147263399Y-111695689D02*
X147364414Y-111796705D01*
X147364414Y-111796705D02*
X147465429Y-111965063D01*
X147465429Y-111965063D02*
X147499101Y-112066079D01*
X147499101Y-112066079D02*
X147499101Y-112200766D01*
X147499101Y-112200766D02*
X147431758Y-112335453D01*
X147431758Y-112335453D02*
X147364414Y-112402796D01*
X147364414Y-112402796D02*
X147229727Y-112470140D01*
X147229727Y-112470140D02*
X147162384Y-112470140D01*
X147162384Y-112470140D02*
X146926681Y-112234437D01*
X146926681Y-112234437D02*
X147061368Y-112099750D01*
X146926681Y-112840529D02*
X146219575Y-112133422D01*
X146219575Y-112133422D02*
X145950201Y-112402796D01*
X145950201Y-112402796D02*
X145916529Y-112503811D01*
X145916529Y-112503811D02*
X145916529Y-112571155D01*
X145916529Y-112571155D02*
X145950201Y-112672170D01*
X145950201Y-112672170D02*
X146051216Y-112773185D01*
X146051216Y-112773185D02*
X146152231Y-112806857D01*
X146152231Y-112806857D02*
X146219575Y-112806857D01*
X146219575Y-112806857D02*
X146320590Y-112773185D01*
X146320590Y-112773185D02*
X146589964Y-112503811D01*
X145849185Y-113918025D02*
X146253246Y-113513964D01*
X146051216Y-113715994D02*
X145344109Y-113008888D01*
X145344109Y-113008888D02*
X145512468Y-113042559D01*
X145512468Y-113042559D02*
X145647155Y-113042559D01*
X145647155Y-113042559D02*
X145748170Y-113008888D01*
X144906376Y-113446620D02*
X144468644Y-113884353D01*
X144468644Y-113884353D02*
X144973720Y-113918025D01*
X144973720Y-113918025D02*
X144872705Y-114019040D01*
X144872705Y-114019040D02*
X144839033Y-114120055D01*
X144839033Y-114120055D02*
X144839033Y-114187399D01*
X144839033Y-114187399D02*
X144872705Y-114288414D01*
X144872705Y-114288414D02*
X145041063Y-114456773D01*
X145041063Y-114456773D02*
X145142079Y-114490445D01*
X145142079Y-114490445D02*
X145209422Y-114490445D01*
X145209422Y-114490445D02*
X145310437Y-114456773D01*
X145310437Y-114456773D02*
X145512468Y-114254742D01*
X145512468Y-114254742D02*
X145546140Y-114153727D01*
X145546140Y-114153727D02*
X145546140Y-114086384D01*
X149129964Y-111976376D02*
X149163636Y-111875361D01*
X149163636Y-111875361D02*
X149264651Y-111774346D01*
X149264651Y-111774346D02*
X149399338Y-111707002D01*
X149399338Y-111707002D02*
X149534025Y-111707002D01*
X149534025Y-111707002D02*
X149635040Y-111740674D01*
X149635040Y-111740674D02*
X149803399Y-111841689D01*
X149803399Y-111841689D02*
X149904414Y-111942705D01*
X149904414Y-111942705D02*
X150005429Y-112111063D01*
X150005429Y-112111063D02*
X150039101Y-112212079D01*
X150039101Y-112212079D02*
X150039101Y-112346766D01*
X150039101Y-112346766D02*
X149971758Y-112481453D01*
X149971758Y-112481453D02*
X149904414Y-112548796D01*
X149904414Y-112548796D02*
X149769727Y-112616140D01*
X149769727Y-112616140D02*
X149702384Y-112616140D01*
X149702384Y-112616140D02*
X149466681Y-112380437D01*
X149466681Y-112380437D02*
X149601368Y-112245750D01*
X149466681Y-112986529D02*
X148759575Y-112279422D01*
X148759575Y-112279422D02*
X148490201Y-112548796D01*
X148490201Y-112548796D02*
X148456529Y-112649811D01*
X148456529Y-112649811D02*
X148456529Y-112717155D01*
X148456529Y-112717155D02*
X148490201Y-112818170D01*
X148490201Y-112818170D02*
X148591216Y-112919185D01*
X148591216Y-112919185D02*
X148692231Y-112952857D01*
X148692231Y-112952857D02*
X148759575Y-112952857D01*
X148759575Y-112952857D02*
X148860590Y-112919185D01*
X148860590Y-112919185D02*
X149129964Y-112649811D01*
X148389185Y-114064025D02*
X148793246Y-113659964D01*
X148591216Y-113861994D02*
X147884109Y-113154888D01*
X147884109Y-113154888D02*
X148052468Y-113188559D01*
X148052468Y-113188559D02*
X148187155Y-113188559D01*
X148187155Y-113188559D02*
X148288170Y-113154888D01*
X147480048Y-113693636D02*
X147412705Y-113693636D01*
X147412705Y-113693636D02*
X147311689Y-113727307D01*
X147311689Y-113727307D02*
X147143331Y-113895666D01*
X147143331Y-113895666D02*
X147109659Y-113996681D01*
X147109659Y-113996681D02*
X147109659Y-114064025D01*
X147109659Y-114064025D02*
X147143331Y-114165040D01*
X147143331Y-114165040D02*
X147210674Y-114232384D01*
X147210674Y-114232384D02*
X147345361Y-114299727D01*
X147345361Y-114299727D02*
X148153483Y-114299727D01*
X148153483Y-114299727D02*
X147715750Y-114737460D01*
M02*
