%TF.GenerationSoftware,KiCad,Pcbnew,10.0.3-2.fc44*%
%TF.CreationDate,2026-06-08T18:29:02-05:00*%
%TF.ProjectId,clockgen-main-board,636c6f63-6b67-4656-9e2d-6d61696e2d62,1.0*%
%TF.SameCoordinates,Original*%
%TF.FileFunction,Copper,L2,Bot*%
%TF.FilePolarity,Positive*%
%FSLAX46Y46*%
G04 Gerber Fmt 4.6, Leading zero omitted, Abs format (unit mm)*
G04 Created by KiCad (PCBNEW 10.0.3-2.fc44) date 2026-06-08 18:29:02*
%MOMM*%
%LPD*%
G01*
G04 APERTURE LIST*
%TA.AperFunction,ComponentPad*%
%ADD10C,4.000000*%
%TD*%
%TA.AperFunction,ComponentPad*%
%ADD11C,2.000000*%
%TD*%
%TA.AperFunction,ComponentPad*%
%ADD12C,5.500000*%
%TD*%
%TA.AperFunction,ComponentPad*%
%ADD13O,1.700000X1.700000*%
%TD*%
%TA.AperFunction,ComponentPad*%
%ADD14R,1.700000X1.700000*%
%TD*%
%TA.AperFunction,ComponentPad*%
%ADD15C,1.600000*%
%TD*%
%TA.AperFunction,ComponentPad*%
%ADD16C,3.000000*%
%TD*%
%TA.AperFunction,ComponentPad*%
%ADD17C,2.325000*%
%TD*%
%TA.AperFunction,ComponentPad*%
%ADD18C,2.625000*%
%TD*%
%TA.AperFunction,ComponentPad*%
%ADD19O,2.000000X2.000000*%
%TD*%
%TA.AperFunction,ComponentPad*%
%ADD20R,2.000000X2.000000*%
%TD*%
%TA.AperFunction,ViaPad*%
%ADD21C,0.800000*%
%TD*%
%TA.AperFunction,Conductor*%
%ADD22C,0.250000*%
%TD*%
G04 APERTURE END LIST*
D10*
%TO.P,A3,*%
%TO.N,*%
X158148000Y-122435500D03*
X139352000Y-122435500D03*
D11*
%TO.P,A3,1,+5V_1*%
%TO.N,/PCM.5V*%
X158910000Y-116434500D03*
%TO.P,A3,2,+3.3V_2*%
%TO.N,unconnected-(A3-+3.3V-Pad2)*%
X156370000Y-116434500D03*
%TO.P,A3,3,GND_3*%
%TO.N,GND*%
X153830000Y-116434500D03*
%TO.P,A3,4,DOUT_4*%
%TO.N,/PCM.Data*%
X151290000Y-116434500D03*
%TO.P,A3,5,BCK_5*%
%TO.N,/PCM.BitClk*%
X148750000Y-116434500D03*
%TO.P,A3,6,FSY_6*%
%TO.N,unconnected-(A3-FSY-Pad6)*%
X146210000Y-116434500D03*
%TO.P,A3,7,LRCK_7*%
%TO.N,/PCM.LRClk*%
X143670000Y-116434500D03*
%TO.P,A3,8,PDW_8*%
%TO.N,/PCM.PwrDn*%
X141130000Y-116434500D03*
%TO.P,A3,9,SCK_9*%
%TO.N,/PCM.SysClk*%
X138590000Y-116434500D03*
%TD*%
D12*
%TO.P,H1,1,1_1*%
%TO.N,GND*%
X102000000Y-69500000D03*
%TD*%
D13*
%TO.P,A1,1,GPIO0_1*%
%TO.N,unconnected-(A1-GPIO0-Pad1)*%
X100380000Y-109010000D03*
%TO.P,A1,2,GPIO1_2*%
%TO.N,unconnected-(A1-GPIO1-Pad2)*%
X102920000Y-109010000D03*
D14*
%TO.P,A1,3,GND_3*%
%TO.N,GND*%
X105460000Y-109010000D03*
D13*
%TO.P,A1,4,GPIO2_4*%
%TO.N,unconnected-(A1-GPIO2-Pad4)_1*%
X108000000Y-109010000D03*
%TO.P,A1,5,GPIO3_5*%
%TO.N,unconnected-(A1-GPIO3-Pad5)*%
X110540000Y-109010000D03*
%TO.P,A1,6,GPIO4_6*%
%TO.N,unconnected-(A1-GPIO4-Pad6)_1*%
X113080000Y-109010000D03*
%TO.P,A1,7,GPIO5_7*%
%TO.N,unconnected-(A1-GPIO5-Pad7)_1*%
X115620000Y-109010000D03*
D14*
%TO.P,A1,8,GND_8*%
%TO.N,GND*%
X118160000Y-109010000D03*
D13*
%TO.P,A1,9,GPIO6_9*%
%TO.N,unconnected-(A1-GPIO6-Pad9)*%
X120700000Y-109010000D03*
%TO.P,A1,10,GPIO7_10*%
%TO.N,unconnected-(A1-GPIO7-Pad10)_1*%
X123240000Y-109010000D03*
%TO.P,A1,11,GPIO8_11*%
%TO.N,unconnected-(A1-GPIO8-Pad11)_1*%
X125780000Y-109010000D03*
%TO.P,A1,12,GPIO9_12*%
%TO.N,unconnected-(A1-GPIO9-Pad12)_1*%
X128320000Y-109010000D03*
D14*
%TO.P,A1,13,GND_13*%
%TO.N,GND*%
X130860000Y-109010000D03*
D13*
%TO.P,A1,14,GPIO10_14*%
%TO.N,unconnected-(A1-GPIO10-Pad14)_1*%
X133400000Y-109010000D03*
%TO.P,A1,15,GPIO11_15*%
%TO.N,unconnected-(A1-GPIO11-Pad15)_1*%
X135940000Y-109010000D03*
%TO.P,A1,16,GPIO12_16*%
%TO.N,/Gen.SDA*%
X138480000Y-109010000D03*
%TO.P,A1,17,GPIO13_17*%
%TO.N,/Gen.SCL*%
X141020000Y-109010000D03*
D14*
%TO.P,A1,18,GND_18*%
%TO.N,GND*%
X143560000Y-109010000D03*
D13*
%TO.P,A1,19,GPIO14_19*%
%TO.N,unconnected-(A1-GPIO14-Pad19)*%
X146100000Y-109010000D03*
%TO.P,A1,20,GPIO15_20*%
%TO.N,unconnected-(A1-GPIO15-Pad20)_1*%
X148640000Y-109010000D03*
%TO.P,A1,21,GPIO16_21*%
%TO.N,Net-(A1-GPIO16)*%
X148640000Y-91230000D03*
%TO.P,A1,22,GPIO17_22*%
%TO.N,/PCM.PwrDn*%
X146100000Y-91230000D03*
D14*
%TO.P,A1,23,GND_23*%
%TO.N,GND*%
X143560000Y-91230000D03*
D13*
%TO.P,A1,24,GPIO18_24*%
%TO.N,/PCM.Data*%
X141020000Y-91230000D03*
%TO.P,A1,25,GPIO19_25*%
%TO.N,/PCM.BitClk*%
X138480000Y-91230000D03*
%TO.P,A1,26,GPIO20_26*%
%TO.N,/PCM.LRClk*%
X135940000Y-91230000D03*
%TO.P,A1,27,GPIO21_27*%
%TO.N,unconnected-(A1-GPIO21-Pad27)_1*%
X133400000Y-91230000D03*
D14*
%TO.P,A1,28,GND_28*%
%TO.N,GND*%
X130860000Y-91230000D03*
D13*
%TO.P,A1,29,GPIO22_29*%
%TO.N,unconnected-(A1-GPIO22-Pad29)*%
X128320000Y-91230000D03*
%TO.P,A1,30,RUN_30*%
%TO.N,unconnected-(A1-RUN-Pad30)_1*%
X125780000Y-91230000D03*
%TO.P,A1,31,GPIO26_ADC0_31*%
%TO.N,unconnected-(A1-GPIO26_ADC0-Pad31)*%
X123240000Y-91230000D03*
%TO.P,A1,32,GPIO27_ADC1_32*%
%TO.N,unconnected-(A1-GPIO27_ADC1-Pad32)_1*%
X120700000Y-91230000D03*
D14*
%TO.P,A1,33,AGND_33*%
%TO.N,GND*%
X118160000Y-91230000D03*
D13*
%TO.P,A1,34,GPIO28_ADC2_34*%
%TO.N,unconnected-(A1-GPIO28_ADC2-Pad34)*%
X115620000Y-91230000D03*
%TO.P,A1,35,ADC_VREF_35*%
%TO.N,unconnected-(A1-ADC_VREF-Pad35)*%
X113080000Y-91230000D03*
%TO.P,A1,36,3V3_36*%
%TO.N,/Gen.VSI*%
X110540000Y-91230000D03*
%TO.P,A1,37,3V3_EN_37*%
%TO.N,unconnected-(A1-3V3_EN-Pad37)*%
X108000000Y-91230000D03*
D14*
%TO.P,A1,38,GND_38*%
%TO.N,GND*%
X105460000Y-91230000D03*
D13*
%TO.P,A1,39,VSYS_39*%
%TO.N,unconnected-(A1-VSYS-Pad39)*%
X102920000Y-91230000D03*
%TO.P,A1,40,VBUS_40*%
%TO.N,/PCM.5V*%
X100380000Y-91230000D03*
%TO.P,A1,41,SWCLK_41*%
%TO.N,unconnected-(A1-SWCLK-Pad41)*%
X148410000Y-102660000D03*
D14*
%TO.P,A1,42,GND_42*%
%TO.N,GND*%
X148410000Y-100120000D03*
D13*
%TO.P,A1,43,SWDIO_43*%
%TO.N,unconnected-(A1-SWDIO-Pad43)*%
X148410000Y-97580000D03*
%TD*%
D12*
%TO.P,H4,1,1_1*%
%TO.N,GND*%
X102000000Y-126000000D03*
%TD*%
D15*
%TO.P,J4,1,In_1*%
%TO.N,/Head_SW_In*%
X110500000Y-81000000D03*
D16*
%TO.P,J4,2,Ext_2*%
%TO.N,GND*%
X102700000Y-84800000D03*
X102700000Y-77200000D03*
%TD*%
D17*
%TO.P,J3,1*%
%TO.N,/Head_SW_In*%
X118740000Y-77640000D03*
D18*
%TO.P,J3,2,GND_2*%
%TO.N,GND*%
X116200000Y-80180000D03*
X121280000Y-80180000D03*
X116200000Y-75100000D03*
X121280000Y-75100000D03*
%TD*%
D17*
%TO.P,J1,1*%
%TO.N,Net-(A2-CLK0)*%
X128600000Y-117760000D03*
D18*
%TO.P,J1,2,GND_2*%
%TO.N,GND*%
X126060000Y-115220000D03*
X126060000Y-120300000D03*
X131140000Y-115220000D03*
X131140000Y-120300000D03*
%TD*%
D17*
%TO.P,J2,1*%
%TO.N,Net-(A2-CLK1)*%
X117100000Y-117760000D03*
D18*
%TO.P,J2,2,GND_2*%
%TO.N,GND*%
X114560000Y-115220000D03*
X114560000Y-120300000D03*
X119640000Y-115220000D03*
X119640000Y-120300000D03*
%TD*%
D10*
%TO.P,A2,*%
%TO.N,*%
X133700000Y-126044000D03*
X108300000Y-126044000D03*
D19*
%TO.P,A2,0,CLK0_0*%
%TO.N,Net-(A2-CLK0)*%
X128620000Y-126044000D03*
D11*
%TO.P,A2,1,CLK1_1*%
%TO.N,Net-(A2-CLK1)*%
X126080000Y-126044000D03*
%TO.P,A2,2,CLK2_2*%
%TO.N,/PCM.SysClk*%
X123540000Y-126044000D03*
%TO.P,A2,3,SCL_3*%
%TO.N,/Gen.SCL*%
X121000000Y-126044000D03*
%TO.P,A2,4,SDA_4*%
%TO.N,/Gen.SDA*%
X118460000Y-126044000D03*
%TO.P,A2,5,GND_5*%
%TO.N,GND*%
X115920000Y-126044000D03*
D20*
%TO.P,A2,6,VIN_6*%
%TO.N,/Gen.VSI*%
X113380000Y-126044000D03*
%TD*%
D12*
%TO.P,H3,1,1_1*%
%TO.N,GND*%
X164000000Y-126000000D03*
%TD*%
%TO.P,H2,1,1_1*%
%TO.N,GND*%
X164000000Y-83000000D03*
%TD*%
D21*
%TO.N,/PCM.5V*%
X116800000Y-94000000D03*
%TD*%
%TO.N,/PCM.5V*%
D22*
X100370000Y-91520000D02*
X100370000Y-91160000D01*
X116675500Y-93875500D02*
X102725500Y-93875500D01*
X102725500Y-93875500D02*
X100370000Y-91520000D01*
X116800000Y-94000000D02*
X116675500Y-93875500D01*
%TO.N,/PCM.Data*%
X150400000Y-104600000D02*
X141800000Y-104600000D01*
X141800000Y-104600000D02*
X141010000Y-103810000D01*
X152000000Y-114000000D02*
X152000000Y-106200000D01*
X151290000Y-114710000D02*
X152000000Y-114000000D01*
X152000000Y-106200000D02*
X150400000Y-104600000D01*
X151290000Y-116434500D02*
X151290000Y-114710000D01*
X141010000Y-103810000D02*
X141010000Y-91160000D01*
%TO.N,/PCM.BitClk*%
X140200000Y-95900000D02*
X140200000Y-104200000D01*
X138480000Y-91150000D02*
X138480000Y-94180000D01*
X141400000Y-105400000D02*
X149800000Y-105400000D01*
X140200000Y-104200000D02*
X141400000Y-105400000D01*
X148750000Y-115650000D02*
X148750000Y-116434500D01*
X138480000Y-94180000D02*
X140200000Y-95900000D01*
X151050000Y-113350000D02*
X148750000Y-115650000D01*
X151050000Y-106650000D02*
X151050000Y-113350000D01*
X149800000Y-105400000D02*
X151050000Y-106650000D01*
%TO.N,/PCM.LRClk*%
X139400000Y-97500000D02*
X139400000Y-104600000D01*
X150200000Y-112800000D02*
X149000000Y-114000000D01*
X150200000Y-107000000D02*
X150200000Y-112800000D01*
X135950000Y-94050000D02*
X139400000Y-97500000D01*
X146000000Y-114000000D02*
X143670000Y-116330000D01*
X149400000Y-106200000D02*
X150200000Y-107000000D01*
X141000000Y-106200000D02*
X149400000Y-106200000D01*
X143670000Y-116330000D02*
X143670000Y-116434500D01*
X135940000Y-91150000D02*
X135950000Y-91160000D01*
X149000000Y-114000000D02*
X146000000Y-114000000D01*
X139400000Y-104600000D02*
X141000000Y-106200000D01*
X135950000Y-91160000D02*
X135950000Y-94050000D01*
%TO.N,/Gen.SDA*%
X138000000Y-111800000D02*
X124400000Y-111800000D01*
X118460000Y-125090000D02*
X118460000Y-126044000D01*
X138470000Y-108940000D02*
X138470000Y-111330000D01*
X122500000Y-121050000D02*
X118460000Y-125090000D01*
X124400000Y-111800000D02*
X122500000Y-113700000D01*
X122500000Y-113700000D02*
X122500000Y-121050000D01*
X138470000Y-111330000D02*
X138000000Y-111800000D01*
%TO.N,/Gen.SCL*%
X124700000Y-112500000D02*
X140300000Y-112500000D01*
X141010000Y-111790000D02*
X141010000Y-108940000D01*
X121000000Y-124150000D02*
X123300000Y-121850000D01*
X140300000Y-112500000D02*
X141010000Y-111790000D01*
X121000000Y-126044000D02*
X121000000Y-124150000D01*
X123300000Y-113900000D02*
X124700000Y-112500000D01*
X123300000Y-121850000D02*
X123300000Y-113900000D01*
%TD*%
%TA.AperFunction,Conductor*%
%TO.N,GND*%
G36*
X123625000Y-65920462D02*
G01*
X123679538Y-65975000D01*
X123699500Y-66049500D01*
X123699500Y-78960438D01*
X123699500Y-79039562D01*
X123719979Y-79115989D01*
X123759540Y-79184511D01*
X123815489Y-79240460D01*
X123884011Y-79280021D01*
X123960438Y-79300500D01*
X167550500Y-79300500D01*
X167625000Y-79320462D01*
X167679538Y-79375000D01*
X167699500Y-79449500D01*
X167699500Y-129550500D01*
X167679538Y-129625000D01*
X167625000Y-129679538D01*
X167550500Y-129699500D01*
X98449500Y-129699500D01*
X98375000Y-129679538D01*
X98320462Y-129625000D01*
X98300500Y-129550500D01*
X98300500Y-125893211D01*
X105999500Y-125893211D01*
X105999500Y-126194788D01*
X106038860Y-126493760D01*
X106038861Y-126493766D01*
X106038862Y-126493768D01*
X106116913Y-126785058D01*
X106220842Y-127035966D01*
X106232319Y-127063672D01*
X106332839Y-127237777D01*
X106383100Y-127324832D01*
X106566681Y-127564080D01*
X106779920Y-127777319D01*
X107019168Y-127960900D01*
X107280332Y-128111683D01*
X107558942Y-128227087D01*
X107850232Y-128305138D01*
X107850238Y-128305138D01*
X107850239Y-128305139D01*
X107931514Y-128315839D01*
X108149217Y-128344500D01*
X108450783Y-128344500D01*
X108749768Y-128305138D01*
X109041058Y-128227087D01*
X109319668Y-128111683D01*
X109580832Y-127960900D01*
X109820080Y-127777319D01*
X110033319Y-127564080D01*
X110216900Y-127324832D01*
X110367683Y-127063668D01*
X110483087Y-126785058D01*
X110561138Y-126493768D01*
X110600500Y-126194783D01*
X110600500Y-125893217D01*
X110561138Y-125594232D01*
X110483087Y-125302942D01*
X110367683Y-125024332D01*
X110216900Y-124763168D01*
X110033319Y-124523920D01*
X109820080Y-124310681D01*
X109580832Y-124127100D01*
X109336029Y-123985763D01*
X109319672Y-123976319D01*
X109319670Y-123976318D01*
X109319668Y-123976317D01*
X109108231Y-123888737D01*
X109041061Y-123860914D01*
X109041059Y-123860913D01*
X109041058Y-123860913D01*
X108749768Y-123782862D01*
X108749766Y-123782861D01*
X108749760Y-123782860D01*
X108450788Y-123743500D01*
X108450783Y-123743500D01*
X108149217Y-123743500D01*
X108149211Y-123743500D01*
X107850239Y-123782860D01*
X107558938Y-123860914D01*
X107280327Y-123976319D01*
X107019169Y-124127099D01*
X106930626Y-124195039D01*
X106779920Y-124310681D01*
X106779918Y-124310682D01*
X106779914Y-124310686D01*
X106566686Y-124523914D01*
X106383099Y-124763169D01*
X106232319Y-125024327D01*
X106116914Y-125302938D01*
X106038860Y-125594239D01*
X105999500Y-125893211D01*
X98300500Y-125893211D01*
X98300500Y-120181196D01*
X112747500Y-120181196D01*
X112747500Y-120418803D01*
X112778510Y-120654350D01*
X112840009Y-120883867D01*
X112930927Y-121103363D01*
X112930928Y-121103365D01*
X113049729Y-121309134D01*
X113049730Y-121309136D01*
X113113805Y-121392639D01*
X113787545Y-120718898D01*
X113880343Y-120857780D01*
X114002220Y-120979657D01*
X114141099Y-121072453D01*
X113467358Y-121746193D01*
X113550863Y-121810269D01*
X113550865Y-121810270D01*
X113756634Y-121929071D01*
X113756636Y-121929072D01*
X113976132Y-122019990D01*
X114205649Y-122081489D01*
X114441196Y-122112499D01*
X114441202Y-122112500D01*
X114678798Y-122112500D01*
X114678803Y-122112499D01*
X114914350Y-122081489D01*
X115143867Y-122019990D01*
X115363363Y-121929072D01*
X115363365Y-121929071D01*
X115569132Y-121810272D01*
X115652639Y-121746193D01*
X115652640Y-121746193D01*
X114978900Y-121072453D01*
X115117780Y-120979657D01*
X115239657Y-120857780D01*
X115332453Y-120718900D01*
X116006193Y-121392640D01*
X116006193Y-121392639D01*
X116070272Y-121309132D01*
X116189071Y-121103365D01*
X116189072Y-121103363D01*
X116279990Y-120883867D01*
X116341489Y-120654350D01*
X116372499Y-120418803D01*
X116372500Y-120418798D01*
X116372500Y-120181202D01*
X116372499Y-120181196D01*
X117827500Y-120181196D01*
X117827500Y-120418803D01*
X117858510Y-120654350D01*
X117920009Y-120883867D01*
X118010927Y-121103363D01*
X118010928Y-121103365D01*
X118129729Y-121309134D01*
X118129730Y-121309136D01*
X118193805Y-121392639D01*
X118867545Y-120718898D01*
X118960343Y-120857780D01*
X119082220Y-120979657D01*
X119221099Y-121072453D01*
X118547358Y-121746193D01*
X118630863Y-121810269D01*
X118630865Y-121810270D01*
X118836634Y-121929071D01*
X118836636Y-121929072D01*
X119056132Y-122019990D01*
X119285649Y-122081489D01*
X119521196Y-122112499D01*
X119521202Y-122112500D01*
X119758798Y-122112500D01*
X119758803Y-122112499D01*
X119994350Y-122081489D01*
X120223867Y-122019990D01*
X120443363Y-121929072D01*
X120443365Y-121929071D01*
X120649132Y-121810272D01*
X120732639Y-121746193D01*
X120732640Y-121746193D01*
X120058900Y-121072453D01*
X120197780Y-120979657D01*
X120319657Y-120857780D01*
X120412453Y-120718900D01*
X121086193Y-121392640D01*
X121086193Y-121392639D01*
X121150272Y-121309132D01*
X121269071Y-121103365D01*
X121269072Y-121103363D01*
X121359990Y-120883867D01*
X121421489Y-120654350D01*
X121452499Y-120418803D01*
X121452500Y-120418798D01*
X121452500Y-120181202D01*
X121452499Y-120181196D01*
X121421489Y-119945649D01*
X121359990Y-119716132D01*
X121269072Y-119496636D01*
X121269071Y-119496634D01*
X121150270Y-119290865D01*
X121150269Y-119290863D01*
X121086193Y-119207358D01*
X120412452Y-119881098D01*
X120319657Y-119742220D01*
X120197780Y-119620343D01*
X120058898Y-119527545D01*
X120732639Y-118853805D01*
X120649136Y-118789730D01*
X120649134Y-118789729D01*
X120443365Y-118670928D01*
X120443363Y-118670927D01*
X120223867Y-118580009D01*
X119994350Y-118518510D01*
X119758803Y-118487500D01*
X119521196Y-118487500D01*
X119285649Y-118518510D01*
X119056132Y-118580009D01*
X118836636Y-118670927D01*
X118836634Y-118670928D01*
X118630869Y-118789727D01*
X118547359Y-118853806D01*
X119221099Y-119527546D01*
X119082220Y-119620343D01*
X118960343Y-119742220D01*
X118867546Y-119881099D01*
X118193805Y-119207359D01*
X118129727Y-119290869D01*
X118010928Y-119496634D01*
X118010927Y-119496636D01*
X117920009Y-119716132D01*
X117858510Y-119945649D01*
X117827500Y-120181196D01*
X116372499Y-120181196D01*
X116341489Y-119945649D01*
X116279990Y-119716132D01*
X116189072Y-119496636D01*
X116189071Y-119496634D01*
X116070270Y-119290865D01*
X116070269Y-119290863D01*
X116006193Y-119207358D01*
X115332452Y-119881098D01*
X115239657Y-119742220D01*
X115117780Y-119620343D01*
X114978899Y-119527545D01*
X115652640Y-118853805D01*
X115569136Y-118789730D01*
X115569134Y-118789729D01*
X115363365Y-118670928D01*
X115363363Y-118670927D01*
X115143867Y-118580009D01*
X114914350Y-118518510D01*
X114678803Y-118487500D01*
X114441196Y-118487500D01*
X114205649Y-118518510D01*
X113976132Y-118580009D01*
X113756636Y-118670927D01*
X113756634Y-118670928D01*
X113550869Y-118789727D01*
X113467359Y-118853806D01*
X114141099Y-119527546D01*
X114002220Y-119620343D01*
X113880343Y-119742220D01*
X113787546Y-119881099D01*
X113113805Y-119207359D01*
X113049727Y-119290869D01*
X112930928Y-119496634D01*
X112930927Y-119496636D01*
X112840009Y-119716132D01*
X112778510Y-119945649D01*
X112747500Y-120181196D01*
X98300500Y-120181196D01*
X98300500Y-117644859D01*
X115637000Y-117644859D01*
X115637000Y-117875141D01*
X115640552Y-117897565D01*
X115673023Y-118102586D01*
X115723615Y-118258289D01*
X115744185Y-118321597D01*
X115848730Y-118526779D01*
X115984086Y-118713081D01*
X116146919Y-118875914D01*
X116333221Y-119011270D01*
X116538403Y-119115815D01*
X116757413Y-119186976D01*
X116984859Y-119223000D01*
X116984863Y-119223000D01*
X117215137Y-119223000D01*
X117215141Y-119223000D01*
X117442587Y-119186976D01*
X117661597Y-119115815D01*
X117866779Y-119011270D01*
X118053081Y-118875914D01*
X118215914Y-118713081D01*
X118351270Y-118526779D01*
X118455815Y-118321597D01*
X118526976Y-118102587D01*
X118563000Y-117875141D01*
X118563000Y-117644859D01*
X118526976Y-117417413D01*
X118455815Y-117198403D01*
X118351270Y-116993221D01*
X118215914Y-116806919D01*
X118053081Y-116644086D01*
X117905479Y-116536847D01*
X117866781Y-116508731D01*
X117866775Y-116508728D01*
X117661607Y-116404190D01*
X117661606Y-116404189D01*
X117661597Y-116404185D01*
X117598289Y-116383615D01*
X117442586Y-116333023D01*
X117312820Y-116312470D01*
X117215141Y-116297000D01*
X116984859Y-116297000D01*
X116896650Y-116310970D01*
X116757413Y-116333023D01*
X116538409Y-116404183D01*
X116538403Y-116404185D01*
X116538398Y-116404187D01*
X116538392Y-116404190D01*
X116333224Y-116508728D01*
X116333218Y-116508731D01*
X116146920Y-116644085D01*
X116146917Y-116644087D01*
X115984087Y-116806917D01*
X115984085Y-116806920D01*
X115848731Y-116993218D01*
X115848728Y-116993224D01*
X115744190Y-117198392D01*
X115744183Y-117198409D01*
X115673023Y-117417413D01*
X115652533Y-117546785D01*
X115637000Y-117644859D01*
X98300500Y-117644859D01*
X98300500Y-115101196D01*
X112747500Y-115101196D01*
X112747500Y-115338803D01*
X112778510Y-115574350D01*
X112840009Y-115803867D01*
X112930927Y-116023363D01*
X112930928Y-116023365D01*
X113049729Y-116229134D01*
X113049730Y-116229136D01*
X113113805Y-116312639D01*
X113787545Y-115638898D01*
X113880343Y-115777780D01*
X114002220Y-115899657D01*
X114141099Y-115992453D01*
X113467358Y-116666193D01*
X113550863Y-116730269D01*
X113550865Y-116730270D01*
X113756634Y-116849071D01*
X113756636Y-116849072D01*
X113976132Y-116939990D01*
X114205649Y-117001489D01*
X114441196Y-117032499D01*
X114441202Y-117032500D01*
X114678798Y-117032500D01*
X114678803Y-117032499D01*
X114914350Y-117001489D01*
X115143867Y-116939990D01*
X115363363Y-116849072D01*
X115363365Y-116849071D01*
X115569132Y-116730272D01*
X115652639Y-116666193D01*
X115652640Y-116666193D01*
X114978900Y-115992453D01*
X115117780Y-115899657D01*
X115239657Y-115777780D01*
X115332453Y-115638900D01*
X116006193Y-116312640D01*
X116006193Y-116312639D01*
X116070272Y-116229132D01*
X116189071Y-116023365D01*
X116189072Y-116023363D01*
X116279990Y-115803867D01*
X116341489Y-115574350D01*
X116372499Y-115338803D01*
X116372500Y-115338798D01*
X116372500Y-115101202D01*
X116372499Y-115101196D01*
X117827500Y-115101196D01*
X117827500Y-115338803D01*
X117858510Y-115574350D01*
X117920009Y-115803867D01*
X118010927Y-116023363D01*
X118010928Y-116023365D01*
X118129729Y-116229134D01*
X118129730Y-116229136D01*
X118193805Y-116312639D01*
X118867545Y-115638898D01*
X118960343Y-115777780D01*
X119082220Y-115899657D01*
X119221099Y-115992453D01*
X118547358Y-116666193D01*
X118630863Y-116730269D01*
X118630865Y-116730270D01*
X118836634Y-116849071D01*
X118836636Y-116849072D01*
X119056132Y-116939990D01*
X119285649Y-117001489D01*
X119521196Y-117032499D01*
X119521202Y-117032500D01*
X119758798Y-117032500D01*
X119758803Y-117032499D01*
X119994350Y-117001489D01*
X120223867Y-116939990D01*
X120443363Y-116849072D01*
X120443365Y-116849071D01*
X120649132Y-116730272D01*
X120732639Y-116666193D01*
X120732640Y-116666193D01*
X120058900Y-115992453D01*
X120197780Y-115899657D01*
X120319657Y-115777780D01*
X120412453Y-115638900D01*
X121086193Y-116312640D01*
X121086193Y-116312639D01*
X121150272Y-116229132D01*
X121269071Y-116023365D01*
X121269072Y-116023363D01*
X121359990Y-115803867D01*
X121421489Y-115574350D01*
X121452499Y-115338803D01*
X121452500Y-115338798D01*
X121452500Y-115101202D01*
X121452499Y-115101196D01*
X121421489Y-114865649D01*
X121359990Y-114636132D01*
X121269072Y-114416636D01*
X121269071Y-114416634D01*
X121150270Y-114210865D01*
X121150269Y-114210863D01*
X121086193Y-114127358D01*
X120412452Y-114801098D01*
X120319657Y-114662220D01*
X120197780Y-114540343D01*
X120058898Y-114447545D01*
X120732639Y-113773805D01*
X120649136Y-113709730D01*
X120649134Y-113709729D01*
X120443365Y-113590928D01*
X120443363Y-113590927D01*
X120223867Y-113500009D01*
X119994350Y-113438510D01*
X119758803Y-113407500D01*
X119521196Y-113407500D01*
X119285649Y-113438510D01*
X119056132Y-113500009D01*
X118836636Y-113590927D01*
X118836634Y-113590928D01*
X118630869Y-113709727D01*
X118547359Y-113773806D01*
X119221099Y-114447546D01*
X119082220Y-114540343D01*
X118960343Y-114662220D01*
X118867546Y-114801099D01*
X118193805Y-114127359D01*
X118129727Y-114210869D01*
X118010928Y-114416634D01*
X118010927Y-114416636D01*
X117920009Y-114636132D01*
X117858510Y-114865649D01*
X117827500Y-115101196D01*
X116372499Y-115101196D01*
X116341489Y-114865649D01*
X116279990Y-114636132D01*
X116189072Y-114416636D01*
X116189071Y-114416634D01*
X116070270Y-114210865D01*
X116070269Y-114210863D01*
X116006193Y-114127358D01*
X115332452Y-114801098D01*
X115239657Y-114662220D01*
X115117780Y-114540343D01*
X114978899Y-114447545D01*
X115652640Y-113773805D01*
X115569136Y-113709730D01*
X115569134Y-113709729D01*
X115363365Y-113590928D01*
X115363363Y-113590927D01*
X115143867Y-113500009D01*
X114914350Y-113438510D01*
X114678803Y-113407500D01*
X114441196Y-113407500D01*
X114205649Y-113438510D01*
X113976132Y-113500009D01*
X113756636Y-113590927D01*
X113756634Y-113590928D01*
X113550869Y-113709727D01*
X113467359Y-113773806D01*
X114141099Y-114447546D01*
X114002220Y-114540343D01*
X113880343Y-114662220D01*
X113787546Y-114801099D01*
X113113805Y-114127359D01*
X113049727Y-114210869D01*
X112930928Y-114416634D01*
X112930927Y-114416636D01*
X112840009Y-114636132D01*
X112778510Y-114865649D01*
X112747500Y-115101196D01*
X98300500Y-115101196D01*
X98300500Y-102750519D01*
X99309500Y-102750519D01*
X99309500Y-102939481D01*
X99339060Y-103126118D01*
X99397453Y-103305832D01*
X99483240Y-103474199D01*
X99594310Y-103627073D01*
X99727927Y-103760690D01*
X99880801Y-103871760D01*
X100049168Y-103957547D01*
X100228882Y-104015940D01*
X100415519Y-104045500D01*
X100415524Y-104045500D01*
X100604476Y-104045500D01*
X100604481Y-104045500D01*
X100791118Y-104015940D01*
X100970832Y-103957547D01*
X101139199Y-103871760D01*
X101292073Y-103760690D01*
X101425690Y-103627073D01*
X101536760Y-103474199D01*
X101622547Y-103305832D01*
X101680940Y-103126118D01*
X101710500Y-102939481D01*
X101710500Y-102750519D01*
X101680940Y-102563882D01*
X101641186Y-102441534D01*
X102489500Y-102441534D01*
X102489500Y-102648465D01*
X102529869Y-102851417D01*
X102609057Y-103042596D01*
X102724022Y-103214654D01*
X102870345Y-103360977D01*
X103042403Y-103475942D01*
X103121591Y-103508742D01*
X103233580Y-103555130D01*
X103436535Y-103595500D01*
X103643465Y-103595500D01*
X103846420Y-103555130D01*
X104037598Y-103475941D01*
X104209655Y-103360977D01*
X104355977Y-103214655D01*
X104470941Y-103042598D01*
X104550130Y-102851420D01*
X104590500Y-102648465D01*
X104590500Y-102441535D01*
X104550130Y-102238580D01*
X104503742Y-102126591D01*
X104470942Y-102047403D01*
X104355977Y-101875345D01*
X104209654Y-101729022D01*
X104037596Y-101614057D01*
X103869669Y-101544500D01*
X103846420Y-101534870D01*
X103846418Y-101534869D01*
X103846417Y-101534869D01*
X103643465Y-101494500D01*
X103436535Y-101494500D01*
X103233582Y-101534869D01*
X103042403Y-101614057D01*
X102870345Y-101729022D01*
X102724022Y-101875345D01*
X102609057Y-102047403D01*
X102529869Y-102238582D01*
X102489500Y-102441534D01*
X101641186Y-102441534D01*
X101622547Y-102384168D01*
X101536760Y-102215801D01*
X101425690Y-102062927D01*
X101292073Y-101929310D01*
X101139199Y-101818240D01*
X100970832Y-101732453D01*
X100791118Y-101674060D01*
X100604481Y-101644500D01*
X100415519Y-101644500D01*
X100228882Y-101674060D01*
X100049168Y-101732453D01*
X100049163Y-101732455D01*
X100049157Y-101732458D01*
X99880804Y-101818238D01*
X99880799Y-101818241D01*
X99727936Y-101929303D01*
X99727925Y-101929312D01*
X99594312Y-102062925D01*
X99594303Y-102062936D01*
X99483241Y-102215799D01*
X99483238Y-102215804D01*
X99397458Y-102384157D01*
X99397455Y-102384163D01*
X99397453Y-102384168D01*
X99339060Y-102563882D01*
X99309500Y-102750519D01*
X98300500Y-102750519D01*
X98300500Y-97300519D01*
X99309500Y-97300519D01*
X99309500Y-97489481D01*
X99339060Y-97676118D01*
X99397453Y-97855832D01*
X99483240Y-98024199D01*
X99594310Y-98177073D01*
X99727927Y-98310690D01*
X99880801Y-98421760D01*
X100049168Y-98507547D01*
X100228882Y-98565940D01*
X100415519Y-98595500D01*
X100415524Y-98595500D01*
X100604476Y-98595500D01*
X100604481Y-98595500D01*
X100791118Y-98565940D01*
X100970832Y-98507547D01*
X101139199Y-98421760D01*
X101292073Y-98310690D01*
X101425690Y-98177073D01*
X101536760Y-98024199D01*
X101622547Y-97855832D01*
X101680940Y-97676118D01*
X101694337Y-97591534D01*
X102489500Y-97591534D01*
X102489500Y-97798465D01*
X102500909Y-97855825D01*
X102529870Y-98001420D01*
X102539306Y-98024200D01*
X102609057Y-98192596D01*
X102724022Y-98364654D01*
X102870345Y-98510977D01*
X103042403Y-98625942D01*
X103121591Y-98658742D01*
X103233580Y-98705130D01*
X103436535Y-98745500D01*
X103643465Y-98745500D01*
X103846420Y-98705130D01*
X104037598Y-98625941D01*
X104209655Y-98510977D01*
X104355977Y-98364655D01*
X104470941Y-98192598D01*
X104550130Y-98001420D01*
X104590500Y-97798465D01*
X104590500Y-97591535D01*
X104550130Y-97388580D01*
X104488063Y-97238737D01*
X104470942Y-97197403D01*
X104355977Y-97025345D01*
X104209654Y-96879022D01*
X104037596Y-96764057D01*
X103879219Y-96698455D01*
X103846420Y-96684870D01*
X103846418Y-96684869D01*
X103846417Y-96684869D01*
X103643465Y-96644500D01*
X103436535Y-96644500D01*
X103233582Y-96684869D01*
X103042403Y-96764057D01*
X102870345Y-96879022D01*
X102724022Y-97025345D01*
X102609057Y-97197403D01*
X102529869Y-97388582D01*
X102489500Y-97591534D01*
X101694337Y-97591534D01*
X101710500Y-97489481D01*
X101710500Y-97300519D01*
X101680940Y-97113882D01*
X101622547Y-96934168D01*
X101536760Y-96765801D01*
X101425690Y-96612927D01*
X101292073Y-96479310D01*
X101139199Y-96368240D01*
X100970832Y-96282453D01*
X100791118Y-96224060D01*
X100604481Y-96194500D01*
X100415519Y-96194500D01*
X100228882Y-96224060D01*
X100049168Y-96282453D01*
X100049163Y-96282455D01*
X100049157Y-96282458D01*
X99880804Y-96368238D01*
X99880799Y-96368241D01*
X99727936Y-96479303D01*
X99727925Y-96479312D01*
X99594312Y-96612925D01*
X99594303Y-96612936D01*
X99483241Y-96765799D01*
X99483238Y-96765804D01*
X99397458Y-96934157D01*
X99397455Y-96934163D01*
X99397453Y-96934168D01*
X99339060Y-97113882D01*
X99309500Y-97300519D01*
X98300500Y-97300519D01*
X98300500Y-91139454D01*
X99229500Y-91139454D01*
X99229500Y-91320546D01*
X99252400Y-91465132D01*
X99257829Y-91499408D01*
X99313789Y-91671639D01*
X99396005Y-91832995D01*
X99396005Y-91832996D01*
X99435594Y-91887485D01*
X99502447Y-91979501D01*
X99630499Y-92107553D01*
X99777006Y-92213996D01*
X99938361Y-92296211D01*
X100110591Y-92352171D01*
X100289454Y-92380500D01*
X100289458Y-92380500D01*
X100470546Y-92380500D01*
X100532134Y-92370745D01*
X100608840Y-92378806D01*
X100660803Y-92412551D01*
X102464237Y-94215985D01*
X102561263Y-94272003D01*
X102669482Y-94301000D01*
X102781518Y-94301000D01*
X116078995Y-94301000D01*
X116153495Y-94320962D01*
X116202883Y-94367219D01*
X116255883Y-94446538D01*
X116255886Y-94446542D01*
X116353458Y-94544114D01*
X116353461Y-94544116D01*
X116468184Y-94620772D01*
X116468186Y-94620773D01*
X116468189Y-94620775D01*
X116595672Y-94673580D01*
X116731007Y-94700500D01*
X116868993Y-94700500D01*
X117004328Y-94673580D01*
X117131811Y-94620775D01*
X117246542Y-94544114D01*
X117344114Y-94446542D01*
X117420775Y-94331811D01*
X117473580Y-94204328D01*
X117500500Y-94068993D01*
X117500500Y-93931007D01*
X117473580Y-93795672D01*
X117420775Y-93668189D01*
X117344114Y-93553458D01*
X117246542Y-93455886D01*
X117246538Y-93455883D01*
X117131815Y-93379227D01*
X117131809Y-93379224D01*
X117004329Y-93326420D01*
X117004325Y-93326419D01*
X116868993Y-93299500D01*
X116731007Y-93299500D01*
X116595674Y-93326419D01*
X116595670Y-93326420D01*
X116468191Y-93379223D01*
X116430951Y-93404106D01*
X116399847Y-93424889D01*
X116326814Y-93449681D01*
X116317068Y-93450000D01*
X102963466Y-93450000D01*
X102888966Y-93430038D01*
X102858107Y-93406359D01*
X101413792Y-91962044D01*
X101375228Y-91895249D01*
X101375228Y-91818121D01*
X101386392Y-91789039D01*
X101446210Y-91671642D01*
X101502171Y-91499408D01*
X101502834Y-91495223D01*
X101534204Y-91424762D01*
X101596602Y-91379427D01*
X101673307Y-91371364D01*
X101743768Y-91402734D01*
X101789103Y-91465132D01*
X101797166Y-91495223D01*
X101797828Y-91499408D01*
X101853789Y-91671639D01*
X101936005Y-91832995D01*
X101936005Y-91832996D01*
X101975594Y-91887485D01*
X102042447Y-91979501D01*
X102170499Y-92107553D01*
X102317006Y-92213996D01*
X102478361Y-92296211D01*
X102650591Y-92352171D01*
X102829454Y-92380500D01*
X102829458Y-92380500D01*
X103010542Y-92380500D01*
X103010546Y-92380500D01*
X103189409Y-92352171D01*
X103361639Y-92296211D01*
X103522994Y-92213996D01*
X103669501Y-92107553D01*
X103797553Y-91979501D01*
X103820858Y-91947424D01*
X103840456Y-91920450D01*
X103900395Y-91871911D01*
X103976574Y-91859845D01*
X104048579Y-91887485D01*
X104097118Y-91947424D01*
X104110000Y-92008029D01*
X104110000Y-92127822D01*
X104110001Y-92127842D01*
X104116401Y-92187377D01*
X104166645Y-92322084D01*
X104166650Y-92322094D01*
X104252809Y-92437187D01*
X104252812Y-92437190D01*
X104367905Y-92523349D01*
X104367915Y-92523354D01*
X104502623Y-92573598D01*
X104502621Y-92573598D01*
X104562157Y-92579998D01*
X104562177Y-92580000D01*
X105210000Y-92580000D01*
X105210000Y-91674560D01*
X105263147Y-91705245D01*
X105392857Y-91740000D01*
X105527143Y-91740000D01*
X105656853Y-91705245D01*
X105710000Y-91674560D01*
X105710000Y-92580000D01*
X106357823Y-92580000D01*
X106357842Y-92579998D01*
X106417377Y-92573598D01*
X106552084Y-92523354D01*
X106552094Y-92523349D01*
X106667187Y-92437190D01*
X106667190Y-92437187D01*
X106753349Y-92322094D01*
X106753354Y-92322084D01*
X106803598Y-92187377D01*
X106809998Y-92127842D01*
X106810000Y-92127822D01*
X106810000Y-92008029D01*
X106829962Y-91933529D01*
X106884500Y-91878991D01*
X106959000Y-91859029D01*
X107033500Y-91878991D01*
X107079544Y-91920450D01*
X107122441Y-91979494D01*
X107122446Y-91979500D01*
X107122447Y-91979501D01*
X107250499Y-92107553D01*
X107397006Y-92213996D01*
X107558361Y-92296211D01*
X107730591Y-92352171D01*
X107909454Y-92380500D01*
X107909458Y-92380500D01*
X108090542Y-92380500D01*
X108090546Y-92380500D01*
X108269409Y-92352171D01*
X108441639Y-92296211D01*
X108602994Y-92213996D01*
X108749501Y-92107553D01*
X108877553Y-91979501D01*
X108983996Y-91832994D01*
X109066211Y-91671639D01*
X109122171Y-91499409D01*
X109122834Y-91495223D01*
X109154204Y-91424762D01*
X109216602Y-91379427D01*
X109293307Y-91371364D01*
X109363768Y-91402734D01*
X109409103Y-91465132D01*
X109417166Y-91495223D01*
X109417828Y-91499408D01*
X109473789Y-91671639D01*
X109556005Y-91832995D01*
X109556005Y-91832996D01*
X109595594Y-91887485D01*
X109662447Y-91979501D01*
X109790499Y-92107553D01*
X109937006Y-92213996D01*
X110098361Y-92296211D01*
X110270591Y-92352171D01*
X110449454Y-92380500D01*
X110449458Y-92380500D01*
X110630542Y-92380500D01*
X110630546Y-92380500D01*
X110809409Y-92352171D01*
X110981639Y-92296211D01*
X111142994Y-92213996D01*
X111289501Y-92107553D01*
X111417553Y-91979501D01*
X111523996Y-91832994D01*
X111606211Y-91671639D01*
X111662171Y-91499409D01*
X111662834Y-91495223D01*
X111694204Y-91424762D01*
X111756602Y-91379427D01*
X111833307Y-91371364D01*
X111903768Y-91402734D01*
X111949103Y-91465132D01*
X111957166Y-91495223D01*
X111957828Y-91499408D01*
X112013789Y-91671639D01*
X112096005Y-91832995D01*
X112096005Y-91832996D01*
X112135594Y-91887485D01*
X112202447Y-91979501D01*
X112330499Y-92107553D01*
X112477006Y-92213996D01*
X112638361Y-92296211D01*
X112810591Y-92352171D01*
X112989454Y-92380500D01*
X112989458Y-92380500D01*
X113170542Y-92380500D01*
X113170546Y-92380500D01*
X113349409Y-92352171D01*
X113521639Y-92296211D01*
X113682994Y-92213996D01*
X113829501Y-92107553D01*
X113957553Y-91979501D01*
X114063996Y-91832994D01*
X114146211Y-91671639D01*
X114202171Y-91499409D01*
X114202834Y-91495223D01*
X114234204Y-91424762D01*
X114296602Y-91379427D01*
X114373307Y-91371364D01*
X114443768Y-91402734D01*
X114489103Y-91465132D01*
X114497166Y-91495223D01*
X114497828Y-91499408D01*
X114553789Y-91671639D01*
X114636005Y-91832995D01*
X114636005Y-91832996D01*
X114675594Y-91887485D01*
X114742447Y-91979501D01*
X114870499Y-92107553D01*
X115017006Y-92213996D01*
X115178361Y-92296211D01*
X115350591Y-92352171D01*
X115529454Y-92380500D01*
X115529458Y-92380500D01*
X115710542Y-92380500D01*
X115710546Y-92380500D01*
X115889409Y-92352171D01*
X116061639Y-92296211D01*
X116222994Y-92213996D01*
X116369501Y-92107553D01*
X116497553Y-91979501D01*
X116520858Y-91947424D01*
X116540456Y-91920450D01*
X116600395Y-91871911D01*
X116676574Y-91859845D01*
X116748579Y-91887485D01*
X116797118Y-91947424D01*
X116810000Y-92008029D01*
X116810000Y-92127822D01*
X116810001Y-92127842D01*
X116816401Y-92187377D01*
X116866645Y-92322084D01*
X116866650Y-92322094D01*
X116952809Y-92437187D01*
X116952812Y-92437190D01*
X117067905Y-92523349D01*
X117067915Y-92523354D01*
X117202623Y-92573598D01*
X117202621Y-92573598D01*
X117262157Y-92579998D01*
X117262177Y-92580000D01*
X117910000Y-92580000D01*
X117910000Y-91674560D01*
X117963147Y-91705245D01*
X118092857Y-91740000D01*
X118227143Y-91740000D01*
X118356853Y-91705245D01*
X118410000Y-91674560D01*
X118410000Y-92580000D01*
X119057823Y-92580000D01*
X119057842Y-92579998D01*
X119117377Y-92573598D01*
X119252084Y-92523354D01*
X119252094Y-92523349D01*
X119367187Y-92437190D01*
X119367190Y-92437187D01*
X119453349Y-92322094D01*
X119453354Y-92322084D01*
X119503598Y-92187377D01*
X119509998Y-92127842D01*
X119510000Y-92127822D01*
X119510000Y-92008029D01*
X119529962Y-91933529D01*
X119584500Y-91878991D01*
X119659000Y-91859029D01*
X119733500Y-91878991D01*
X119779544Y-91920450D01*
X119822441Y-91979494D01*
X119822446Y-91979500D01*
X119822447Y-91979501D01*
X119950499Y-92107553D01*
X120097006Y-92213996D01*
X120258361Y-92296211D01*
X120430591Y-92352171D01*
X120609454Y-92380500D01*
X120609458Y-92380500D01*
X120790542Y-92380500D01*
X120790546Y-92380500D01*
X120969409Y-92352171D01*
X121141639Y-92296211D01*
X121302994Y-92213996D01*
X121449501Y-92107553D01*
X121577553Y-91979501D01*
X121683996Y-91832994D01*
X121766211Y-91671639D01*
X121822171Y-91499409D01*
X121822834Y-91495223D01*
X121854204Y-91424762D01*
X121916602Y-91379427D01*
X121993307Y-91371364D01*
X122063768Y-91402734D01*
X122109103Y-91465132D01*
X122117166Y-91495223D01*
X122117828Y-91499408D01*
X122173789Y-91671639D01*
X122256005Y-91832995D01*
X122256005Y-91832996D01*
X122295594Y-91887485D01*
X122362447Y-91979501D01*
X122490499Y-92107553D01*
X122637006Y-92213996D01*
X122798361Y-92296211D01*
X122970591Y-92352171D01*
X123149454Y-92380500D01*
X123149458Y-92380500D01*
X123330542Y-92380500D01*
X123330546Y-92380500D01*
X123509409Y-92352171D01*
X123681639Y-92296211D01*
X123842994Y-92213996D01*
X123989501Y-92107553D01*
X124117553Y-91979501D01*
X124223996Y-91832994D01*
X124306211Y-91671639D01*
X124362171Y-91499409D01*
X124362834Y-91495223D01*
X124394204Y-91424762D01*
X124456602Y-91379427D01*
X124533307Y-91371364D01*
X124603768Y-91402734D01*
X124649103Y-91465132D01*
X124657166Y-91495223D01*
X124657828Y-91499408D01*
X124713789Y-91671639D01*
X124796005Y-91832995D01*
X124796005Y-91832996D01*
X124835594Y-91887485D01*
X124902447Y-91979501D01*
X125030499Y-92107553D01*
X125177006Y-92213996D01*
X125338361Y-92296211D01*
X125510591Y-92352171D01*
X125689454Y-92380500D01*
X125689458Y-92380500D01*
X125870542Y-92380500D01*
X125870546Y-92380500D01*
X126049409Y-92352171D01*
X126221639Y-92296211D01*
X126382994Y-92213996D01*
X126529501Y-92107553D01*
X126657553Y-91979501D01*
X126763996Y-91832994D01*
X126846211Y-91671639D01*
X126902171Y-91499409D01*
X126902834Y-91495223D01*
X126934204Y-91424762D01*
X126996602Y-91379427D01*
X127073307Y-91371364D01*
X127143768Y-91402734D01*
X127189103Y-91465132D01*
X127197166Y-91495223D01*
X127197828Y-91499408D01*
X127253789Y-91671639D01*
X127336005Y-91832995D01*
X127336005Y-91832996D01*
X127375594Y-91887485D01*
X127442447Y-91979501D01*
X127570499Y-92107553D01*
X127717006Y-92213996D01*
X127878361Y-92296211D01*
X128050591Y-92352171D01*
X128229454Y-92380500D01*
X128229458Y-92380500D01*
X128410542Y-92380500D01*
X128410546Y-92380500D01*
X128589409Y-92352171D01*
X128761639Y-92296211D01*
X128922994Y-92213996D01*
X129069501Y-92107553D01*
X129197553Y-91979501D01*
X129220858Y-91947424D01*
X129240456Y-91920450D01*
X129300395Y-91871911D01*
X129376574Y-91859845D01*
X129448579Y-91887485D01*
X129497118Y-91947424D01*
X129510000Y-92008029D01*
X129510000Y-92127822D01*
X129510001Y-92127842D01*
X129516401Y-92187377D01*
X129566645Y-92322084D01*
X129566650Y-92322094D01*
X129652809Y-92437187D01*
X129652812Y-92437190D01*
X129767905Y-92523349D01*
X129767915Y-92523354D01*
X129902623Y-92573598D01*
X129902621Y-92573598D01*
X129962157Y-92579998D01*
X129962177Y-92580000D01*
X130610000Y-92580000D01*
X130610000Y-91674560D01*
X130663147Y-91705245D01*
X130792857Y-91740000D01*
X130927143Y-91740000D01*
X131056853Y-91705245D01*
X131110000Y-91674560D01*
X131110000Y-92580000D01*
X131757823Y-92580000D01*
X131757842Y-92579998D01*
X131817377Y-92573598D01*
X131952084Y-92523354D01*
X131952094Y-92523349D01*
X132067187Y-92437190D01*
X132067190Y-92437187D01*
X132153349Y-92322094D01*
X132153354Y-92322084D01*
X132203598Y-92187377D01*
X132209998Y-92127842D01*
X132210000Y-92127822D01*
X132210000Y-92008029D01*
X132229962Y-91933529D01*
X132284500Y-91878991D01*
X132359000Y-91859029D01*
X132433500Y-91878991D01*
X132479544Y-91920450D01*
X132522441Y-91979494D01*
X132522446Y-91979500D01*
X132522447Y-91979501D01*
X132650499Y-92107553D01*
X132797006Y-92213996D01*
X132958361Y-92296211D01*
X133130591Y-92352171D01*
X133309454Y-92380500D01*
X133309458Y-92380500D01*
X133490542Y-92380500D01*
X133490546Y-92380500D01*
X133669409Y-92352171D01*
X133841639Y-92296211D01*
X134002994Y-92213996D01*
X134149501Y-92107553D01*
X134277553Y-91979501D01*
X134383996Y-91832994D01*
X134466211Y-91671639D01*
X134522171Y-91499409D01*
X134522834Y-91495223D01*
X134554204Y-91424762D01*
X134616602Y-91379427D01*
X134693307Y-91371364D01*
X134763768Y-91402734D01*
X134809103Y-91465132D01*
X134817166Y-91495223D01*
X134817828Y-91499408D01*
X134873789Y-91671639D01*
X134956005Y-91832995D01*
X134956005Y-91832996D01*
X134995594Y-91887485D01*
X135062447Y-91979501D01*
X135190499Y-92107553D01*
X135337006Y-92213996D01*
X135443144Y-92268076D01*
X135500462Y-92319685D01*
X135524296Y-92393038D01*
X135524500Y-92400836D01*
X135524500Y-93993982D01*
X135524500Y-94106018D01*
X135553497Y-94214237D01*
X135566072Y-94236018D01*
X135609512Y-94311259D01*
X135609513Y-94311260D01*
X135609515Y-94311263D01*
X138930860Y-97632608D01*
X138969423Y-97699401D01*
X138974500Y-97737965D01*
X138974500Y-104543982D01*
X138974500Y-104656018D01*
X139003497Y-104764237D01*
X139003498Y-104764238D01*
X139059512Y-104861259D01*
X139059513Y-104861260D01*
X139059515Y-104861263D01*
X140738737Y-106540485D01*
X140835763Y-106596503D01*
X140943982Y-106625500D01*
X141056019Y-106625500D01*
X149162034Y-106625500D01*
X149236534Y-106645462D01*
X149267393Y-106669141D01*
X149730859Y-107132607D01*
X149769423Y-107199402D01*
X149774500Y-107237966D01*
X149774500Y-108157728D01*
X149754538Y-108232228D01*
X149700000Y-108286766D01*
X149625500Y-108306728D01*
X149551000Y-108286766D01*
X149520141Y-108263087D01*
X149389502Y-108132448D01*
X149389501Y-108132447D01*
X149242994Y-108026004D01*
X149081639Y-107943789D01*
X148909409Y-107887829D01*
X148730546Y-107859500D01*
X148549454Y-107859500D01*
X148370591Y-107887829D01*
X148198360Y-107943789D01*
X148037004Y-108026005D01*
X148037003Y-108026005D01*
X147890500Y-108132446D01*
X147890497Y-108132448D01*
X147762448Y-108260497D01*
X147762446Y-108260500D01*
X147656005Y-108407003D01*
X147656005Y-108407004D01*
X147573789Y-108568360D01*
X147517827Y-108740595D01*
X147517165Y-108744779D01*
X147485794Y-108815238D01*
X147423396Y-108860573D01*
X147346690Y-108868634D01*
X147276231Y-108837263D01*
X147230896Y-108774865D01*
X147222835Y-108744779D01*
X147222172Y-108740595D01*
X147207960Y-108696853D01*
X147166211Y-108568361D01*
X147083996Y-108407006D01*
X146977553Y-108260499D01*
X146849501Y-108132447D01*
X146702994Y-108026004D01*
X146541639Y-107943789D01*
X146369409Y-107887829D01*
X146190546Y-107859500D01*
X146009454Y-107859500D01*
X145830591Y-107887829D01*
X145658360Y-107943789D01*
X145497004Y-108026005D01*
X145497003Y-108026005D01*
X145350500Y-108132446D01*
X145350497Y-108132448D01*
X145222448Y-108260497D01*
X145222446Y-108260500D01*
X145179544Y-108319550D01*
X145119604Y-108368088D01*
X145043425Y-108380154D01*
X144971420Y-108352514D01*
X144922882Y-108292574D01*
X144910000Y-108231970D01*
X144910000Y-108112177D01*
X144909998Y-108112157D01*
X144903598Y-108052622D01*
X144853354Y-107917915D01*
X144853349Y-107917905D01*
X144767190Y-107802812D01*
X144767187Y-107802809D01*
X144652094Y-107716650D01*
X144652084Y-107716645D01*
X144517376Y-107666401D01*
X144517378Y-107666401D01*
X144457842Y-107660001D01*
X144457823Y-107660000D01*
X143810000Y-107660000D01*
X143810000Y-108565439D01*
X143756853Y-108534755D01*
X143627143Y-108500000D01*
X143492857Y-108500000D01*
X143363147Y-108534755D01*
X143310000Y-108565439D01*
X143310000Y-107660000D01*
X142662177Y-107660000D01*
X142662157Y-107660001D01*
X142602622Y-107666401D01*
X142467915Y-107716645D01*
X142467905Y-107716650D01*
X142352812Y-107802809D01*
X142352809Y-107802812D01*
X142266650Y-107917905D01*
X142266645Y-107917915D01*
X142216401Y-108052622D01*
X142210001Y-108112157D01*
X142210000Y-108112177D01*
X142210000Y-108231970D01*
X142190038Y-108306470D01*
X142135500Y-108361008D01*
X142061000Y-108380970D01*
X141986500Y-108361008D01*
X141940456Y-108319550D01*
X141930953Y-108306470D01*
X141897553Y-108260499D01*
X141769501Y-108132447D01*
X141622994Y-108026004D01*
X141461639Y-107943789D01*
X141289409Y-107887829D01*
X141110546Y-107859500D01*
X140929454Y-107859500D01*
X140750591Y-107887829D01*
X140578360Y-107943789D01*
X140417004Y-108026005D01*
X140417003Y-108026005D01*
X140270500Y-108132446D01*
X140270497Y-108132448D01*
X140142448Y-108260497D01*
X140142446Y-108260500D01*
X140036005Y-108407003D01*
X140036005Y-108407004D01*
X139953789Y-108568360D01*
X139897827Y-108740595D01*
X139897165Y-108744779D01*
X139865794Y-108815238D01*
X139803396Y-108860573D01*
X139726690Y-108868634D01*
X139656231Y-108837263D01*
X139610896Y-108774865D01*
X139602835Y-108744779D01*
X139602172Y-108740595D01*
X139587960Y-108696853D01*
X139546211Y-108568361D01*
X139463996Y-108407006D01*
X139357553Y-108260499D01*
X139229501Y-108132447D01*
X139082994Y-108026004D01*
X138921639Y-107943789D01*
X138749409Y-107887829D01*
X138570546Y-107859500D01*
X138389454Y-107859500D01*
X138210591Y-107887829D01*
X138038360Y-107943789D01*
X137877004Y-108026005D01*
X137877003Y-108026005D01*
X137730500Y-108132446D01*
X137730497Y-108132448D01*
X137602448Y-108260497D01*
X137602446Y-108260500D01*
X137496005Y-108407003D01*
X137496005Y-108407004D01*
X137413789Y-108568360D01*
X137357827Y-108740595D01*
X137357165Y-108744779D01*
X137325794Y-108815238D01*
X137263396Y-108860573D01*
X137186690Y-108868634D01*
X137116231Y-108837263D01*
X137070896Y-108774865D01*
X137062835Y-108744779D01*
X137062172Y-108740595D01*
X137047960Y-108696853D01*
X137006211Y-108568361D01*
X136923996Y-108407006D01*
X136817553Y-108260499D01*
X136689501Y-108132447D01*
X136542994Y-108026004D01*
X136381639Y-107943789D01*
X136209409Y-107887829D01*
X136030546Y-107859500D01*
X135849454Y-107859500D01*
X135670591Y-107887829D01*
X135498360Y-107943789D01*
X135337004Y-108026005D01*
X135337003Y-108026005D01*
X135190500Y-108132446D01*
X135190497Y-108132448D01*
X135062448Y-108260497D01*
X135062446Y-108260500D01*
X134956005Y-108407003D01*
X134956005Y-108407004D01*
X134873789Y-108568360D01*
X134817827Y-108740595D01*
X134817165Y-108744779D01*
X134785794Y-108815238D01*
X134723396Y-108860573D01*
X134646690Y-108868634D01*
X134576231Y-108837263D01*
X134530896Y-108774865D01*
X134522835Y-108744779D01*
X134522172Y-108740595D01*
X134507960Y-108696853D01*
X134466211Y-108568361D01*
X134383996Y-108407006D01*
X134277553Y-108260499D01*
X134149501Y-108132447D01*
X134002994Y-108026004D01*
X133841639Y-107943789D01*
X133669409Y-107887829D01*
X133490546Y-107859500D01*
X133309454Y-107859500D01*
X133130591Y-107887829D01*
X132958360Y-107943789D01*
X132797004Y-108026005D01*
X132797003Y-108026005D01*
X132650500Y-108132446D01*
X132650497Y-108132448D01*
X132522448Y-108260497D01*
X132522446Y-108260500D01*
X132479544Y-108319550D01*
X132419604Y-108368088D01*
X132343425Y-108380154D01*
X132271420Y-108352514D01*
X132222882Y-108292574D01*
X132210000Y-108231970D01*
X132210000Y-108112177D01*
X132209998Y-108112157D01*
X132203598Y-108052622D01*
X132153354Y-107917915D01*
X132153349Y-107917905D01*
X132067190Y-107802812D01*
X132067187Y-107802809D01*
X131952094Y-107716650D01*
X131952084Y-107716645D01*
X131817376Y-107666401D01*
X131817378Y-107666401D01*
X131757842Y-107660001D01*
X131757823Y-107660000D01*
X131110000Y-107660000D01*
X131110000Y-108565439D01*
X131056853Y-108534755D01*
X130927143Y-108500000D01*
X130792857Y-108500000D01*
X130663147Y-108534755D01*
X130610000Y-108565439D01*
X130610000Y-107660000D01*
X129962177Y-107660000D01*
X129962157Y-107660001D01*
X129902622Y-107666401D01*
X129767915Y-107716645D01*
X129767905Y-107716650D01*
X129652812Y-107802809D01*
X129652809Y-107802812D01*
X129566650Y-107917905D01*
X129566645Y-107917915D01*
X129516401Y-108052622D01*
X129510001Y-108112157D01*
X129510000Y-108112177D01*
X129510000Y-108231970D01*
X129490038Y-108306470D01*
X129435500Y-108361008D01*
X129361000Y-108380970D01*
X129286500Y-108361008D01*
X129240456Y-108319550D01*
X129230953Y-108306470D01*
X129197553Y-108260499D01*
X129069501Y-108132447D01*
X128922994Y-108026004D01*
X128761639Y-107943789D01*
X128589409Y-107887829D01*
X128410546Y-107859500D01*
X128229454Y-107859500D01*
X128050591Y-107887829D01*
X127878360Y-107943789D01*
X127717004Y-108026005D01*
X127717003Y-108026005D01*
X127570500Y-108132446D01*
X127570497Y-108132448D01*
X127442448Y-108260497D01*
X127442446Y-108260500D01*
X127336005Y-108407003D01*
X127336005Y-108407004D01*
X127253789Y-108568360D01*
X127197827Y-108740595D01*
X127197165Y-108744779D01*
X127165794Y-108815238D01*
X127103396Y-108860573D01*
X127026690Y-108868634D01*
X126956231Y-108837263D01*
X126910896Y-108774865D01*
X126902835Y-108744779D01*
X126902172Y-108740595D01*
X126887960Y-108696853D01*
X126846211Y-108568361D01*
X126763996Y-108407006D01*
X126657553Y-108260499D01*
X126529501Y-108132447D01*
X126382994Y-108026004D01*
X126221639Y-107943789D01*
X126049409Y-107887829D01*
X125870546Y-107859500D01*
X125689454Y-107859500D01*
X125510591Y-107887829D01*
X125338360Y-107943789D01*
X125177004Y-108026005D01*
X125177003Y-108026005D01*
X125030500Y-108132446D01*
X125030497Y-108132448D01*
X124902448Y-108260497D01*
X124902446Y-108260500D01*
X124796005Y-108407003D01*
X124796005Y-108407004D01*
X124713789Y-108568360D01*
X124657827Y-108740595D01*
X124657165Y-108744779D01*
X124625794Y-108815238D01*
X124563396Y-108860573D01*
X124486690Y-108868634D01*
X124416231Y-108837263D01*
X124370896Y-108774865D01*
X124362835Y-108744779D01*
X124362172Y-108740595D01*
X124347960Y-108696853D01*
X124306211Y-108568361D01*
X124223996Y-108407006D01*
X124117553Y-108260499D01*
X123989501Y-108132447D01*
X123842994Y-108026004D01*
X123681639Y-107943789D01*
X123509409Y-107887829D01*
X123330546Y-107859500D01*
X123149454Y-107859500D01*
X122970591Y-107887829D01*
X122798360Y-107943789D01*
X122637004Y-108026005D01*
X122637003Y-108026005D01*
X122490500Y-108132446D01*
X122490497Y-108132448D01*
X122362448Y-108260497D01*
X122362446Y-108260500D01*
X122256005Y-108407003D01*
X122256005Y-108407004D01*
X122173789Y-108568360D01*
X122117827Y-108740595D01*
X122117165Y-108744779D01*
X122085794Y-108815238D01*
X122023396Y-108860573D01*
X121946690Y-108868634D01*
X121876231Y-108837263D01*
X121830896Y-108774865D01*
X121822835Y-108744779D01*
X121822172Y-108740595D01*
X121807960Y-108696853D01*
X121766211Y-108568361D01*
X121683996Y-108407006D01*
X121577553Y-108260499D01*
X121449501Y-108132447D01*
X121302994Y-108026004D01*
X121141639Y-107943789D01*
X120969409Y-107887829D01*
X120790546Y-107859500D01*
X120609454Y-107859500D01*
X120430591Y-107887829D01*
X120258360Y-107943789D01*
X120097004Y-108026005D01*
X120097003Y-108026005D01*
X119950500Y-108132446D01*
X119950497Y-108132448D01*
X119822448Y-108260497D01*
X119822446Y-108260500D01*
X119779544Y-108319550D01*
X119719604Y-108368088D01*
X119643425Y-108380154D01*
X119571420Y-108352514D01*
X119522882Y-108292574D01*
X119510000Y-108231970D01*
X119510000Y-108112177D01*
X119509998Y-108112157D01*
X119503598Y-108052622D01*
X119453354Y-107917915D01*
X119453349Y-107917905D01*
X119367190Y-107802812D01*
X119367187Y-107802809D01*
X119252094Y-107716650D01*
X119252084Y-107716645D01*
X119117376Y-107666401D01*
X119117378Y-107666401D01*
X119057842Y-107660001D01*
X119057823Y-107660000D01*
X118410000Y-107660000D01*
X118410000Y-108565439D01*
X118356853Y-108534755D01*
X118227143Y-108500000D01*
X118092857Y-108500000D01*
X117963147Y-108534755D01*
X117910000Y-108565439D01*
X117910000Y-107660000D01*
X117262177Y-107660000D01*
X117262157Y-107660001D01*
X117202622Y-107666401D01*
X117067915Y-107716645D01*
X117067905Y-107716650D01*
X116952812Y-107802809D01*
X116952809Y-107802812D01*
X116866650Y-107917905D01*
X116866645Y-107917915D01*
X116816401Y-108052622D01*
X116810001Y-108112157D01*
X116810000Y-108112177D01*
X116810000Y-108231970D01*
X116790038Y-108306470D01*
X116735500Y-108361008D01*
X116661000Y-108380970D01*
X116586500Y-108361008D01*
X116540456Y-108319550D01*
X116530953Y-108306470D01*
X116497553Y-108260499D01*
X116369501Y-108132447D01*
X116222994Y-108026004D01*
X116061639Y-107943789D01*
X115889409Y-107887829D01*
X115710546Y-107859500D01*
X115529454Y-107859500D01*
X115350591Y-107887829D01*
X115178360Y-107943789D01*
X115017004Y-108026005D01*
X115017003Y-108026005D01*
X114870500Y-108132446D01*
X114870497Y-108132448D01*
X114742448Y-108260497D01*
X114742446Y-108260500D01*
X114636005Y-108407003D01*
X114636005Y-108407004D01*
X114553789Y-108568360D01*
X114497827Y-108740595D01*
X114497165Y-108744779D01*
X114465794Y-108815238D01*
X114403396Y-108860573D01*
X114326690Y-108868634D01*
X114256231Y-108837263D01*
X114210896Y-108774865D01*
X114202835Y-108744779D01*
X114202172Y-108740595D01*
X114187960Y-108696853D01*
X114146211Y-108568361D01*
X114063996Y-108407006D01*
X113957553Y-108260499D01*
X113829501Y-108132447D01*
X113682994Y-108026004D01*
X113521639Y-107943789D01*
X113349409Y-107887829D01*
X113170546Y-107859500D01*
X112989454Y-107859500D01*
X112810591Y-107887829D01*
X112638360Y-107943789D01*
X112477004Y-108026005D01*
X112477003Y-108026005D01*
X112330500Y-108132446D01*
X112330497Y-108132448D01*
X112202448Y-108260497D01*
X112202446Y-108260500D01*
X112096005Y-108407003D01*
X112096005Y-108407004D01*
X112013789Y-108568360D01*
X111957827Y-108740595D01*
X111957165Y-108744779D01*
X111925794Y-108815238D01*
X111863396Y-108860573D01*
X111786690Y-108868634D01*
X111716231Y-108837263D01*
X111670896Y-108774865D01*
X111662835Y-108744779D01*
X111662172Y-108740595D01*
X111647960Y-108696853D01*
X111606211Y-108568361D01*
X111523996Y-108407006D01*
X111417553Y-108260499D01*
X111289501Y-108132447D01*
X111142994Y-108026004D01*
X110981639Y-107943789D01*
X110809409Y-107887829D01*
X110630546Y-107859500D01*
X110449454Y-107859500D01*
X110270591Y-107887829D01*
X110098360Y-107943789D01*
X109937004Y-108026005D01*
X109937003Y-108026005D01*
X109790500Y-108132446D01*
X109790497Y-108132448D01*
X109662448Y-108260497D01*
X109662446Y-108260500D01*
X109556005Y-108407003D01*
X109556005Y-108407004D01*
X109473789Y-108568360D01*
X109417827Y-108740595D01*
X109417165Y-108744779D01*
X109385794Y-108815238D01*
X109323396Y-108860573D01*
X109246690Y-108868634D01*
X109176231Y-108837263D01*
X109130896Y-108774865D01*
X109122835Y-108744779D01*
X109122172Y-108740595D01*
X109107960Y-108696853D01*
X109066211Y-108568361D01*
X108983996Y-108407006D01*
X108877553Y-108260499D01*
X108749501Y-108132447D01*
X108602994Y-108026004D01*
X108441639Y-107943789D01*
X108269409Y-107887829D01*
X108090546Y-107859500D01*
X107909454Y-107859500D01*
X107730591Y-107887829D01*
X107558360Y-107943789D01*
X107397004Y-108026005D01*
X107397003Y-108026005D01*
X107250500Y-108132446D01*
X107250497Y-108132448D01*
X107122448Y-108260497D01*
X107122446Y-108260500D01*
X107079544Y-108319550D01*
X107019604Y-108368088D01*
X106943425Y-108380154D01*
X106871420Y-108352514D01*
X106822882Y-108292574D01*
X106810000Y-108231970D01*
X106810000Y-108112177D01*
X106809998Y-108112157D01*
X106803598Y-108052622D01*
X106753354Y-107917915D01*
X106753349Y-107917905D01*
X106667190Y-107802812D01*
X106667187Y-107802809D01*
X106552094Y-107716650D01*
X106552084Y-107716645D01*
X106417376Y-107666401D01*
X106417378Y-107666401D01*
X106357842Y-107660001D01*
X106357823Y-107660000D01*
X105710000Y-107660000D01*
X105710000Y-108565439D01*
X105656853Y-108534755D01*
X105527143Y-108500000D01*
X105392857Y-108500000D01*
X105263147Y-108534755D01*
X105210000Y-108565439D01*
X105210000Y-107660000D01*
X104562177Y-107660000D01*
X104562157Y-107660001D01*
X104502622Y-107666401D01*
X104367915Y-107716645D01*
X104367905Y-107716650D01*
X104252812Y-107802809D01*
X104252809Y-107802812D01*
X104166650Y-107917905D01*
X104166645Y-107917915D01*
X104116401Y-108052622D01*
X104110001Y-108112157D01*
X104110000Y-108112177D01*
X104110000Y-108231970D01*
X104090038Y-108306470D01*
X104035500Y-108361008D01*
X103961000Y-108380970D01*
X103886500Y-108361008D01*
X103840456Y-108319550D01*
X103830953Y-108306470D01*
X103797553Y-108260499D01*
X103669501Y-108132447D01*
X103522994Y-108026004D01*
X103361639Y-107943789D01*
X103189409Y-107887829D01*
X103010546Y-107859500D01*
X102829454Y-107859500D01*
X102650591Y-107887829D01*
X102478360Y-107943789D01*
X102317004Y-108026005D01*
X102317003Y-108026005D01*
X102170500Y-108132446D01*
X102170497Y-108132448D01*
X102042448Y-108260497D01*
X102042446Y-108260500D01*
X101936005Y-108407003D01*
X101936005Y-108407004D01*
X101853789Y-108568360D01*
X101797827Y-108740595D01*
X101797165Y-108744779D01*
X101765794Y-108815238D01*
X101703396Y-108860573D01*
X101626690Y-108868634D01*
X101556231Y-108837263D01*
X101510896Y-108774865D01*
X101502835Y-108744779D01*
X101502172Y-108740595D01*
X101487960Y-108696853D01*
X101446211Y-108568361D01*
X101363996Y-108407006D01*
X101257553Y-108260499D01*
X101129501Y-108132447D01*
X100982994Y-108026004D01*
X100821639Y-107943789D01*
X100649409Y-107887829D01*
X100470546Y-107859500D01*
X100289454Y-107859500D01*
X100110591Y-107887829D01*
X99938360Y-107943789D01*
X99777004Y-108026005D01*
X99777003Y-108026005D01*
X99630500Y-108132446D01*
X99630497Y-108132448D01*
X99502448Y-108260497D01*
X99502446Y-108260500D01*
X99396005Y-108407003D01*
X99396005Y-108407004D01*
X99313789Y-108568360D01*
X99313789Y-108568361D01*
X99257829Y-108740591D01*
X99229500Y-108919454D01*
X99229500Y-109100546D01*
X99252400Y-109245132D01*
X99257829Y-109279408D01*
X99313789Y-109451639D01*
X99396005Y-109612995D01*
X99396005Y-109612996D01*
X99435594Y-109667485D01*
X99502447Y-109759501D01*
X99630499Y-109887553D01*
X99777006Y-109993996D01*
X99938361Y-110076211D01*
X100110591Y-110132171D01*
X100289454Y-110160500D01*
X100289458Y-110160500D01*
X100470542Y-110160500D01*
X100470546Y-110160500D01*
X100649409Y-110132171D01*
X100821639Y-110076211D01*
X100982994Y-109993996D01*
X101129501Y-109887553D01*
X101257553Y-109759501D01*
X101363996Y-109612994D01*
X101446211Y-109451639D01*
X101502171Y-109279409D01*
X101502834Y-109275223D01*
X101534204Y-109204762D01*
X101596602Y-109159427D01*
X101673307Y-109151364D01*
X101743768Y-109182734D01*
X101789103Y-109245132D01*
X101797166Y-109275223D01*
X101797828Y-109279408D01*
X101853789Y-109451639D01*
X101936005Y-109612995D01*
X101936005Y-109612996D01*
X101975594Y-109667485D01*
X102042447Y-109759501D01*
X102170499Y-109887553D01*
X102317006Y-109993996D01*
X102478361Y-110076211D01*
X102650591Y-110132171D01*
X102829454Y-110160500D01*
X102829458Y-110160500D01*
X103010542Y-110160500D01*
X103010546Y-110160500D01*
X103189409Y-110132171D01*
X103361639Y-110076211D01*
X103522994Y-109993996D01*
X103669501Y-109887553D01*
X103797553Y-109759501D01*
X103827452Y-109718349D01*
X103840456Y-109700450D01*
X103900395Y-109651911D01*
X103976574Y-109639845D01*
X104048579Y-109667485D01*
X104097118Y-109727424D01*
X104110000Y-109788029D01*
X104110000Y-109907822D01*
X104110001Y-109907842D01*
X104116401Y-109967377D01*
X104166645Y-110102084D01*
X104166650Y-110102094D01*
X104252809Y-110217187D01*
X104252812Y-110217190D01*
X104367905Y-110303349D01*
X104367915Y-110303354D01*
X104502623Y-110353598D01*
X104502621Y-110353598D01*
X104562157Y-110359998D01*
X104562177Y-110360000D01*
X105210000Y-110360000D01*
X105210000Y-109454560D01*
X105263147Y-109485245D01*
X105392857Y-109520000D01*
X105527143Y-109520000D01*
X105656853Y-109485245D01*
X105710000Y-109454560D01*
X105710000Y-110360000D01*
X106357823Y-110360000D01*
X106357842Y-110359998D01*
X106417377Y-110353598D01*
X106552084Y-110303354D01*
X106552094Y-110303349D01*
X106667187Y-110217190D01*
X106667190Y-110217187D01*
X106753349Y-110102094D01*
X106753354Y-110102084D01*
X106803598Y-109967377D01*
X106809998Y-109907842D01*
X106810000Y-109907822D01*
X106810000Y-109788029D01*
X106829962Y-109713529D01*
X106884500Y-109658991D01*
X106959000Y-109639029D01*
X107033500Y-109658991D01*
X107079544Y-109700450D01*
X107122441Y-109759494D01*
X107122446Y-109759500D01*
X107122447Y-109759501D01*
X107250499Y-109887553D01*
X107397006Y-109993996D01*
X107558361Y-110076211D01*
X107730591Y-110132171D01*
X107909454Y-110160500D01*
X107909458Y-110160500D01*
X108090542Y-110160500D01*
X108090546Y-110160500D01*
X108269409Y-110132171D01*
X108441639Y-110076211D01*
X108602994Y-109993996D01*
X108749501Y-109887553D01*
X108877553Y-109759501D01*
X108983996Y-109612994D01*
X109066211Y-109451639D01*
X109122171Y-109279409D01*
X109122834Y-109275223D01*
X109154204Y-109204762D01*
X109216602Y-109159427D01*
X109293307Y-109151364D01*
X109363768Y-109182734D01*
X109409103Y-109245132D01*
X109417166Y-109275223D01*
X109417828Y-109279408D01*
X109473789Y-109451639D01*
X109556005Y-109612995D01*
X109556005Y-109612996D01*
X109595594Y-109667485D01*
X109662447Y-109759501D01*
X109790499Y-109887553D01*
X109937006Y-109993996D01*
X110098361Y-110076211D01*
X110270591Y-110132171D01*
X110449454Y-110160500D01*
X110449458Y-110160500D01*
X110630542Y-110160500D01*
X110630546Y-110160500D01*
X110809409Y-110132171D01*
X110981639Y-110076211D01*
X111142994Y-109993996D01*
X111289501Y-109887553D01*
X111417553Y-109759501D01*
X111523996Y-109612994D01*
X111606211Y-109451639D01*
X111662171Y-109279409D01*
X111662834Y-109275223D01*
X111694204Y-109204762D01*
X111756602Y-109159427D01*
X111833307Y-109151364D01*
X111903768Y-109182734D01*
X111949103Y-109245132D01*
X111957166Y-109275223D01*
X111957828Y-109279408D01*
X112013789Y-109451639D01*
X112096005Y-109612995D01*
X112096005Y-109612996D01*
X112135594Y-109667485D01*
X112202447Y-109759501D01*
X112330499Y-109887553D01*
X112477006Y-109993996D01*
X112638361Y-110076211D01*
X112810591Y-110132171D01*
X112989454Y-110160500D01*
X112989458Y-110160500D01*
X113170542Y-110160500D01*
X113170546Y-110160500D01*
X113349409Y-110132171D01*
X113521639Y-110076211D01*
X113682994Y-109993996D01*
X113829501Y-109887553D01*
X113957553Y-109759501D01*
X114063996Y-109612994D01*
X114146211Y-109451639D01*
X114202171Y-109279409D01*
X114202834Y-109275223D01*
X114234204Y-109204762D01*
X114296602Y-109159427D01*
X114373307Y-109151364D01*
X114443768Y-109182734D01*
X114489103Y-109245132D01*
X114497166Y-109275223D01*
X114497828Y-109279408D01*
X114553789Y-109451639D01*
X114636005Y-109612995D01*
X114636005Y-109612996D01*
X114675594Y-109667485D01*
X114742447Y-109759501D01*
X114870499Y-109887553D01*
X115017006Y-109993996D01*
X115178361Y-110076211D01*
X115350591Y-110132171D01*
X115529454Y-110160500D01*
X115529458Y-110160500D01*
X115710542Y-110160500D01*
X115710546Y-110160500D01*
X115889409Y-110132171D01*
X116061639Y-110076211D01*
X116222994Y-109993996D01*
X116369501Y-109887553D01*
X116497553Y-109759501D01*
X116527452Y-109718349D01*
X116540456Y-109700450D01*
X116600395Y-109651911D01*
X116676574Y-109639845D01*
X116748579Y-109667485D01*
X116797118Y-109727424D01*
X116810000Y-109788029D01*
X116810000Y-109907822D01*
X116810001Y-109907842D01*
X116816401Y-109967377D01*
X116866645Y-110102084D01*
X116866650Y-110102094D01*
X116952809Y-110217187D01*
X116952812Y-110217190D01*
X117067905Y-110303349D01*
X117067915Y-110303354D01*
X117202623Y-110353598D01*
X117202621Y-110353598D01*
X117262157Y-110359998D01*
X117262177Y-110360000D01*
X117910000Y-110360000D01*
X117910000Y-109454560D01*
X117963147Y-109485245D01*
X118092857Y-109520000D01*
X118227143Y-109520000D01*
X118356853Y-109485245D01*
X118410000Y-109454560D01*
X118410000Y-110360000D01*
X119057823Y-110360000D01*
X119057842Y-110359998D01*
X119117377Y-110353598D01*
X119252084Y-110303354D01*
X119252094Y-110303349D01*
X119367187Y-110217190D01*
X119367190Y-110217187D01*
X119453349Y-110102094D01*
X119453354Y-110102084D01*
X119503598Y-109967377D01*
X119509998Y-109907842D01*
X119510000Y-109907822D01*
X119510000Y-109788029D01*
X119529962Y-109713529D01*
X119584500Y-109658991D01*
X119659000Y-109639029D01*
X119733500Y-109658991D01*
X119779544Y-109700450D01*
X119822441Y-109759494D01*
X119822446Y-109759500D01*
X119822447Y-109759501D01*
X119950499Y-109887553D01*
X120097006Y-109993996D01*
X120258361Y-110076211D01*
X120430591Y-110132171D01*
X120609454Y-110160500D01*
X120609458Y-110160500D01*
X120790542Y-110160500D01*
X120790546Y-110160500D01*
X120969409Y-110132171D01*
X121141639Y-110076211D01*
X121302994Y-109993996D01*
X121449501Y-109887553D01*
X121577553Y-109759501D01*
X121683996Y-109612994D01*
X121766211Y-109451639D01*
X121822171Y-109279409D01*
X121822834Y-109275223D01*
X121854204Y-109204762D01*
X121916602Y-109159427D01*
X121993307Y-109151364D01*
X122063768Y-109182734D01*
X122109103Y-109245132D01*
X122117166Y-109275223D01*
X122117828Y-109279408D01*
X122173789Y-109451639D01*
X122256005Y-109612995D01*
X122256005Y-109612996D01*
X122295594Y-109667485D01*
X122362447Y-109759501D01*
X122490499Y-109887553D01*
X122637006Y-109993996D01*
X122798361Y-110076211D01*
X122970591Y-110132171D01*
X123149454Y-110160500D01*
X123149458Y-110160500D01*
X123330542Y-110160500D01*
X123330546Y-110160500D01*
X123509409Y-110132171D01*
X123681639Y-110076211D01*
X123842994Y-109993996D01*
X123989501Y-109887553D01*
X124117553Y-109759501D01*
X124223996Y-109612994D01*
X124306211Y-109451639D01*
X124362171Y-109279409D01*
X124362834Y-109275223D01*
X124394204Y-109204762D01*
X124456602Y-109159427D01*
X124533307Y-109151364D01*
X124603768Y-109182734D01*
X124649103Y-109245132D01*
X124657166Y-109275223D01*
X124657828Y-109279408D01*
X124713789Y-109451639D01*
X124796005Y-109612995D01*
X124796005Y-109612996D01*
X124835594Y-109667485D01*
X124902447Y-109759501D01*
X125030499Y-109887553D01*
X125177006Y-109993996D01*
X125338361Y-110076211D01*
X125510591Y-110132171D01*
X125689454Y-110160500D01*
X125689458Y-110160500D01*
X125870542Y-110160500D01*
X125870546Y-110160500D01*
X126049409Y-110132171D01*
X126221639Y-110076211D01*
X126382994Y-109993996D01*
X126529501Y-109887553D01*
X126657553Y-109759501D01*
X126763996Y-109612994D01*
X126846211Y-109451639D01*
X126902171Y-109279409D01*
X126902834Y-109275223D01*
X126934204Y-109204762D01*
X126996602Y-109159427D01*
X127073307Y-109151364D01*
X127143768Y-109182734D01*
X127189103Y-109245132D01*
X127197166Y-109275223D01*
X127197828Y-109279408D01*
X127253789Y-109451639D01*
X127336005Y-109612995D01*
X127336005Y-109612996D01*
X127375594Y-109667485D01*
X127442447Y-109759501D01*
X127570499Y-109887553D01*
X127717006Y-109993996D01*
X127878361Y-110076211D01*
X128050591Y-110132171D01*
X128229454Y-110160500D01*
X128229458Y-110160500D01*
X128410542Y-110160500D01*
X128410546Y-110160500D01*
X128589409Y-110132171D01*
X128761639Y-110076211D01*
X128922994Y-109993996D01*
X129069501Y-109887553D01*
X129197553Y-109759501D01*
X129227452Y-109718349D01*
X129240456Y-109700450D01*
X129300395Y-109651911D01*
X129376574Y-109639845D01*
X129448579Y-109667485D01*
X129497118Y-109727424D01*
X129510000Y-109788029D01*
X129510000Y-109907822D01*
X129510001Y-109907842D01*
X129516401Y-109967377D01*
X129566645Y-110102084D01*
X129566650Y-110102094D01*
X129652809Y-110217187D01*
X129652812Y-110217190D01*
X129767905Y-110303349D01*
X129767915Y-110303354D01*
X129902623Y-110353598D01*
X129902621Y-110353598D01*
X129962157Y-110359998D01*
X129962177Y-110360000D01*
X130610000Y-110360000D01*
X130610000Y-109454560D01*
X130663147Y-109485245D01*
X130792857Y-109520000D01*
X130927143Y-109520000D01*
X131056853Y-109485245D01*
X131110000Y-109454560D01*
X131110000Y-110360000D01*
X131757823Y-110360000D01*
X131757842Y-110359998D01*
X131817377Y-110353598D01*
X131952084Y-110303354D01*
X131952094Y-110303349D01*
X132067187Y-110217190D01*
X132067190Y-110217187D01*
X132153349Y-110102094D01*
X132153354Y-110102084D01*
X132203598Y-109967377D01*
X132209998Y-109907842D01*
X132210000Y-109907822D01*
X132210000Y-109788029D01*
X132229962Y-109713529D01*
X132284500Y-109658991D01*
X132359000Y-109639029D01*
X132433500Y-109658991D01*
X132479544Y-109700450D01*
X132522441Y-109759494D01*
X132522446Y-109759500D01*
X132522447Y-109759501D01*
X132650499Y-109887553D01*
X132797006Y-109993996D01*
X132958361Y-110076211D01*
X133130591Y-110132171D01*
X133309454Y-110160500D01*
X133309458Y-110160500D01*
X133490542Y-110160500D01*
X133490546Y-110160500D01*
X133669409Y-110132171D01*
X133841639Y-110076211D01*
X134002994Y-109993996D01*
X134149501Y-109887553D01*
X134277553Y-109759501D01*
X134383996Y-109612994D01*
X134466211Y-109451639D01*
X134522171Y-109279409D01*
X134522834Y-109275223D01*
X134554204Y-109204762D01*
X134616602Y-109159427D01*
X134693307Y-109151364D01*
X134763768Y-109182734D01*
X134809103Y-109245132D01*
X134817166Y-109275223D01*
X134817828Y-109279408D01*
X134873789Y-109451639D01*
X134956005Y-109612995D01*
X134956005Y-109612996D01*
X134995594Y-109667485D01*
X135062447Y-109759501D01*
X135190499Y-109887553D01*
X135337006Y-109993996D01*
X135498361Y-110076211D01*
X135670591Y-110132171D01*
X135849454Y-110160500D01*
X135849458Y-110160500D01*
X136030542Y-110160500D01*
X136030546Y-110160500D01*
X136209409Y-110132171D01*
X136381639Y-110076211D01*
X136542994Y-109993996D01*
X136689501Y-109887553D01*
X136817553Y-109759501D01*
X136923996Y-109612994D01*
X137006211Y-109451639D01*
X137062171Y-109279409D01*
X137062834Y-109275223D01*
X137094204Y-109204762D01*
X137156602Y-109159427D01*
X137233307Y-109151364D01*
X137303768Y-109182734D01*
X137349103Y-109245132D01*
X137357166Y-109275223D01*
X137357828Y-109279408D01*
X137413789Y-109451639D01*
X137496005Y-109612995D01*
X137496005Y-109612996D01*
X137535594Y-109667485D01*
X137602447Y-109759501D01*
X137730499Y-109887553D01*
X137877006Y-109993996D01*
X137963145Y-110037886D01*
X138020461Y-110089493D01*
X138044296Y-110162846D01*
X138044500Y-110170645D01*
X138044500Y-111092034D01*
X138039423Y-111110981D01*
X138039423Y-111130598D01*
X138029615Y-111147585D01*
X138024538Y-111166534D01*
X138000859Y-111197393D01*
X137867393Y-111330859D01*
X137800598Y-111369423D01*
X137762034Y-111374500D01*
X124456019Y-111374500D01*
X124343982Y-111374500D01*
X124235763Y-111403497D01*
X124235761Y-111403497D01*
X124235761Y-111403498D01*
X124138740Y-111459512D01*
X122159512Y-113438740D01*
X122103498Y-113535761D01*
X122074500Y-113643980D01*
X122074500Y-120812034D01*
X122054538Y-120886534D01*
X122030859Y-120917393D01*
X118206331Y-124741920D01*
X118147016Y-124778268D01*
X117960787Y-124838778D01*
X117960775Y-124838782D01*
X117778387Y-124931714D01*
X117612787Y-125052028D01*
X117612779Y-125052035D01*
X117468035Y-125196779D01*
X117468030Y-125196785D01*
X117433840Y-125243844D01*
X117373900Y-125292382D01*
X117297721Y-125304447D01*
X117225716Y-125276806D01*
X117192753Y-125243842D01*
X117142659Y-125174893D01*
X117142658Y-125174893D01*
X116402962Y-125914589D01*
X116385925Y-125851007D01*
X116320099Y-125736993D01*
X116227007Y-125643901D01*
X116112993Y-125578075D01*
X116049408Y-125561037D01*
X116789105Y-124821340D01*
X116789105Y-124821339D01*
X116706178Y-124761090D01*
X116706171Y-124761086D01*
X116495805Y-124653898D01*
X116495793Y-124653894D01*
X116271250Y-124580934D01*
X116038049Y-124544000D01*
X115801951Y-124544000D01*
X115568749Y-124580934D01*
X115344206Y-124653894D01*
X115344194Y-124653898D01*
X115133828Y-124761086D01*
X115133823Y-124761089D01*
X115050893Y-124821339D01*
X115790591Y-125561037D01*
X115727007Y-125578075D01*
X115612993Y-125643901D01*
X115519901Y-125736993D01*
X115454075Y-125851007D01*
X115437037Y-125914590D01*
X114724140Y-125201693D01*
X114685576Y-125134898D01*
X114682015Y-125117538D01*
X114680499Y-125106993D01*
X114680499Y-124999136D01*
X114677585Y-124974009D01*
X114649197Y-124909717D01*
X114632206Y-124871235D01*
X114552764Y-124791793D01*
X114449994Y-124746416D01*
X114449991Y-124746415D01*
X114449982Y-124746414D01*
X114424865Y-124743500D01*
X114424859Y-124743500D01*
X112335133Y-124743500D01*
X112310010Y-124746414D01*
X112310007Y-124746415D01*
X112207235Y-124791793D01*
X112127793Y-124871235D01*
X112082416Y-124974005D01*
X112082415Y-124974008D01*
X112082415Y-124974009D01*
X112079500Y-124999135D01*
X112079500Y-124999136D01*
X112079500Y-124999140D01*
X112079500Y-127088866D01*
X112082414Y-127113989D01*
X112082415Y-127113992D01*
X112127793Y-127216764D01*
X112127794Y-127216765D01*
X112207235Y-127296206D01*
X112310009Y-127341585D01*
X112335135Y-127344500D01*
X114424864Y-127344499D01*
X114424866Y-127344499D01*
X114437427Y-127343042D01*
X114449991Y-127341585D01*
X114552765Y-127296206D01*
X114632206Y-127216765D01*
X114658910Y-127156287D01*
X114661824Y-127149687D01*
X114666327Y-127139487D01*
X114677585Y-127113991D01*
X114680500Y-127088865D01*
X114680499Y-126991661D01*
X114700460Y-126917165D01*
X114724140Y-126886305D01*
X115437037Y-126173407D01*
X115454075Y-126236993D01*
X115519901Y-126351007D01*
X115612993Y-126444099D01*
X115727007Y-126509925D01*
X115790590Y-126526962D01*
X115050893Y-127266658D01*
X115133828Y-127326913D01*
X115344194Y-127434101D01*
X115344206Y-127434105D01*
X115568749Y-127507065D01*
X115801951Y-127544000D01*
X116038049Y-127544000D01*
X116271250Y-127507065D01*
X116495793Y-127434105D01*
X116495810Y-127434098D01*
X116706167Y-127326916D01*
X116706172Y-127326913D01*
X116789105Y-127266659D01*
X116789105Y-127266658D01*
X116049409Y-126526962D01*
X116112993Y-126509925D01*
X116227007Y-126444099D01*
X116320099Y-126351007D01*
X116385925Y-126236993D01*
X116402962Y-126173409D01*
X117142658Y-126913105D01*
X117142659Y-126913105D01*
X117192754Y-126844156D01*
X117252693Y-126795618D01*
X117328872Y-126783552D01*
X117400877Y-126811193D01*
X117433841Y-126844156D01*
X117468033Y-126891217D01*
X117468035Y-126891220D01*
X117612779Y-127035964D01*
X117612787Y-127035971D01*
X117685592Y-127088866D01*
X117778390Y-127156287D01*
X117960781Y-127249220D01*
X118155466Y-127312477D01*
X118357648Y-127344500D01*
X118357653Y-127344500D01*
X118562347Y-127344500D01*
X118562352Y-127344500D01*
X118764534Y-127312477D01*
X118959219Y-127249220D01*
X119141610Y-127156287D01*
X119307219Y-127035966D01*
X119451966Y-126891219D01*
X119572287Y-126725610D01*
X119597240Y-126676636D01*
X119648848Y-126619319D01*
X119722202Y-126595485D01*
X119797644Y-126611521D01*
X119854962Y-126663129D01*
X119862760Y-126676637D01*
X119887712Y-126725609D01*
X120008028Y-126891212D01*
X120008035Y-126891220D01*
X120152779Y-127035964D01*
X120152787Y-127035971D01*
X120225592Y-127088866D01*
X120318390Y-127156287D01*
X120500781Y-127249220D01*
X120695466Y-127312477D01*
X120897648Y-127344500D01*
X120897653Y-127344500D01*
X121102347Y-127344500D01*
X121102352Y-127344500D01*
X121304534Y-127312477D01*
X121499219Y-127249220D01*
X121681610Y-127156287D01*
X121847219Y-127035966D01*
X121991966Y-126891219D01*
X122112287Y-126725610D01*
X122137240Y-126676636D01*
X122188848Y-126619319D01*
X122262202Y-126595485D01*
X122337644Y-126611521D01*
X122394962Y-126663129D01*
X122402760Y-126676637D01*
X122427712Y-126725609D01*
X122548028Y-126891212D01*
X122548035Y-126891220D01*
X122692779Y-127035964D01*
X122692787Y-127035971D01*
X122765592Y-127088866D01*
X122858390Y-127156287D01*
X123040781Y-127249220D01*
X123235466Y-127312477D01*
X123437648Y-127344500D01*
X123437653Y-127344500D01*
X123642347Y-127344500D01*
X123642352Y-127344500D01*
X123844534Y-127312477D01*
X124039219Y-127249220D01*
X124221610Y-127156287D01*
X124387219Y-127035966D01*
X124531966Y-126891219D01*
X124652287Y-126725610D01*
X124677240Y-126676636D01*
X124728848Y-126619319D01*
X124802202Y-126595485D01*
X124877644Y-126611521D01*
X124934962Y-126663129D01*
X124942760Y-126676637D01*
X124967712Y-126725609D01*
X125088028Y-126891212D01*
X125088035Y-126891220D01*
X125232779Y-127035964D01*
X125232787Y-127035971D01*
X125305592Y-127088866D01*
X125398390Y-127156287D01*
X125580781Y-127249220D01*
X125775466Y-127312477D01*
X125977648Y-127344500D01*
X125977653Y-127344500D01*
X126182347Y-127344500D01*
X126182352Y-127344500D01*
X126384534Y-127312477D01*
X126579219Y-127249220D01*
X126761610Y-127156287D01*
X126927219Y-127035966D01*
X127071966Y-126891219D01*
X127192287Y-126725610D01*
X127217240Y-126676636D01*
X127268848Y-126619319D01*
X127342202Y-126595485D01*
X127417644Y-126611521D01*
X127474962Y-126663129D01*
X127482760Y-126676637D01*
X127507712Y-126725609D01*
X127628028Y-126891212D01*
X127628035Y-126891220D01*
X127772779Y-127035964D01*
X127772787Y-127035971D01*
X127845592Y-127088866D01*
X127938390Y-127156287D01*
X128120781Y-127249220D01*
X128315466Y-127312477D01*
X128517648Y-127344500D01*
X128517653Y-127344500D01*
X128722347Y-127344500D01*
X128722352Y-127344500D01*
X128924534Y-127312477D01*
X129119219Y-127249220D01*
X129301610Y-127156287D01*
X129467219Y-127035966D01*
X129611966Y-126891219D01*
X129732287Y-126725610D01*
X129825220Y-126543219D01*
X129888477Y-126348534D01*
X129920500Y-126146352D01*
X129920500Y-125941648D01*
X129912828Y-125893211D01*
X131399500Y-125893211D01*
X131399500Y-126194788D01*
X131438860Y-126493760D01*
X131438861Y-126493766D01*
X131438862Y-126493768D01*
X131516913Y-126785058D01*
X131620842Y-127035966D01*
X131632319Y-127063672D01*
X131732839Y-127237777D01*
X131783100Y-127324832D01*
X131966681Y-127564080D01*
X132179920Y-127777319D01*
X132419168Y-127960900D01*
X132680332Y-128111683D01*
X132958942Y-128227087D01*
X133250232Y-128305138D01*
X133250238Y-128305138D01*
X133250239Y-128305139D01*
X133331514Y-128315839D01*
X133549217Y-128344500D01*
X133850783Y-128344500D01*
X134149768Y-128305138D01*
X134441058Y-128227087D01*
X134719668Y-128111683D01*
X134980832Y-127960900D01*
X135220080Y-127777319D01*
X135433319Y-127564080D01*
X135616900Y-127324832D01*
X135767683Y-127063668D01*
X135883087Y-126785058D01*
X135961138Y-126493768D01*
X136000500Y-126194783D01*
X136000500Y-125893217D01*
X135961138Y-125594232D01*
X135883087Y-125302942D01*
X135767683Y-125024332D01*
X135616900Y-124763168D01*
X135433319Y-124523920D01*
X135220080Y-124310681D01*
X134980832Y-124127100D01*
X134736029Y-123985763D01*
X134719672Y-123976319D01*
X134719670Y-123976318D01*
X134719668Y-123976317D01*
X134508231Y-123888737D01*
X134441061Y-123860914D01*
X134441059Y-123860913D01*
X134441058Y-123860913D01*
X134149768Y-123782862D01*
X134149766Y-123782861D01*
X134149760Y-123782860D01*
X133850788Y-123743500D01*
X133850783Y-123743500D01*
X133549217Y-123743500D01*
X133549211Y-123743500D01*
X133250239Y-123782860D01*
X132958938Y-123860914D01*
X132680327Y-123976319D01*
X132419169Y-124127099D01*
X132330626Y-124195039D01*
X132179920Y-124310681D01*
X132179918Y-124310682D01*
X132179914Y-124310686D01*
X131966686Y-124523914D01*
X131783099Y-124763169D01*
X131632319Y-125024327D01*
X131516914Y-125302938D01*
X131438860Y-125594239D01*
X131399500Y-125893211D01*
X129912828Y-125893211D01*
X129888477Y-125739466D01*
X129825220Y-125544781D01*
X129732287Y-125362390D01*
X129732285Y-125362387D01*
X129611971Y-125196787D01*
X129611964Y-125196779D01*
X129467220Y-125052035D01*
X129467212Y-125052028D01*
X129301612Y-124931714D01*
X129119224Y-124838782D01*
X129119220Y-124838780D01*
X129119219Y-124838780D01*
X128924534Y-124775523D01*
X128722352Y-124743500D01*
X128517648Y-124743500D01*
X128349163Y-124770185D01*
X128315465Y-124775523D01*
X128120787Y-124838778D01*
X128120775Y-124838782D01*
X127938387Y-124931714D01*
X127772787Y-125052028D01*
X127772779Y-125052035D01*
X127628035Y-125196779D01*
X127628028Y-125196787D01*
X127507714Y-125362388D01*
X127482760Y-125411363D01*
X127431151Y-125468680D01*
X127357797Y-125492514D01*
X127282355Y-125476478D01*
X127225038Y-125424869D01*
X127217240Y-125411363D01*
X127192287Y-125362390D01*
X127075535Y-125201693D01*
X127071971Y-125196787D01*
X127071964Y-125196779D01*
X126927220Y-125052035D01*
X126927212Y-125052028D01*
X126761612Y-124931714D01*
X126579224Y-124838782D01*
X126579220Y-124838780D01*
X126579219Y-124838780D01*
X126384534Y-124775523D01*
X126182352Y-124743500D01*
X125977648Y-124743500D01*
X125809163Y-124770185D01*
X125775465Y-124775523D01*
X125580787Y-124838778D01*
X125580775Y-124838782D01*
X125398387Y-124931714D01*
X125232787Y-125052028D01*
X125232779Y-125052035D01*
X125088035Y-125196779D01*
X125088028Y-125196787D01*
X124967714Y-125362388D01*
X124942760Y-125411363D01*
X124891151Y-125468680D01*
X124817797Y-125492514D01*
X124742355Y-125476478D01*
X124685038Y-125424869D01*
X124677240Y-125411363D01*
X124652287Y-125362390D01*
X124535535Y-125201693D01*
X124531971Y-125196787D01*
X124531964Y-125196779D01*
X124387220Y-125052035D01*
X124387212Y-125052028D01*
X124221612Y-124931714D01*
X124039224Y-124838782D01*
X124039220Y-124838780D01*
X124039219Y-124838780D01*
X123844534Y-124775523D01*
X123642352Y-124743500D01*
X123437648Y-124743500D01*
X123269163Y-124770185D01*
X123235465Y-124775523D01*
X123040787Y-124838778D01*
X123040775Y-124838782D01*
X122858387Y-124931714D01*
X122692787Y-125052028D01*
X122692779Y-125052035D01*
X122548035Y-125196779D01*
X122548028Y-125196787D01*
X122427714Y-125362388D01*
X122402760Y-125411363D01*
X122351151Y-125468680D01*
X122277797Y-125492514D01*
X122202355Y-125476478D01*
X122145038Y-125424869D01*
X122137240Y-125411363D01*
X122112287Y-125362390D01*
X121995535Y-125201693D01*
X121991971Y-125196787D01*
X121991964Y-125196779D01*
X121847220Y-125052035D01*
X121847212Y-125052028D01*
X121681611Y-124931714D01*
X121681612Y-124931714D01*
X121681610Y-124931713D01*
X121612085Y-124896288D01*
X121506855Y-124842670D01*
X121449538Y-124791061D01*
X121425704Y-124717707D01*
X121425500Y-124709910D01*
X121425500Y-124387965D01*
X121445462Y-124313465D01*
X121469137Y-124282610D01*
X123467037Y-122284711D01*
X137051500Y-122284711D01*
X137051500Y-122586288D01*
X137090860Y-122885260D01*
X137090861Y-122885266D01*
X137090862Y-122885268D01*
X137168913Y-123176558D01*
X137284317Y-123455168D01*
X137435100Y-123716332D01*
X137618681Y-123955580D01*
X137831920Y-124168819D01*
X138071168Y-124352400D01*
X138332332Y-124503183D01*
X138610942Y-124618587D01*
X138902232Y-124696638D01*
X138902238Y-124696638D01*
X138902239Y-124696639D01*
X138983514Y-124707339D01*
X139201217Y-124736000D01*
X139502783Y-124736000D01*
X139801768Y-124696638D01*
X140093058Y-124618587D01*
X140371668Y-124503183D01*
X140632832Y-124352400D01*
X140872080Y-124168819D01*
X141085319Y-123955580D01*
X141268900Y-123716332D01*
X141419683Y-123455168D01*
X141535087Y-123176558D01*
X141613138Y-122885268D01*
X141652500Y-122586283D01*
X141652500Y-122284717D01*
X141652499Y-122284711D01*
X155847500Y-122284711D01*
X155847500Y-122586288D01*
X155886860Y-122885260D01*
X155886861Y-122885266D01*
X155886862Y-122885268D01*
X155964913Y-123176558D01*
X156080317Y-123455168D01*
X156231100Y-123716332D01*
X156414681Y-123955580D01*
X156627920Y-124168819D01*
X156867168Y-124352400D01*
X157128332Y-124503183D01*
X157406942Y-124618587D01*
X157698232Y-124696638D01*
X157698238Y-124696638D01*
X157698239Y-124696639D01*
X157779514Y-124707339D01*
X157997217Y-124736000D01*
X158298783Y-124736000D01*
X158597768Y-124696638D01*
X158889058Y-124618587D01*
X159167668Y-124503183D01*
X159428832Y-124352400D01*
X159668080Y-124168819D01*
X159881319Y-123955580D01*
X160064900Y-123716332D01*
X160215683Y-123455168D01*
X160331087Y-123176558D01*
X160409138Y-122885268D01*
X160448500Y-122586283D01*
X160448500Y-122284717D01*
X160409138Y-121985732D01*
X160331087Y-121694442D01*
X160215683Y-121415832D01*
X160064900Y-121154668D01*
X159881319Y-120915420D01*
X159668080Y-120702181D01*
X159428832Y-120518600D01*
X159341777Y-120468339D01*
X159167672Y-120367819D01*
X159167670Y-120367818D01*
X159167668Y-120367817D01*
X159003941Y-120299999D01*
X158889061Y-120252414D01*
X158889059Y-120252413D01*
X158889058Y-120252413D01*
X158597768Y-120174362D01*
X158597766Y-120174361D01*
X158597760Y-120174360D01*
X158298788Y-120135000D01*
X158298783Y-120135000D01*
X157997217Y-120135000D01*
X157997211Y-120135000D01*
X157698239Y-120174360D01*
X157406938Y-120252414D01*
X157128327Y-120367819D01*
X156867169Y-120518599D01*
X156867168Y-120518600D01*
X156627920Y-120702181D01*
X156627918Y-120702182D01*
X156627914Y-120702186D01*
X156414686Y-120915414D01*
X156414682Y-120915418D01*
X156414681Y-120915420D01*
X156299039Y-121066126D01*
X156231099Y-121154669D01*
X156080319Y-121415827D01*
X155964914Y-121694438D01*
X155886860Y-121985739D01*
X155847500Y-122284711D01*
X141652499Y-122284711D01*
X141613138Y-121985732D01*
X141535087Y-121694442D01*
X141419683Y-121415832D01*
X141268900Y-121154668D01*
X141085319Y-120915420D01*
X140872080Y-120702181D01*
X140632832Y-120518600D01*
X140545777Y-120468339D01*
X140371672Y-120367819D01*
X140371670Y-120367818D01*
X140371668Y-120367817D01*
X140207941Y-120299999D01*
X140093061Y-120252414D01*
X140093059Y-120252413D01*
X140093058Y-120252413D01*
X139801768Y-120174362D01*
X139801766Y-120174361D01*
X139801760Y-120174360D01*
X139502788Y-120135000D01*
X139502783Y-120135000D01*
X139201217Y-120135000D01*
X139201211Y-120135000D01*
X138902239Y-120174360D01*
X138610938Y-120252414D01*
X138332327Y-120367819D01*
X138071169Y-120518599D01*
X138071168Y-120518600D01*
X137831920Y-120702181D01*
X137831918Y-120702182D01*
X137831914Y-120702186D01*
X137618686Y-120915414D01*
X137618682Y-120915418D01*
X137618681Y-120915420D01*
X137503039Y-121066126D01*
X137435099Y-121154669D01*
X137284319Y-121415827D01*
X137168914Y-121694438D01*
X137090860Y-121985739D01*
X137051500Y-122284711D01*
X123467037Y-122284711D01*
X123640485Y-122111263D01*
X123696503Y-122014237D01*
X123725500Y-121906019D01*
X123725500Y-121793982D01*
X123725500Y-120181196D01*
X124247500Y-120181196D01*
X124247500Y-120418803D01*
X124278510Y-120654350D01*
X124340009Y-120883867D01*
X124430927Y-121103363D01*
X124430928Y-121103365D01*
X124549729Y-121309134D01*
X124549730Y-121309136D01*
X124613805Y-121392639D01*
X125287545Y-120718898D01*
X125380343Y-120857780D01*
X125502220Y-120979657D01*
X125641099Y-121072453D01*
X124967358Y-121746193D01*
X125050863Y-121810269D01*
X125050865Y-121810270D01*
X125256634Y-121929071D01*
X125256636Y-121929072D01*
X125476132Y-122019990D01*
X125705649Y-122081489D01*
X125941196Y-122112499D01*
X125941202Y-122112500D01*
X126178798Y-122112500D01*
X126178803Y-122112499D01*
X126414350Y-122081489D01*
X126643867Y-122019990D01*
X126863363Y-121929072D01*
X126863365Y-121929071D01*
X127069132Y-121810272D01*
X127152639Y-121746193D01*
X127152640Y-121746193D01*
X126478900Y-121072453D01*
X126617780Y-120979657D01*
X126739657Y-120857780D01*
X126832453Y-120718900D01*
X127506193Y-121392640D01*
X127506193Y-121392639D01*
X127570272Y-121309132D01*
X127689071Y-121103365D01*
X127689072Y-121103363D01*
X127779990Y-120883867D01*
X127841489Y-120654350D01*
X127872499Y-120418803D01*
X127872500Y-120418798D01*
X127872500Y-120181202D01*
X127872499Y-120181196D01*
X129327500Y-120181196D01*
X129327500Y-120418803D01*
X129358510Y-120654350D01*
X129420009Y-120883867D01*
X129510927Y-121103363D01*
X129510928Y-121103365D01*
X129629729Y-121309134D01*
X129629730Y-121309136D01*
X129693805Y-121392639D01*
X130367545Y-120718898D01*
X130460343Y-120857780D01*
X130582220Y-120979657D01*
X130721099Y-121072453D01*
X130047358Y-121746193D01*
X130130863Y-121810269D01*
X130130865Y-121810270D01*
X130336634Y-121929071D01*
X130336636Y-121929072D01*
X130556132Y-122019990D01*
X130785649Y-122081489D01*
X131021196Y-122112499D01*
X131021202Y-122112500D01*
X131258798Y-122112500D01*
X131258803Y-122112499D01*
X131494350Y-122081489D01*
X131723867Y-122019990D01*
X131943363Y-121929072D01*
X131943365Y-121929071D01*
X132149132Y-121810272D01*
X132232639Y-121746193D01*
X132232640Y-121746193D01*
X131558900Y-121072453D01*
X131697780Y-120979657D01*
X131819657Y-120857780D01*
X131912453Y-120718900D01*
X132586193Y-121392640D01*
X132586193Y-121392639D01*
X132650272Y-121309132D01*
X132769071Y-121103365D01*
X132769072Y-121103363D01*
X132859990Y-120883867D01*
X132921489Y-120654350D01*
X132952499Y-120418803D01*
X132952500Y-120418798D01*
X132952500Y-120181202D01*
X132952499Y-120181196D01*
X132921489Y-119945649D01*
X132859990Y-119716132D01*
X132769072Y-119496636D01*
X132769071Y-119496634D01*
X132650270Y-119290865D01*
X132650269Y-119290863D01*
X132586193Y-119207358D01*
X131912452Y-119881098D01*
X131819657Y-119742220D01*
X131697780Y-119620343D01*
X131558898Y-119527545D01*
X132232639Y-118853805D01*
X132149136Y-118789730D01*
X132149134Y-118789729D01*
X131943365Y-118670928D01*
X131943363Y-118670927D01*
X131723867Y-118580009D01*
X131494350Y-118518510D01*
X131258803Y-118487500D01*
X131021196Y-118487500D01*
X130785649Y-118518510D01*
X130556132Y-118580009D01*
X130336636Y-118670927D01*
X130336634Y-118670928D01*
X130130869Y-118789727D01*
X130047359Y-118853806D01*
X130721099Y-119527546D01*
X130582220Y-119620343D01*
X130460343Y-119742220D01*
X130367546Y-119881099D01*
X129693806Y-119207359D01*
X129629727Y-119290869D01*
X129510928Y-119496634D01*
X129510927Y-119496636D01*
X129420009Y-119716132D01*
X129358510Y-119945649D01*
X129327500Y-120181196D01*
X127872499Y-120181196D01*
X127841489Y-119945649D01*
X127779990Y-119716132D01*
X127689072Y-119496636D01*
X127689071Y-119496634D01*
X127570270Y-119290865D01*
X127570269Y-119290863D01*
X127506193Y-119207358D01*
X126832452Y-119881098D01*
X126739657Y-119742220D01*
X126617780Y-119620343D01*
X126478898Y-119527545D01*
X127152639Y-118853805D01*
X127069136Y-118789730D01*
X127069134Y-118789729D01*
X126863365Y-118670928D01*
X126863363Y-118670927D01*
X126643867Y-118580009D01*
X126414350Y-118518510D01*
X126178803Y-118487500D01*
X125941196Y-118487500D01*
X125705649Y-118518510D01*
X125476132Y-118580009D01*
X125256636Y-118670927D01*
X125256634Y-118670928D01*
X125050869Y-118789727D01*
X124967359Y-118853806D01*
X125641099Y-119527546D01*
X125502220Y-119620343D01*
X125380343Y-119742220D01*
X125287546Y-119881099D01*
X124613805Y-119207359D01*
X124549727Y-119290869D01*
X124430928Y-119496634D01*
X124430927Y-119496636D01*
X124340009Y-119716132D01*
X124278510Y-119945649D01*
X124247500Y-120181196D01*
X123725500Y-120181196D01*
X123725500Y-117644859D01*
X127137000Y-117644859D01*
X127137000Y-117875141D01*
X127140552Y-117897565D01*
X127173023Y-118102586D01*
X127223615Y-118258289D01*
X127244185Y-118321597D01*
X127348730Y-118526779D01*
X127484086Y-118713081D01*
X127646919Y-118875914D01*
X127833221Y-119011270D01*
X128038403Y-119115815D01*
X128257413Y-119186976D01*
X128484859Y-119223000D01*
X128484863Y-119223000D01*
X128715137Y-119223000D01*
X128715141Y-119223000D01*
X128942587Y-119186976D01*
X129161597Y-119115815D01*
X129366779Y-119011270D01*
X129553081Y-118875914D01*
X129715914Y-118713081D01*
X129851270Y-118526779D01*
X129955815Y-118321597D01*
X130026976Y-118102587D01*
X130063000Y-117875141D01*
X130063000Y-117644859D01*
X130026976Y-117417413D01*
X129955815Y-117198403D01*
X129851270Y-116993221D01*
X129715914Y-116806919D01*
X129553081Y-116644086D01*
X129405479Y-116536847D01*
X129366781Y-116508731D01*
X129366775Y-116508728D01*
X129161607Y-116404190D01*
X129161606Y-116404189D01*
X129161597Y-116404185D01*
X129098289Y-116383615D01*
X128942586Y-116333023D01*
X128812820Y-116312470D01*
X128715141Y-116297000D01*
X128484859Y-116297000D01*
X128396650Y-116310970D01*
X128257413Y-116333023D01*
X128038409Y-116404183D01*
X128038403Y-116404185D01*
X128038398Y-116404187D01*
X128038392Y-116404190D01*
X127833224Y-116508728D01*
X127833218Y-116508731D01*
X127646920Y-116644085D01*
X127646917Y-116644087D01*
X127484087Y-116806917D01*
X127484085Y-116806920D01*
X127348731Y-116993218D01*
X127348728Y-116993224D01*
X127244190Y-117198392D01*
X127244183Y-117198409D01*
X127173023Y-117417413D01*
X127152533Y-117546785D01*
X127137000Y-117644859D01*
X123725500Y-117644859D01*
X123725500Y-115101196D01*
X124247500Y-115101196D01*
X124247500Y-115338803D01*
X124278510Y-115574350D01*
X124340009Y-115803867D01*
X124430927Y-116023363D01*
X124430928Y-116023365D01*
X124549729Y-116229134D01*
X124549730Y-116229136D01*
X124613805Y-116312639D01*
X125287545Y-115638898D01*
X125380343Y-115777780D01*
X125502220Y-115899657D01*
X125641099Y-115992453D01*
X124967358Y-116666193D01*
X125050863Y-116730269D01*
X125050865Y-116730270D01*
X125256634Y-116849071D01*
X125256636Y-116849072D01*
X125476132Y-116939990D01*
X125705649Y-117001489D01*
X125941196Y-117032499D01*
X125941202Y-117032500D01*
X126178798Y-117032500D01*
X126178803Y-117032499D01*
X126414350Y-117001489D01*
X126643867Y-116939990D01*
X126863363Y-116849072D01*
X126863365Y-116849071D01*
X127069132Y-116730272D01*
X127152639Y-116666193D01*
X127152640Y-116666193D01*
X126478900Y-115992453D01*
X126617780Y-115899657D01*
X126739657Y-115777780D01*
X126832453Y-115638900D01*
X127506193Y-116312640D01*
X127506193Y-116312639D01*
X127570272Y-116229132D01*
X127689071Y-116023365D01*
X127689072Y-116023363D01*
X127779990Y-115803867D01*
X127841489Y-115574350D01*
X127872499Y-115338803D01*
X127872500Y-115338798D01*
X127872500Y-115101202D01*
X127872499Y-115101196D01*
X129327500Y-115101196D01*
X129327500Y-115338803D01*
X129358510Y-115574350D01*
X129420009Y-115803867D01*
X129510927Y-116023363D01*
X129510928Y-116023365D01*
X129629729Y-116229134D01*
X129629730Y-116229136D01*
X129693805Y-116312639D01*
X130367545Y-115638898D01*
X130460343Y-115777780D01*
X130582220Y-115899657D01*
X130721099Y-115992453D01*
X130047358Y-116666193D01*
X130130863Y-116730269D01*
X130130865Y-116730270D01*
X130336634Y-116849071D01*
X130336636Y-116849072D01*
X130556132Y-116939990D01*
X130785649Y-117001489D01*
X131021196Y-117032499D01*
X131021202Y-117032500D01*
X131258798Y-117032500D01*
X131258803Y-117032499D01*
X131494350Y-117001489D01*
X131723867Y-116939990D01*
X131943363Y-116849072D01*
X131943365Y-116849071D01*
X132149132Y-116730272D01*
X132232639Y-116666193D01*
X132232640Y-116666193D01*
X131558900Y-115992453D01*
X131697780Y-115899657D01*
X131819657Y-115777780D01*
X131912453Y-115638900D01*
X132586193Y-116312640D01*
X132586193Y-116312639D01*
X132650272Y-116229132D01*
X132769071Y-116023365D01*
X132769072Y-116023363D01*
X132859990Y-115803867D01*
X132921489Y-115574350D01*
X132952499Y-115338803D01*
X132952500Y-115338798D01*
X132952500Y-115101202D01*
X132952499Y-115101196D01*
X132921489Y-114865649D01*
X132859990Y-114636132D01*
X132769072Y-114416636D01*
X132769071Y-114416634D01*
X132650270Y-114210865D01*
X132650269Y-114210863D01*
X132586193Y-114127358D01*
X131912452Y-114801098D01*
X131819657Y-114662220D01*
X131697780Y-114540343D01*
X131558898Y-114447545D01*
X132232639Y-113773805D01*
X132149136Y-113709730D01*
X132149134Y-113709729D01*
X131943365Y-113590928D01*
X131943363Y-113590927D01*
X131723867Y-113500009D01*
X131494350Y-113438510D01*
X131258803Y-113407500D01*
X131021196Y-113407500D01*
X130785649Y-113438510D01*
X130556132Y-113500009D01*
X130336636Y-113590927D01*
X130336634Y-113590928D01*
X130130869Y-113709727D01*
X130047359Y-113773806D01*
X130721099Y-114447546D01*
X130582220Y-114540343D01*
X130460343Y-114662220D01*
X130367546Y-114801099D01*
X129693805Y-114127359D01*
X129629727Y-114210869D01*
X129510928Y-114416634D01*
X129510927Y-114416636D01*
X129420009Y-114636132D01*
X129358510Y-114865649D01*
X129327500Y-115101196D01*
X127872499Y-115101196D01*
X127841489Y-114865649D01*
X127779990Y-114636132D01*
X127689072Y-114416636D01*
X127689071Y-114416634D01*
X127570270Y-114210865D01*
X127570269Y-114210863D01*
X127506193Y-114127358D01*
X126832452Y-114801098D01*
X126739657Y-114662220D01*
X126617780Y-114540343D01*
X126478899Y-114447545D01*
X127152640Y-113773805D01*
X127069136Y-113709730D01*
X127069134Y-113709729D01*
X126863365Y-113590928D01*
X126863363Y-113590927D01*
X126643867Y-113500009D01*
X126414350Y-113438510D01*
X126178803Y-113407500D01*
X125941196Y-113407500D01*
X125705649Y-113438510D01*
X125476132Y-113500009D01*
X125256636Y-113590927D01*
X125256634Y-113590928D01*
X125050869Y-113709727D01*
X124967359Y-113773806D01*
X125641099Y-114447546D01*
X125502220Y-114540343D01*
X125380343Y-114662220D01*
X125287546Y-114801099D01*
X124613806Y-114127359D01*
X124549727Y-114210869D01*
X124430928Y-114416634D01*
X124430927Y-114416636D01*
X124340009Y-114636132D01*
X124278510Y-114865649D01*
X124247500Y-115101196D01*
X123725500Y-115101196D01*
X123725500Y-114137966D01*
X123745462Y-114063466D01*
X123769141Y-114032607D01*
X124832607Y-112969141D01*
X124899402Y-112930577D01*
X124937966Y-112925500D01*
X140356018Y-112925500D01*
X140464237Y-112896503D01*
X140561263Y-112840485D01*
X141350485Y-112051263D01*
X141406503Y-111954237D01*
X141435500Y-111846018D01*
X141435500Y-111733981D01*
X141435500Y-110180836D01*
X141455462Y-110106336D01*
X141510000Y-110051798D01*
X141516845Y-110048081D01*
X141622994Y-109993996D01*
X141769501Y-109887553D01*
X141897553Y-109759501D01*
X141927452Y-109718349D01*
X141940456Y-109700450D01*
X142000395Y-109651911D01*
X142076574Y-109639845D01*
X142148579Y-109667485D01*
X142197118Y-109727424D01*
X142210000Y-109788029D01*
X142210000Y-109907822D01*
X142210001Y-109907842D01*
X142216401Y-109967377D01*
X142266645Y-110102084D01*
X142266650Y-110102094D01*
X142352809Y-110217187D01*
X142352812Y-110217190D01*
X142467905Y-110303349D01*
X142467915Y-110303354D01*
X142602623Y-110353598D01*
X142602621Y-110353598D01*
X142662157Y-110359998D01*
X142662177Y-110360000D01*
X143310000Y-110360000D01*
X143310000Y-109454560D01*
X143363147Y-109485245D01*
X143492857Y-109520000D01*
X143627143Y-109520000D01*
X143756853Y-109485245D01*
X143810000Y-109454560D01*
X143810000Y-110360000D01*
X144457823Y-110360000D01*
X144457842Y-110359998D01*
X144517377Y-110353598D01*
X144652084Y-110303354D01*
X144652094Y-110303349D01*
X144767187Y-110217190D01*
X144767190Y-110217187D01*
X144853349Y-110102094D01*
X144853354Y-110102084D01*
X144903598Y-109967377D01*
X144909998Y-109907842D01*
X144910000Y-109907822D01*
X144910000Y-109788029D01*
X144929962Y-109713529D01*
X144984500Y-109658991D01*
X145059000Y-109639029D01*
X145133500Y-109658991D01*
X145179544Y-109700450D01*
X145222441Y-109759494D01*
X145222446Y-109759500D01*
X145222447Y-109759501D01*
X145350499Y-109887553D01*
X145497006Y-109993996D01*
X145658361Y-110076211D01*
X145830591Y-110132171D01*
X146009454Y-110160500D01*
X146009458Y-110160500D01*
X146190542Y-110160500D01*
X146190546Y-110160500D01*
X146369409Y-110132171D01*
X146541639Y-110076211D01*
X146702994Y-109993996D01*
X146849501Y-109887553D01*
X146977553Y-109759501D01*
X147083996Y-109612994D01*
X147166211Y-109451639D01*
X147222171Y-109279409D01*
X147222834Y-109275223D01*
X147254204Y-109204762D01*
X147316602Y-109159427D01*
X147393307Y-109151364D01*
X147463768Y-109182734D01*
X147509103Y-109245132D01*
X147517166Y-109275223D01*
X147517828Y-109279408D01*
X147573789Y-109451639D01*
X147656005Y-109612995D01*
X147656005Y-109612996D01*
X147695594Y-109667485D01*
X147762447Y-109759501D01*
X147890499Y-109887553D01*
X148037006Y-109993996D01*
X148198361Y-110076211D01*
X148370591Y-110132171D01*
X148549454Y-110160500D01*
X148549458Y-110160500D01*
X148730542Y-110160500D01*
X148730546Y-110160500D01*
X148909409Y-110132171D01*
X149081639Y-110076211D01*
X149242994Y-109993996D01*
X149389501Y-109887553D01*
X149517553Y-109759501D01*
X149517553Y-109759500D01*
X149520141Y-109756913D01*
X149586936Y-109718349D01*
X149664064Y-109718349D01*
X149730859Y-109756913D01*
X149769423Y-109823708D01*
X149774500Y-109862272D01*
X149774500Y-112562034D01*
X149754538Y-112636534D01*
X149730859Y-112667393D01*
X148867393Y-113530859D01*
X148800598Y-113569423D01*
X148762034Y-113574500D01*
X146056019Y-113574500D01*
X145943982Y-113574500D01*
X145835763Y-113603497D01*
X145835761Y-113603497D01*
X145835761Y-113603498D01*
X145738738Y-113659513D01*
X145738736Y-113659515D01*
X144233595Y-115164655D01*
X144166800Y-115203219D01*
X144089672Y-115203219D01*
X144082213Y-115201010D01*
X143974534Y-115166023D01*
X143974532Y-115166022D01*
X143974530Y-115166022D01*
X143910570Y-115155891D01*
X143772352Y-115134000D01*
X143567648Y-115134000D01*
X143399163Y-115160685D01*
X143365465Y-115166023D01*
X143170787Y-115229278D01*
X143170775Y-115229282D01*
X142988387Y-115322214D01*
X142822787Y-115442528D01*
X142822779Y-115442535D01*
X142678035Y-115587279D01*
X142678028Y-115587287D01*
X142557714Y-115752888D01*
X142532760Y-115801863D01*
X142481151Y-115859180D01*
X142407797Y-115883014D01*
X142332355Y-115866978D01*
X142275038Y-115815369D01*
X142267240Y-115801863D01*
X142254969Y-115777780D01*
X142242287Y-115752890D01*
X142156158Y-115634342D01*
X142121971Y-115587287D01*
X142121964Y-115587279D01*
X141977220Y-115442535D01*
X141977212Y-115442528D01*
X141811612Y-115322214D01*
X141629224Y-115229282D01*
X141629220Y-115229280D01*
X141629219Y-115229280D01*
X141434534Y-115166023D01*
X141232352Y-115134000D01*
X141027648Y-115134000D01*
X140859163Y-115160685D01*
X140825465Y-115166023D01*
X140630787Y-115229278D01*
X140630775Y-115229282D01*
X140448387Y-115322214D01*
X140282787Y-115442528D01*
X140282779Y-115442535D01*
X140138035Y-115587279D01*
X140138028Y-115587287D01*
X140017714Y-115752888D01*
X139992760Y-115801863D01*
X139941151Y-115859180D01*
X139867797Y-115883014D01*
X139792355Y-115866978D01*
X139735038Y-115815369D01*
X139727240Y-115801863D01*
X139714969Y-115777780D01*
X139702287Y-115752890D01*
X139616158Y-115634342D01*
X139581971Y-115587287D01*
X139581964Y-115587279D01*
X139437220Y-115442535D01*
X139437212Y-115442528D01*
X139271612Y-115322214D01*
X139089224Y-115229282D01*
X139089220Y-115229280D01*
X139089219Y-115229280D01*
X138894534Y-115166023D01*
X138692352Y-115134000D01*
X138487648Y-115134000D01*
X138319163Y-115160685D01*
X138285465Y-115166023D01*
X138090787Y-115229278D01*
X138090775Y-115229282D01*
X137908387Y-115322214D01*
X137742787Y-115442528D01*
X137742779Y-115442535D01*
X137598035Y-115587279D01*
X137598028Y-115587287D01*
X137477714Y-115752887D01*
X137384782Y-115935275D01*
X137384778Y-115935287D01*
X137337451Y-116080946D01*
X137321523Y-116129966D01*
X137289500Y-116332148D01*
X137289500Y-116536852D01*
X137321523Y-116739034D01*
X137380312Y-116919969D01*
X137384778Y-116933712D01*
X137384782Y-116933724D01*
X137477714Y-117116112D01*
X137598028Y-117281712D01*
X137598035Y-117281720D01*
X137742779Y-117426464D01*
X137742787Y-117426471D01*
X137908387Y-117546785D01*
X137908390Y-117546787D01*
X138090781Y-117639720D01*
X138285466Y-117702977D01*
X138487648Y-117735000D01*
X138487653Y-117735000D01*
X138692347Y-117735000D01*
X138692352Y-117735000D01*
X138894534Y-117702977D01*
X139089219Y-117639720D01*
X139271610Y-117546787D01*
X139437219Y-117426466D01*
X139581966Y-117281719D01*
X139702287Y-117116110D01*
X139727240Y-117067136D01*
X139778848Y-117009819D01*
X139852202Y-116985985D01*
X139927644Y-117002021D01*
X139984962Y-117053629D01*
X139992760Y-117067137D01*
X140017712Y-117116109D01*
X140138028Y-117281712D01*
X140138035Y-117281720D01*
X140282779Y-117426464D01*
X140282787Y-117426471D01*
X140448387Y-117546785D01*
X140448390Y-117546787D01*
X140630781Y-117639720D01*
X140825466Y-117702977D01*
X141027648Y-117735000D01*
X141027653Y-117735000D01*
X141232347Y-117735000D01*
X141232352Y-117735000D01*
X141434534Y-117702977D01*
X141629219Y-117639720D01*
X141811610Y-117546787D01*
X141977219Y-117426466D01*
X142121966Y-117281719D01*
X142242287Y-117116110D01*
X142267240Y-117067136D01*
X142318848Y-117009819D01*
X142392202Y-116985985D01*
X142467644Y-117002021D01*
X142524962Y-117053629D01*
X142532760Y-117067137D01*
X142557712Y-117116109D01*
X142678028Y-117281712D01*
X142678035Y-117281720D01*
X142822779Y-117426464D01*
X142822787Y-117426471D01*
X142988387Y-117546785D01*
X142988390Y-117546787D01*
X143170781Y-117639720D01*
X143365466Y-117702977D01*
X143567648Y-117735000D01*
X143567653Y-117735000D01*
X143772347Y-117735000D01*
X143772352Y-117735000D01*
X143974534Y-117702977D01*
X144169219Y-117639720D01*
X144351610Y-117546787D01*
X144517219Y-117426466D01*
X144661966Y-117281719D01*
X144782287Y-117116110D01*
X144807240Y-117067136D01*
X144858848Y-117009819D01*
X144932202Y-116985985D01*
X145007644Y-117002021D01*
X145064962Y-117053629D01*
X145072760Y-117067137D01*
X145097712Y-117116109D01*
X145218028Y-117281712D01*
X145218035Y-117281720D01*
X145362779Y-117426464D01*
X145362787Y-117426471D01*
X145528387Y-117546785D01*
X145528390Y-117546787D01*
X145710781Y-117639720D01*
X145905466Y-117702977D01*
X146107648Y-117735000D01*
X146107653Y-117735000D01*
X146312347Y-117735000D01*
X146312352Y-117735000D01*
X146514534Y-117702977D01*
X146709219Y-117639720D01*
X146891610Y-117546787D01*
X147057219Y-117426466D01*
X147201966Y-117281719D01*
X147322287Y-117116110D01*
X147347240Y-117067136D01*
X147398848Y-117009819D01*
X147472202Y-116985985D01*
X147547644Y-117002021D01*
X147604962Y-117053629D01*
X147612760Y-117067137D01*
X147637712Y-117116109D01*
X147758028Y-117281712D01*
X147758035Y-117281720D01*
X147902779Y-117426464D01*
X147902787Y-117426471D01*
X148068387Y-117546785D01*
X148068390Y-117546787D01*
X148250781Y-117639720D01*
X148445466Y-117702977D01*
X148647648Y-117735000D01*
X148647653Y-117735000D01*
X148852347Y-117735000D01*
X148852352Y-117735000D01*
X149054534Y-117702977D01*
X149249219Y-117639720D01*
X149431610Y-117546787D01*
X149597219Y-117426466D01*
X149741966Y-117281719D01*
X149862287Y-117116110D01*
X149887240Y-117067136D01*
X149938848Y-117009819D01*
X150012202Y-116985985D01*
X150087644Y-117002021D01*
X150144962Y-117053629D01*
X150152760Y-117067137D01*
X150177712Y-117116109D01*
X150298028Y-117281712D01*
X150298035Y-117281720D01*
X150442779Y-117426464D01*
X150442787Y-117426471D01*
X150608387Y-117546785D01*
X150608390Y-117546787D01*
X150790781Y-117639720D01*
X150985466Y-117702977D01*
X151187648Y-117735000D01*
X151187653Y-117735000D01*
X151392347Y-117735000D01*
X151392352Y-117735000D01*
X151594534Y-117702977D01*
X151789219Y-117639720D01*
X151971610Y-117546787D01*
X152018886Y-117512439D01*
X152063774Y-117479827D01*
X152137212Y-117426471D01*
X152137211Y-117426471D01*
X152137219Y-117426466D01*
X152281966Y-117281719D01*
X152316158Y-117234656D01*
X152376096Y-117186119D01*
X152452275Y-117174052D01*
X152524280Y-117201691D01*
X152557246Y-117234657D01*
X152607339Y-117303605D01*
X152607340Y-117303605D01*
X153248092Y-116662853D01*
X153276132Y-116730548D01*
X153344531Y-116832914D01*
X153431586Y-116919969D01*
X153533952Y-116988368D01*
X153601645Y-117016407D01*
X152960893Y-117657158D01*
X153043828Y-117717413D01*
X153254194Y-117824601D01*
X153254206Y-117824605D01*
X153478749Y-117897565D01*
X153711951Y-117934500D01*
X153948049Y-117934500D01*
X154181250Y-117897565D01*
X154405793Y-117824605D01*
X154405810Y-117824598D01*
X154616167Y-117717416D01*
X154616172Y-117717413D01*
X154699105Y-117657159D01*
X154699105Y-117657158D01*
X154058354Y-117016407D01*
X154126048Y-116988368D01*
X154228414Y-116919969D01*
X154315469Y-116832914D01*
X154383868Y-116730548D01*
X154411907Y-116662854D01*
X155052658Y-117303605D01*
X155052659Y-117303605D01*
X155102754Y-117234656D01*
X155162693Y-117186118D01*
X155238872Y-117174052D01*
X155310877Y-117201693D01*
X155343841Y-117234656D01*
X155378030Y-117281714D01*
X155378033Y-117281717D01*
X155378035Y-117281720D01*
X155522779Y-117426464D01*
X155522787Y-117426471D01*
X155688387Y-117546785D01*
X155688390Y-117546787D01*
X155870781Y-117639720D01*
X156065466Y-117702977D01*
X156267648Y-117735000D01*
X156267653Y-117735000D01*
X156472347Y-117735000D01*
X156472352Y-117735000D01*
X156674534Y-117702977D01*
X156869219Y-117639720D01*
X157051610Y-117546787D01*
X157217219Y-117426466D01*
X157361966Y-117281719D01*
X157482287Y-117116110D01*
X157507240Y-117067136D01*
X157558848Y-117009819D01*
X157632202Y-116985985D01*
X157707644Y-117002021D01*
X157764962Y-117053629D01*
X157772760Y-117067137D01*
X157797712Y-117116109D01*
X157918028Y-117281712D01*
X157918035Y-117281720D01*
X158062779Y-117426464D01*
X158062787Y-117426471D01*
X158228387Y-117546785D01*
X158228390Y-117546787D01*
X158410781Y-117639720D01*
X158605466Y-117702977D01*
X158807648Y-117735000D01*
X158807653Y-117735000D01*
X159012347Y-117735000D01*
X159012352Y-117735000D01*
X159214534Y-117702977D01*
X159409219Y-117639720D01*
X159591610Y-117546787D01*
X159757219Y-117426466D01*
X159901966Y-117281719D01*
X160022287Y-117116110D01*
X160115220Y-116933719D01*
X160178477Y-116739034D01*
X160210500Y-116536852D01*
X160210500Y-116332148D01*
X160178477Y-116129966D01*
X160115220Y-115935281D01*
X160022287Y-115752890D01*
X160022285Y-115752887D01*
X159901971Y-115587287D01*
X159901964Y-115587279D01*
X159757220Y-115442535D01*
X159757212Y-115442528D01*
X159591612Y-115322214D01*
X159409224Y-115229282D01*
X159409220Y-115229280D01*
X159409219Y-115229280D01*
X159214534Y-115166023D01*
X159012352Y-115134000D01*
X158807648Y-115134000D01*
X158639163Y-115160685D01*
X158605465Y-115166023D01*
X158410787Y-115229278D01*
X158410775Y-115229282D01*
X158228387Y-115322214D01*
X158062787Y-115442528D01*
X158062779Y-115442535D01*
X157918035Y-115587279D01*
X157918028Y-115587287D01*
X157797714Y-115752888D01*
X157772760Y-115801863D01*
X157721151Y-115859180D01*
X157647797Y-115883014D01*
X157572355Y-115866978D01*
X157515038Y-115815369D01*
X157507240Y-115801863D01*
X157494969Y-115777780D01*
X157482287Y-115752890D01*
X157396158Y-115634342D01*
X157361971Y-115587287D01*
X157361964Y-115587279D01*
X157217220Y-115442535D01*
X157217212Y-115442528D01*
X157051612Y-115322214D01*
X156869224Y-115229282D01*
X156869220Y-115229280D01*
X156869219Y-115229280D01*
X156674534Y-115166023D01*
X156472352Y-115134000D01*
X156267648Y-115134000D01*
X156099163Y-115160685D01*
X156065465Y-115166023D01*
X155870787Y-115229278D01*
X155870775Y-115229282D01*
X155688387Y-115322214D01*
X155522787Y-115442528D01*
X155522779Y-115442535D01*
X155378035Y-115587279D01*
X155378030Y-115587285D01*
X155343840Y-115634344D01*
X155283900Y-115682882D01*
X155207721Y-115694947D01*
X155135716Y-115667306D01*
X155102753Y-115634342D01*
X155052659Y-115565393D01*
X155052658Y-115565393D01*
X154411906Y-116206144D01*
X154383868Y-116138452D01*
X154315469Y-116036086D01*
X154228414Y-115949031D01*
X154126048Y-115880632D01*
X154058353Y-115852592D01*
X154699105Y-115211840D01*
X154699105Y-115211839D01*
X154616178Y-115151590D01*
X154616171Y-115151586D01*
X154405805Y-115044398D01*
X154405793Y-115044394D01*
X154181250Y-114971434D01*
X153948049Y-114934500D01*
X153711951Y-114934500D01*
X153478749Y-114971434D01*
X153254206Y-115044394D01*
X153254194Y-115044398D01*
X153043828Y-115151586D01*
X153043823Y-115151589D01*
X152960893Y-115211839D01*
X153601646Y-115852592D01*
X153533952Y-115880632D01*
X153431586Y-115949031D01*
X153344531Y-116036086D01*
X153276132Y-116138452D01*
X153248092Y-116206146D01*
X152607339Y-115565393D01*
X152607338Y-115565393D01*
X152557246Y-115634342D01*
X152497307Y-115682881D01*
X152421129Y-115694947D01*
X152349123Y-115667307D01*
X152316158Y-115634342D01*
X152281971Y-115587287D01*
X152281964Y-115587279D01*
X152137220Y-115442535D01*
X152137212Y-115442528D01*
X152063771Y-115389171D01*
X151971611Y-115322214D01*
X151971612Y-115322214D01*
X151971610Y-115322213D01*
X151902085Y-115286788D01*
X151796855Y-115233170D01*
X151793874Y-115230486D01*
X151790000Y-115229448D01*
X151765394Y-115204842D01*
X151739538Y-115181561D01*
X151738298Y-115177746D01*
X151735462Y-115174910D01*
X151726455Y-115141296D01*
X151715704Y-115108207D01*
X151715500Y-115100410D01*
X151715500Y-114947965D01*
X151735462Y-114873465D01*
X151759137Y-114842610D01*
X152340485Y-114261263D01*
X152396503Y-114164237D01*
X152425500Y-114056018D01*
X152425500Y-113943981D01*
X152425500Y-106143982D01*
X152396503Y-106035763D01*
X152340485Y-105938737D01*
X152261263Y-105859515D01*
X150661263Y-104259515D01*
X150661260Y-104259513D01*
X150661259Y-104259512D01*
X150601072Y-104224763D01*
X150564237Y-104203497D01*
X150456018Y-104174500D01*
X142037966Y-104174500D01*
X141963466Y-104154538D01*
X141932607Y-104130859D01*
X141479141Y-103677393D01*
X141440577Y-103610598D01*
X141435500Y-103572034D01*
X141435500Y-99222177D01*
X147060000Y-99222177D01*
X147060000Y-99870000D01*
X147965440Y-99870000D01*
X147934755Y-99923147D01*
X147900000Y-100052857D01*
X147900000Y-100187143D01*
X147934755Y-100316853D01*
X147965440Y-100370000D01*
X147060000Y-100370000D01*
X147060000Y-101017822D01*
X147060001Y-101017842D01*
X147066401Y-101077377D01*
X147116645Y-101212084D01*
X147116650Y-101212094D01*
X147202809Y-101327187D01*
X147202812Y-101327190D01*
X147317905Y-101413349D01*
X147317915Y-101413354D01*
X147452623Y-101463598D01*
X147452621Y-101463598D01*
X147512157Y-101469998D01*
X147512177Y-101470000D01*
X147631970Y-101470000D01*
X147706470Y-101489962D01*
X147761008Y-101544500D01*
X147780970Y-101619000D01*
X147761008Y-101693500D01*
X147719550Y-101739544D01*
X147660500Y-101782446D01*
X147660497Y-101782448D01*
X147532448Y-101910497D01*
X147532446Y-101910500D01*
X147426005Y-102057003D01*
X147426005Y-102057004D01*
X147343789Y-102218360D01*
X147337219Y-102238582D01*
X147287829Y-102390591D01*
X147259500Y-102569454D01*
X147259500Y-102750546D01*
X147287829Y-102929409D01*
X147343789Y-103101639D01*
X147426004Y-103262994D01*
X147532447Y-103409501D01*
X147660499Y-103537553D01*
X147807006Y-103643996D01*
X147968361Y-103726211D01*
X148140591Y-103782171D01*
X148319454Y-103810500D01*
X148319458Y-103810500D01*
X148500542Y-103810500D01*
X148500546Y-103810500D01*
X148679409Y-103782171D01*
X148851639Y-103726211D01*
X149012994Y-103643996D01*
X149159501Y-103537553D01*
X149287553Y-103409501D01*
X149393996Y-103262994D01*
X149476211Y-103101639D01*
X149532171Y-102929409D01*
X149560500Y-102750546D01*
X149560500Y-102569454D01*
X149532171Y-102390591D01*
X149476211Y-102218361D01*
X149393996Y-102057006D01*
X149287553Y-101910499D01*
X149159501Y-101782447D01*
X149100450Y-101739544D01*
X149051912Y-101679604D01*
X149039846Y-101603425D01*
X149067486Y-101531420D01*
X149127426Y-101482882D01*
X149188030Y-101470000D01*
X149307823Y-101470000D01*
X149307842Y-101469998D01*
X149367377Y-101463598D01*
X149502084Y-101413354D01*
X149502094Y-101413349D01*
X149617187Y-101327190D01*
X149617190Y-101327187D01*
X149703349Y-101212094D01*
X149703354Y-101212084D01*
X149753598Y-101077377D01*
X149759998Y-101017842D01*
X149760000Y-101017822D01*
X149760000Y-100370000D01*
X148854560Y-100370000D01*
X148885245Y-100316853D01*
X148920000Y-100187143D01*
X148920000Y-100052857D01*
X148885245Y-99923147D01*
X148854560Y-99870000D01*
X149760000Y-99870000D01*
X149760000Y-99222177D01*
X149759998Y-99222157D01*
X149753598Y-99162622D01*
X149703354Y-99027915D01*
X149703349Y-99027905D01*
X149617190Y-98912812D01*
X149617187Y-98912809D01*
X149502094Y-98826650D01*
X149502084Y-98826645D01*
X149367376Y-98776401D01*
X149367378Y-98776401D01*
X149307842Y-98770001D01*
X149307823Y-98770000D01*
X149188030Y-98770000D01*
X149113530Y-98750038D01*
X149058992Y-98695500D01*
X149039030Y-98621000D01*
X149058992Y-98546500D01*
X149100450Y-98500456D01*
X149106483Y-98496072D01*
X149159501Y-98457553D01*
X149287553Y-98329501D01*
X149393996Y-98182994D01*
X149476211Y-98021639D01*
X149532171Y-97849409D01*
X149560500Y-97670546D01*
X149560500Y-97489454D01*
X149532171Y-97310591D01*
X149476211Y-97138361D01*
X149393996Y-96977006D01*
X149287553Y-96830499D01*
X149159501Y-96702447D01*
X149012994Y-96596004D01*
X148851639Y-96513789D01*
X148679409Y-96457829D01*
X148500546Y-96429500D01*
X148319454Y-96429500D01*
X148140591Y-96457829D01*
X147968360Y-96513789D01*
X147807004Y-96596005D01*
X147807003Y-96596005D01*
X147660500Y-96702446D01*
X147660497Y-96702448D01*
X147532448Y-96830497D01*
X147532446Y-96830500D01*
X147426005Y-96977003D01*
X147426005Y-96977004D01*
X147343789Y-97138360D01*
X147324606Y-97197402D01*
X147287829Y-97310591D01*
X147259500Y-97489454D01*
X147259500Y-97670546D01*
X147287829Y-97849409D01*
X147343789Y-98021639D01*
X147422987Y-98177073D01*
X147426005Y-98182995D01*
X147426005Y-98182996D01*
X147479225Y-98256247D01*
X147532447Y-98329501D01*
X147660499Y-98457553D01*
X147708601Y-98492501D01*
X147719550Y-98500456D01*
X147768088Y-98560396D01*
X147780154Y-98636575D01*
X147752514Y-98708580D01*
X147692574Y-98757118D01*
X147631970Y-98770000D01*
X147512177Y-98770000D01*
X147512157Y-98770001D01*
X147452622Y-98776401D01*
X147317915Y-98826645D01*
X147317905Y-98826650D01*
X147202812Y-98912809D01*
X147202809Y-98912812D01*
X147116650Y-99027905D01*
X147116645Y-99027915D01*
X147066401Y-99162622D01*
X147060001Y-99222157D01*
X147060000Y-99222177D01*
X141435500Y-99222177D01*
X141435500Y-92400836D01*
X141455462Y-92326336D01*
X141510000Y-92271798D01*
X141516845Y-92268081D01*
X141622994Y-92213996D01*
X141769501Y-92107553D01*
X141897553Y-91979501D01*
X141920858Y-91947424D01*
X141940456Y-91920450D01*
X142000395Y-91871911D01*
X142076574Y-91859845D01*
X142148579Y-91887485D01*
X142197118Y-91947424D01*
X142210000Y-92008029D01*
X142210000Y-92127822D01*
X142210001Y-92127842D01*
X142216401Y-92187377D01*
X142266645Y-92322084D01*
X142266650Y-92322094D01*
X142352809Y-92437187D01*
X142352812Y-92437190D01*
X142467905Y-92523349D01*
X142467915Y-92523354D01*
X142602623Y-92573598D01*
X142602621Y-92573598D01*
X142662157Y-92579998D01*
X142662177Y-92580000D01*
X143310000Y-92580000D01*
X143310000Y-91674560D01*
X143363147Y-91705245D01*
X143492857Y-91740000D01*
X143627143Y-91740000D01*
X143756853Y-91705245D01*
X143810000Y-91674560D01*
X143810000Y-92580000D01*
X144457823Y-92580000D01*
X144457842Y-92579998D01*
X144517377Y-92573598D01*
X144652084Y-92523354D01*
X144652094Y-92523349D01*
X144767187Y-92437190D01*
X144767190Y-92437187D01*
X144853349Y-92322094D01*
X144853354Y-92322084D01*
X144903598Y-92187377D01*
X144909998Y-92127842D01*
X144910000Y-92127822D01*
X144910000Y-92008029D01*
X144929962Y-91933529D01*
X144984500Y-91878991D01*
X145059000Y-91859029D01*
X145133500Y-91878991D01*
X145179544Y-91920450D01*
X145222441Y-91979494D01*
X145222446Y-91979500D01*
X145222447Y-91979501D01*
X145350499Y-92107553D01*
X145497006Y-92213996D01*
X145658361Y-92296211D01*
X145830591Y-92352171D01*
X146009454Y-92380500D01*
X146009458Y-92380500D01*
X146190542Y-92380500D01*
X146190546Y-92380500D01*
X146369409Y-92352171D01*
X146541639Y-92296211D01*
X146702994Y-92213996D01*
X146849501Y-92107553D01*
X146977553Y-91979501D01*
X147083996Y-91832994D01*
X147166211Y-91671639D01*
X147222171Y-91499409D01*
X147222834Y-91495223D01*
X147254204Y-91424762D01*
X147316602Y-91379427D01*
X147393307Y-91371364D01*
X147463768Y-91402734D01*
X147509103Y-91465132D01*
X147517166Y-91495223D01*
X147517828Y-91499408D01*
X147573789Y-91671639D01*
X147656005Y-91832995D01*
X147656005Y-91832996D01*
X147695594Y-91887485D01*
X147762447Y-91979501D01*
X147890499Y-92107553D01*
X148037006Y-92213996D01*
X148198361Y-92296211D01*
X148370591Y-92352171D01*
X148549454Y-92380500D01*
X148549458Y-92380500D01*
X148730542Y-92380500D01*
X148730546Y-92380500D01*
X148909409Y-92352171D01*
X149081639Y-92296211D01*
X149242994Y-92213996D01*
X149389501Y-92107553D01*
X149517553Y-91979501D01*
X149623996Y-91832994D01*
X149706211Y-91671639D01*
X149762171Y-91499409D01*
X149790500Y-91320546D01*
X149790500Y-91139454D01*
X149762171Y-90960591D01*
X149706211Y-90788361D01*
X149623996Y-90627006D01*
X149517553Y-90480499D01*
X149389501Y-90352447D01*
X149242994Y-90246004D01*
X149081639Y-90163789D01*
X148909409Y-90107829D01*
X148730546Y-90079500D01*
X148549454Y-90079500D01*
X148370591Y-90107829D01*
X148198360Y-90163789D01*
X148037004Y-90246005D01*
X148037003Y-90246005D01*
X147890500Y-90352446D01*
X147890497Y-90352448D01*
X147762448Y-90480497D01*
X147762446Y-90480500D01*
X147656005Y-90627003D01*
X147656005Y-90627004D01*
X147573789Y-90788360D01*
X147517827Y-90960595D01*
X147517165Y-90964779D01*
X147485794Y-91035238D01*
X147423396Y-91080573D01*
X147346690Y-91088634D01*
X147276231Y-91057263D01*
X147230896Y-90994865D01*
X147222835Y-90964779D01*
X147222172Y-90960595D01*
X147207960Y-90916853D01*
X147166211Y-90788361D01*
X147083996Y-90627006D01*
X146977553Y-90480499D01*
X146849501Y-90352447D01*
X146702994Y-90246004D01*
X146541639Y-90163789D01*
X146369409Y-90107829D01*
X146190546Y-90079500D01*
X146009454Y-90079500D01*
X145830591Y-90107829D01*
X145658360Y-90163789D01*
X145497004Y-90246005D01*
X145497003Y-90246005D01*
X145350500Y-90352446D01*
X145350497Y-90352448D01*
X145222448Y-90480497D01*
X145222446Y-90480500D01*
X145179544Y-90539550D01*
X145119604Y-90588088D01*
X145043425Y-90600154D01*
X144971420Y-90572514D01*
X144922882Y-90512574D01*
X144910000Y-90451970D01*
X144910000Y-90332177D01*
X144909998Y-90332157D01*
X144903598Y-90272622D01*
X144853354Y-90137915D01*
X144853349Y-90137905D01*
X144767190Y-90022812D01*
X144767187Y-90022809D01*
X144652094Y-89936650D01*
X144652084Y-89936645D01*
X144517376Y-89886401D01*
X144517378Y-89886401D01*
X144457842Y-89880001D01*
X144457823Y-89880000D01*
X143810000Y-89880000D01*
X143810000Y-90785439D01*
X143756853Y-90754755D01*
X143627143Y-90720000D01*
X143492857Y-90720000D01*
X143363147Y-90754755D01*
X143310000Y-90785439D01*
X143310000Y-89880000D01*
X142662177Y-89880000D01*
X142662157Y-89880001D01*
X142602622Y-89886401D01*
X142467915Y-89936645D01*
X142467905Y-89936650D01*
X142352812Y-90022809D01*
X142352809Y-90022812D01*
X142266650Y-90137905D01*
X142266645Y-90137915D01*
X142216401Y-90272622D01*
X142210001Y-90332157D01*
X142210000Y-90332177D01*
X142210000Y-90451970D01*
X142190038Y-90526470D01*
X142135500Y-90581008D01*
X142061000Y-90600970D01*
X141986500Y-90581008D01*
X141940456Y-90539550D01*
X141930953Y-90526470D01*
X141897553Y-90480499D01*
X141769501Y-90352447D01*
X141622994Y-90246004D01*
X141461639Y-90163789D01*
X141289409Y-90107829D01*
X141110546Y-90079500D01*
X140929454Y-90079500D01*
X140750591Y-90107829D01*
X140578360Y-90163789D01*
X140417004Y-90246005D01*
X140417003Y-90246005D01*
X140270500Y-90352446D01*
X140270497Y-90352448D01*
X140142448Y-90480497D01*
X140142446Y-90480500D01*
X140036005Y-90627003D01*
X140036005Y-90627004D01*
X139953789Y-90788360D01*
X139897827Y-90960595D01*
X139897165Y-90964779D01*
X139865794Y-91035238D01*
X139803396Y-91080573D01*
X139726690Y-91088634D01*
X139656231Y-91057263D01*
X139610896Y-90994865D01*
X139602835Y-90964779D01*
X139602172Y-90960595D01*
X139587960Y-90916853D01*
X139546211Y-90788361D01*
X139463996Y-90627006D01*
X139357553Y-90480499D01*
X139229501Y-90352447D01*
X139082994Y-90246004D01*
X138921639Y-90163789D01*
X138749409Y-90107829D01*
X138570546Y-90079500D01*
X138389454Y-90079500D01*
X138210591Y-90107829D01*
X138038360Y-90163789D01*
X137877004Y-90246005D01*
X137877003Y-90246005D01*
X137730500Y-90352446D01*
X137730497Y-90352448D01*
X137602448Y-90480497D01*
X137602446Y-90480500D01*
X137496005Y-90627003D01*
X137496005Y-90627004D01*
X137413789Y-90788360D01*
X137357827Y-90960595D01*
X137357165Y-90964779D01*
X137325794Y-91035238D01*
X137263396Y-91080573D01*
X137186690Y-91088634D01*
X137116231Y-91057263D01*
X137070896Y-90994865D01*
X137062835Y-90964779D01*
X137062172Y-90960595D01*
X137047960Y-90916853D01*
X137006211Y-90788361D01*
X136923996Y-90627006D01*
X136817553Y-90480499D01*
X136689501Y-90352447D01*
X136542994Y-90246004D01*
X136381639Y-90163789D01*
X136209409Y-90107829D01*
X136030546Y-90079500D01*
X135849454Y-90079500D01*
X135670591Y-90107829D01*
X135498360Y-90163789D01*
X135337004Y-90246005D01*
X135337003Y-90246005D01*
X135190500Y-90352446D01*
X135190497Y-90352448D01*
X135062448Y-90480497D01*
X135062446Y-90480500D01*
X134956005Y-90627003D01*
X134956005Y-90627004D01*
X134873789Y-90788360D01*
X134817827Y-90960595D01*
X134817165Y-90964779D01*
X134785794Y-91035238D01*
X134723396Y-91080573D01*
X134646690Y-91088634D01*
X134576231Y-91057263D01*
X134530896Y-90994865D01*
X134522835Y-90964779D01*
X134522172Y-90960595D01*
X134507960Y-90916853D01*
X134466211Y-90788361D01*
X134383996Y-90627006D01*
X134277553Y-90480499D01*
X134149501Y-90352447D01*
X134002994Y-90246004D01*
X133841639Y-90163789D01*
X133669409Y-90107829D01*
X133490546Y-90079500D01*
X133309454Y-90079500D01*
X133130591Y-90107829D01*
X132958360Y-90163789D01*
X132797004Y-90246005D01*
X132797003Y-90246005D01*
X132650500Y-90352446D01*
X132650497Y-90352448D01*
X132522448Y-90480497D01*
X132522446Y-90480500D01*
X132479544Y-90539550D01*
X132419604Y-90588088D01*
X132343425Y-90600154D01*
X132271420Y-90572514D01*
X132222882Y-90512574D01*
X132210000Y-90451970D01*
X132210000Y-90332177D01*
X132209998Y-90332157D01*
X132203598Y-90272622D01*
X132153354Y-90137915D01*
X132153349Y-90137905D01*
X132067190Y-90022812D01*
X132067187Y-90022809D01*
X131952094Y-89936650D01*
X131952084Y-89936645D01*
X131817376Y-89886401D01*
X131817378Y-89886401D01*
X131757842Y-89880001D01*
X131757823Y-89880000D01*
X131110000Y-89880000D01*
X131110000Y-90785439D01*
X131056853Y-90754755D01*
X130927143Y-90720000D01*
X130792857Y-90720000D01*
X130663147Y-90754755D01*
X130610000Y-90785439D01*
X130610000Y-89880000D01*
X129962177Y-89880000D01*
X129962157Y-89880001D01*
X129902622Y-89886401D01*
X129767915Y-89936645D01*
X129767905Y-89936650D01*
X129652812Y-90022809D01*
X129652809Y-90022812D01*
X129566650Y-90137905D01*
X129566645Y-90137915D01*
X129516401Y-90272622D01*
X129510001Y-90332157D01*
X129510000Y-90332177D01*
X129510000Y-90451970D01*
X129490038Y-90526470D01*
X129435500Y-90581008D01*
X129361000Y-90600970D01*
X129286500Y-90581008D01*
X129240456Y-90539550D01*
X129230953Y-90526470D01*
X129197553Y-90480499D01*
X129069501Y-90352447D01*
X128922994Y-90246004D01*
X128761639Y-90163789D01*
X128589409Y-90107829D01*
X128410546Y-90079500D01*
X128229454Y-90079500D01*
X128050591Y-90107829D01*
X127878360Y-90163789D01*
X127717004Y-90246005D01*
X127717003Y-90246005D01*
X127570500Y-90352446D01*
X127570497Y-90352448D01*
X127442448Y-90480497D01*
X127442446Y-90480500D01*
X127336005Y-90627003D01*
X127336005Y-90627004D01*
X127253789Y-90788360D01*
X127197827Y-90960595D01*
X127197165Y-90964779D01*
X127165794Y-91035238D01*
X127103396Y-91080573D01*
X127026690Y-91088634D01*
X126956231Y-91057263D01*
X126910896Y-90994865D01*
X126902835Y-90964779D01*
X126902172Y-90960595D01*
X126887960Y-90916853D01*
X126846211Y-90788361D01*
X126763996Y-90627006D01*
X126657553Y-90480499D01*
X126529501Y-90352447D01*
X126382994Y-90246004D01*
X126221639Y-90163789D01*
X126049409Y-90107829D01*
X125870546Y-90079500D01*
X125689454Y-90079500D01*
X125510591Y-90107829D01*
X125338360Y-90163789D01*
X125177004Y-90246005D01*
X125177003Y-90246005D01*
X125030500Y-90352446D01*
X125030497Y-90352448D01*
X124902448Y-90480497D01*
X124902446Y-90480500D01*
X124796005Y-90627003D01*
X124796005Y-90627004D01*
X124713789Y-90788360D01*
X124657827Y-90960595D01*
X124657165Y-90964779D01*
X124625794Y-91035238D01*
X124563396Y-91080573D01*
X124486690Y-91088634D01*
X124416231Y-91057263D01*
X124370896Y-90994865D01*
X124362835Y-90964779D01*
X124362172Y-90960595D01*
X124347960Y-90916853D01*
X124306211Y-90788361D01*
X124223996Y-90627006D01*
X124117553Y-90480499D01*
X123989501Y-90352447D01*
X123842994Y-90246004D01*
X123681639Y-90163789D01*
X123509409Y-90107829D01*
X123330546Y-90079500D01*
X123149454Y-90079500D01*
X122970591Y-90107829D01*
X122798360Y-90163789D01*
X122637004Y-90246005D01*
X122637003Y-90246005D01*
X122490500Y-90352446D01*
X122490497Y-90352448D01*
X122362448Y-90480497D01*
X122362446Y-90480500D01*
X122256005Y-90627003D01*
X122256005Y-90627004D01*
X122173789Y-90788360D01*
X122117827Y-90960595D01*
X122117165Y-90964779D01*
X122085794Y-91035238D01*
X122023396Y-91080573D01*
X121946690Y-91088634D01*
X121876231Y-91057263D01*
X121830896Y-90994865D01*
X121822835Y-90964779D01*
X121822172Y-90960595D01*
X121807960Y-90916853D01*
X121766211Y-90788361D01*
X121683996Y-90627006D01*
X121577553Y-90480499D01*
X121449501Y-90352447D01*
X121302994Y-90246004D01*
X121141639Y-90163789D01*
X120969409Y-90107829D01*
X120790546Y-90079500D01*
X120609454Y-90079500D01*
X120430591Y-90107829D01*
X120258360Y-90163789D01*
X120097004Y-90246005D01*
X120097003Y-90246005D01*
X119950500Y-90352446D01*
X119950497Y-90352448D01*
X119822448Y-90480497D01*
X119822446Y-90480500D01*
X119779544Y-90539550D01*
X119719604Y-90588088D01*
X119643425Y-90600154D01*
X119571420Y-90572514D01*
X119522882Y-90512574D01*
X119510000Y-90451970D01*
X119510000Y-90332177D01*
X119509998Y-90332157D01*
X119503598Y-90272622D01*
X119453354Y-90137915D01*
X119453349Y-90137905D01*
X119367190Y-90022812D01*
X119367187Y-90022809D01*
X119252094Y-89936650D01*
X119252084Y-89936645D01*
X119117376Y-89886401D01*
X119117378Y-89886401D01*
X119057842Y-89880001D01*
X119057823Y-89880000D01*
X118410000Y-89880000D01*
X118410000Y-90785439D01*
X118356853Y-90754755D01*
X118227143Y-90720000D01*
X118092857Y-90720000D01*
X117963147Y-90754755D01*
X117910000Y-90785439D01*
X117910000Y-89880000D01*
X117262177Y-89880000D01*
X117262157Y-89880001D01*
X117202622Y-89886401D01*
X117067915Y-89936645D01*
X117067905Y-89936650D01*
X116952812Y-90022809D01*
X116952809Y-90022812D01*
X116866650Y-90137905D01*
X116866645Y-90137915D01*
X116816401Y-90272622D01*
X116810001Y-90332157D01*
X116810000Y-90332177D01*
X116810000Y-90451970D01*
X116790038Y-90526470D01*
X116735500Y-90581008D01*
X116661000Y-90600970D01*
X116586500Y-90581008D01*
X116540456Y-90539550D01*
X116530953Y-90526470D01*
X116497553Y-90480499D01*
X116369501Y-90352447D01*
X116222994Y-90246004D01*
X116061639Y-90163789D01*
X115889409Y-90107829D01*
X115710546Y-90079500D01*
X115529454Y-90079500D01*
X115350591Y-90107829D01*
X115178360Y-90163789D01*
X115017004Y-90246005D01*
X115017003Y-90246005D01*
X114870500Y-90352446D01*
X114870497Y-90352448D01*
X114742448Y-90480497D01*
X114742446Y-90480500D01*
X114636005Y-90627003D01*
X114636005Y-90627004D01*
X114553789Y-90788360D01*
X114497827Y-90960595D01*
X114497165Y-90964779D01*
X114465794Y-91035238D01*
X114403396Y-91080573D01*
X114326690Y-91088634D01*
X114256231Y-91057263D01*
X114210896Y-90994865D01*
X114202835Y-90964779D01*
X114202172Y-90960595D01*
X114187960Y-90916853D01*
X114146211Y-90788361D01*
X114063996Y-90627006D01*
X113957553Y-90480499D01*
X113829501Y-90352447D01*
X113682994Y-90246004D01*
X113521639Y-90163789D01*
X113349409Y-90107829D01*
X113170546Y-90079500D01*
X112989454Y-90079500D01*
X112810591Y-90107829D01*
X112638360Y-90163789D01*
X112477004Y-90246005D01*
X112477003Y-90246005D01*
X112330500Y-90352446D01*
X112330497Y-90352448D01*
X112202448Y-90480497D01*
X112202446Y-90480500D01*
X112096005Y-90627003D01*
X112096005Y-90627004D01*
X112013789Y-90788360D01*
X111957827Y-90960595D01*
X111957165Y-90964779D01*
X111925794Y-91035238D01*
X111863396Y-91080573D01*
X111786690Y-91088634D01*
X111716231Y-91057263D01*
X111670896Y-90994865D01*
X111662835Y-90964779D01*
X111662172Y-90960595D01*
X111647960Y-90916853D01*
X111606211Y-90788361D01*
X111523996Y-90627006D01*
X111417553Y-90480499D01*
X111289501Y-90352447D01*
X111142994Y-90246004D01*
X110981639Y-90163789D01*
X110809409Y-90107829D01*
X110630546Y-90079500D01*
X110449454Y-90079500D01*
X110270591Y-90107829D01*
X110098360Y-90163789D01*
X109937004Y-90246005D01*
X109937003Y-90246005D01*
X109790500Y-90352446D01*
X109790497Y-90352448D01*
X109662448Y-90480497D01*
X109662446Y-90480500D01*
X109556005Y-90627003D01*
X109556005Y-90627004D01*
X109473789Y-90788360D01*
X109417827Y-90960595D01*
X109417165Y-90964779D01*
X109385794Y-91035238D01*
X109323396Y-91080573D01*
X109246690Y-91088634D01*
X109176231Y-91057263D01*
X109130896Y-90994865D01*
X109122835Y-90964779D01*
X109122172Y-90960595D01*
X109107960Y-90916853D01*
X109066211Y-90788361D01*
X108983996Y-90627006D01*
X108877553Y-90480499D01*
X108749501Y-90352447D01*
X108602994Y-90246004D01*
X108441639Y-90163789D01*
X108269409Y-90107829D01*
X108090546Y-90079500D01*
X107909454Y-90079500D01*
X107730591Y-90107829D01*
X107558360Y-90163789D01*
X107397004Y-90246005D01*
X107397003Y-90246005D01*
X107250500Y-90352446D01*
X107250497Y-90352448D01*
X107122448Y-90480497D01*
X107122446Y-90480500D01*
X107079544Y-90539550D01*
X107019604Y-90588088D01*
X106943425Y-90600154D01*
X106871420Y-90572514D01*
X106822882Y-90512574D01*
X106810000Y-90451970D01*
X106810000Y-90332177D01*
X106809998Y-90332157D01*
X106803598Y-90272622D01*
X106753354Y-90137915D01*
X106753349Y-90137905D01*
X106667190Y-90022812D01*
X106667187Y-90022809D01*
X106552094Y-89936650D01*
X106552084Y-89936645D01*
X106417376Y-89886401D01*
X106417378Y-89886401D01*
X106357842Y-89880001D01*
X106357823Y-89880000D01*
X105710000Y-89880000D01*
X105710000Y-90785439D01*
X105656853Y-90754755D01*
X105527143Y-90720000D01*
X105392857Y-90720000D01*
X105263147Y-90754755D01*
X105210000Y-90785439D01*
X105210000Y-89880000D01*
X104562177Y-89880000D01*
X104562157Y-89880001D01*
X104502622Y-89886401D01*
X104367915Y-89936645D01*
X104367905Y-89936650D01*
X104252812Y-90022809D01*
X104252809Y-90022812D01*
X104166650Y-90137905D01*
X104166645Y-90137915D01*
X104116401Y-90272622D01*
X104110001Y-90332157D01*
X104110000Y-90332177D01*
X104110000Y-90451970D01*
X104090038Y-90526470D01*
X104035500Y-90581008D01*
X103961000Y-90600970D01*
X103886500Y-90581008D01*
X103840456Y-90539550D01*
X103830953Y-90526470D01*
X103797553Y-90480499D01*
X103669501Y-90352447D01*
X103522994Y-90246004D01*
X103361639Y-90163789D01*
X103189409Y-90107829D01*
X103010546Y-90079500D01*
X102829454Y-90079500D01*
X102650591Y-90107829D01*
X102478360Y-90163789D01*
X102317004Y-90246005D01*
X102317003Y-90246005D01*
X102170500Y-90352446D01*
X102170497Y-90352448D01*
X102042448Y-90480497D01*
X102042446Y-90480500D01*
X101936005Y-90627003D01*
X101936005Y-90627004D01*
X101853789Y-90788360D01*
X101797827Y-90960595D01*
X101797165Y-90964779D01*
X101765794Y-91035238D01*
X101703396Y-91080573D01*
X101626690Y-91088634D01*
X101556231Y-91057263D01*
X101510896Y-90994865D01*
X101502835Y-90964779D01*
X101502172Y-90960595D01*
X101487960Y-90916853D01*
X101446211Y-90788361D01*
X101363996Y-90627006D01*
X101257553Y-90480499D01*
X101129501Y-90352447D01*
X100982994Y-90246004D01*
X100821639Y-90163789D01*
X100649409Y-90107829D01*
X100470546Y-90079500D01*
X100289454Y-90079500D01*
X100110591Y-90107829D01*
X99938360Y-90163789D01*
X99777004Y-90246005D01*
X99777003Y-90246005D01*
X99630500Y-90352446D01*
X99630497Y-90352448D01*
X99502448Y-90480497D01*
X99502446Y-90480500D01*
X99396005Y-90627003D01*
X99396005Y-90627004D01*
X99313789Y-90788360D01*
X99313789Y-90788361D01*
X99257829Y-90960591D01*
X99229500Y-91139454D01*
X98300500Y-91139454D01*
X98300500Y-84668907D01*
X100700000Y-84668907D01*
X100700000Y-84931092D01*
X100734218Y-85191007D01*
X100734219Y-85191012D01*
X100802074Y-85444254D01*
X100802074Y-85444255D01*
X100902408Y-85686479D01*
X101033492Y-85913522D01*
X101120079Y-86026365D01*
X101909521Y-85236922D01*
X102000924Y-85373717D01*
X102126283Y-85499076D01*
X102263075Y-85590477D01*
X101473633Y-86379920D01*
X101586477Y-86466507D01*
X101813520Y-86597591D01*
X102055744Y-86697925D01*
X102308987Y-86765780D01*
X102308992Y-86765781D01*
X102568907Y-86799999D01*
X102568911Y-86800000D01*
X102831089Y-86800000D01*
X102831092Y-86799999D01*
X103091007Y-86765781D01*
X103091012Y-86765780D01*
X103344254Y-86697925D01*
X103344255Y-86697925D01*
X103586479Y-86597591D01*
X103813526Y-86466505D01*
X103813528Y-86466504D01*
X103926366Y-86379920D01*
X103136923Y-85590477D01*
X103273717Y-85499076D01*
X103399076Y-85373717D01*
X103490478Y-85236923D01*
X104279920Y-86026365D01*
X104366504Y-85913528D01*
X104366505Y-85913526D01*
X104497591Y-85686479D01*
X104597925Y-85444255D01*
X104597925Y-85444254D01*
X104665780Y-85191012D01*
X104665781Y-85191007D01*
X104699999Y-84931092D01*
X104700000Y-84931088D01*
X104700000Y-84668911D01*
X104699999Y-84668907D01*
X104665781Y-84408992D01*
X104665780Y-84408987D01*
X104597925Y-84155745D01*
X104597925Y-84155744D01*
X104497591Y-83913520D01*
X104366507Y-83686477D01*
X104279920Y-83573633D01*
X103490477Y-84363075D01*
X103399076Y-84226283D01*
X103273717Y-84100924D01*
X103136922Y-84009521D01*
X103926365Y-83220079D01*
X103813522Y-83133492D01*
X103586479Y-83002408D01*
X103344255Y-82902074D01*
X103091012Y-82834219D01*
X103091007Y-82834218D01*
X102831092Y-82800000D01*
X102568907Y-82800000D01*
X102308992Y-82834218D01*
X102308987Y-82834219D01*
X102055745Y-82902074D01*
X102055744Y-82902074D01*
X101813520Y-83002408D01*
X101586472Y-83133495D01*
X101473633Y-83220078D01*
X101473633Y-83220079D01*
X102263076Y-84009522D01*
X102126283Y-84100924D01*
X102000924Y-84226283D01*
X101909522Y-84363076D01*
X101120079Y-83573633D01*
X101120078Y-83573633D01*
X101033495Y-83686472D01*
X100902408Y-83913520D01*
X100802074Y-84155744D01*
X100802074Y-84155745D01*
X100734219Y-84408987D01*
X100734218Y-84408992D01*
X100700000Y-84668907D01*
X98300500Y-84668907D01*
X98300500Y-80913389D01*
X109399500Y-80913389D01*
X109399500Y-81086611D01*
X109411137Y-81160086D01*
X109426597Y-81257700D01*
X109464653Y-81374821D01*
X109480127Y-81422445D01*
X109480130Y-81422450D01*
X109558771Y-81576793D01*
X109594663Y-81626193D01*
X109660586Y-81716928D01*
X109783072Y-81839414D01*
X109923212Y-81941232D01*
X110077555Y-82019873D01*
X110242299Y-82073402D01*
X110413389Y-82100500D01*
X110413393Y-82100500D01*
X110586607Y-82100500D01*
X110586611Y-82100500D01*
X110757701Y-82073402D01*
X110922445Y-82019873D01*
X111076788Y-81941232D01*
X111216928Y-81839414D01*
X111339414Y-81716928D01*
X111441232Y-81576788D01*
X111519873Y-81422445D01*
X111573402Y-81257701D01*
X111600500Y-81086611D01*
X111600500Y-80913389D01*
X111573402Y-80742299D01*
X111519873Y-80577555D01*
X111441232Y-80423212D01*
X111339414Y-80283072D01*
X111216928Y-80160586D01*
X111125033Y-80093820D01*
X111080131Y-80061196D01*
X114387500Y-80061196D01*
X114387500Y-80298803D01*
X114418510Y-80534350D01*
X114480009Y-80763867D01*
X114570927Y-80983363D01*
X114570928Y-80983365D01*
X114689729Y-81189134D01*
X114689730Y-81189136D01*
X114753805Y-81272639D01*
X115427545Y-80598898D01*
X115520343Y-80737780D01*
X115642220Y-80859657D01*
X115781099Y-80952453D01*
X115107358Y-81626193D01*
X115190863Y-81690269D01*
X115190865Y-81690270D01*
X115396634Y-81809071D01*
X115396636Y-81809072D01*
X115616132Y-81899990D01*
X115845649Y-81961489D01*
X116081196Y-81992499D01*
X116081202Y-81992500D01*
X116318798Y-81992500D01*
X116318803Y-81992499D01*
X116554350Y-81961489D01*
X116783867Y-81899990D01*
X117003363Y-81809072D01*
X117003365Y-81809071D01*
X117209132Y-81690272D01*
X117292639Y-81626193D01*
X117292640Y-81626193D01*
X116618900Y-80952453D01*
X116757780Y-80859657D01*
X116879657Y-80737780D01*
X116972453Y-80598900D01*
X117646193Y-81272640D01*
X117646193Y-81272639D01*
X117710272Y-81189132D01*
X117829071Y-80983365D01*
X117829072Y-80983363D01*
X117919990Y-80763867D01*
X117981489Y-80534350D01*
X118012499Y-80298803D01*
X118012500Y-80298798D01*
X118012500Y-80061202D01*
X118012499Y-80061196D01*
X119467500Y-80061196D01*
X119467500Y-80298803D01*
X119498510Y-80534350D01*
X119560009Y-80763867D01*
X119650927Y-80983363D01*
X119650928Y-80983365D01*
X119769729Y-81189134D01*
X119769730Y-81189136D01*
X119833805Y-81272639D01*
X120507545Y-80598898D01*
X120600343Y-80737780D01*
X120722220Y-80859657D01*
X120861099Y-80952453D01*
X120187358Y-81626193D01*
X120270863Y-81690269D01*
X120270865Y-81690270D01*
X120476634Y-81809071D01*
X120476636Y-81809072D01*
X120696132Y-81899990D01*
X120925649Y-81961489D01*
X121161196Y-81992499D01*
X121161202Y-81992500D01*
X121398798Y-81992500D01*
X121398803Y-81992499D01*
X121634350Y-81961489D01*
X121863867Y-81899990D01*
X122083363Y-81809072D01*
X122083365Y-81809071D01*
X122289132Y-81690272D01*
X122372639Y-81626193D01*
X122372640Y-81626193D01*
X121698900Y-80952453D01*
X121837780Y-80859657D01*
X121959657Y-80737780D01*
X122052453Y-80598900D01*
X122726193Y-81272640D01*
X122726193Y-81272639D01*
X122790272Y-81189132D01*
X122909071Y-80983365D01*
X122909072Y-80983363D01*
X122999990Y-80763867D01*
X123061489Y-80534350D01*
X123092499Y-80298803D01*
X123092500Y-80298798D01*
X123092500Y-80061202D01*
X123092499Y-80061196D01*
X123061489Y-79825649D01*
X122999990Y-79596132D01*
X122909072Y-79376636D01*
X122909071Y-79376634D01*
X122790270Y-79170865D01*
X122790269Y-79170863D01*
X122726193Y-79087358D01*
X122052452Y-79761098D01*
X121959657Y-79622220D01*
X121837780Y-79500343D01*
X121698899Y-79407545D01*
X122372640Y-78733805D01*
X122289136Y-78669730D01*
X122289134Y-78669729D01*
X122083365Y-78550928D01*
X122083363Y-78550927D01*
X121863867Y-78460009D01*
X121634350Y-78398510D01*
X121398803Y-78367500D01*
X121161196Y-78367500D01*
X120925649Y-78398510D01*
X120696132Y-78460009D01*
X120476636Y-78550927D01*
X120476634Y-78550928D01*
X120270869Y-78669727D01*
X120187359Y-78733806D01*
X120861099Y-79407546D01*
X120722220Y-79500343D01*
X120600343Y-79622220D01*
X120507546Y-79761099D01*
X119833805Y-79087359D01*
X119769727Y-79170869D01*
X119650928Y-79376634D01*
X119650927Y-79376636D01*
X119560009Y-79596132D01*
X119498510Y-79825649D01*
X119467500Y-80061196D01*
X118012499Y-80061196D01*
X117981489Y-79825649D01*
X117919990Y-79596132D01*
X117829072Y-79376636D01*
X117829071Y-79376634D01*
X117710270Y-79170865D01*
X117710269Y-79170863D01*
X117646193Y-79087358D01*
X116972452Y-79761098D01*
X116879657Y-79622220D01*
X116757780Y-79500343D01*
X116618899Y-79407545D01*
X117292640Y-78733805D01*
X117209136Y-78669730D01*
X117209134Y-78669729D01*
X117003365Y-78550928D01*
X117003363Y-78550927D01*
X116783867Y-78460009D01*
X116554350Y-78398510D01*
X116318803Y-78367500D01*
X116081196Y-78367500D01*
X115845649Y-78398510D01*
X115616132Y-78460009D01*
X115396636Y-78550927D01*
X115396634Y-78550928D01*
X115190869Y-78669727D01*
X115107359Y-78733806D01*
X115781099Y-79407546D01*
X115642220Y-79500343D01*
X115520343Y-79622220D01*
X115427546Y-79761099D01*
X114753805Y-79087359D01*
X114689727Y-79170869D01*
X114570928Y-79376634D01*
X114570927Y-79376636D01*
X114480009Y-79596132D01*
X114418510Y-79825649D01*
X114387500Y-80061196D01*
X111080131Y-80061196D01*
X111076793Y-80058771D01*
X111076790Y-80058769D01*
X111076788Y-80058768D01*
X110922445Y-79980127D01*
X110874821Y-79964653D01*
X110757700Y-79926597D01*
X110660086Y-79911137D01*
X110586611Y-79899500D01*
X110413389Y-79899500D01*
X110347037Y-79910009D01*
X110242299Y-79926597D01*
X110077561Y-79980125D01*
X110077555Y-79980127D01*
X110077549Y-79980129D01*
X110077549Y-79980130D01*
X109923206Y-80058771D01*
X109783075Y-80160583D01*
X109660583Y-80283075D01*
X109558771Y-80423206D01*
X109480130Y-80577549D01*
X109480125Y-80577561D01*
X109426597Y-80742299D01*
X109408228Y-80858282D01*
X109399500Y-80913389D01*
X98300500Y-80913389D01*
X98300500Y-77068907D01*
X100700000Y-77068907D01*
X100700000Y-77331092D01*
X100734218Y-77591007D01*
X100734219Y-77591012D01*
X100802074Y-77844254D01*
X100802074Y-77844255D01*
X100902408Y-78086479D01*
X101033492Y-78313522D01*
X101120079Y-78426365D01*
X101909521Y-77636922D01*
X102000924Y-77773717D01*
X102126283Y-77899076D01*
X102263075Y-77990477D01*
X101473633Y-78779920D01*
X101586477Y-78866507D01*
X101813520Y-78997591D01*
X102055744Y-79097925D01*
X102308987Y-79165780D01*
X102308992Y-79165781D01*
X102568907Y-79199999D01*
X102568911Y-79200000D01*
X102831089Y-79200000D01*
X102831092Y-79199999D01*
X103091007Y-79165781D01*
X103091012Y-79165780D01*
X103344254Y-79097925D01*
X103344255Y-79097925D01*
X103586479Y-78997591D01*
X103813526Y-78866505D01*
X103813528Y-78866504D01*
X103926365Y-78779920D01*
X103136923Y-77990478D01*
X103273717Y-77899076D01*
X103399076Y-77773717D01*
X103490478Y-77636923D01*
X104279920Y-78426365D01*
X104366504Y-78313528D01*
X104366505Y-78313526D01*
X104497591Y-78086479D01*
X104597925Y-77844255D01*
X104597925Y-77844254D01*
X104665780Y-77591012D01*
X104665780Y-77591009D01*
X104674490Y-77524859D01*
X117277000Y-77524859D01*
X117277000Y-77755141D01*
X117291114Y-77844254D01*
X117313023Y-77982586D01*
X117351174Y-78100000D01*
X117384185Y-78201597D01*
X117488730Y-78406779D01*
X117624086Y-78593081D01*
X117786919Y-78755914D01*
X117973221Y-78891270D01*
X118178403Y-78995815D01*
X118397413Y-79066976D01*
X118624859Y-79103000D01*
X118624863Y-79103000D01*
X118855137Y-79103000D01*
X118855141Y-79103000D01*
X119082587Y-79066976D01*
X119301597Y-78995815D01*
X119506779Y-78891270D01*
X119693081Y-78755914D01*
X119855914Y-78593081D01*
X119991270Y-78406779D01*
X120095815Y-78201597D01*
X120166976Y-77982587D01*
X120203000Y-77755141D01*
X120203000Y-77524859D01*
X120166976Y-77297413D01*
X120095815Y-77078403D01*
X119991270Y-76873221D01*
X119855914Y-76686919D01*
X119693081Y-76524086D01*
X119599930Y-76456408D01*
X119506781Y-76388731D01*
X119506775Y-76388728D01*
X119301607Y-76284190D01*
X119301606Y-76284189D01*
X119301597Y-76284185D01*
X119238289Y-76263615D01*
X119082586Y-76213023D01*
X118952820Y-76192470D01*
X118855141Y-76177000D01*
X118624859Y-76177000D01*
X118536650Y-76190970D01*
X118397413Y-76213023D01*
X118178409Y-76284183D01*
X118178403Y-76284185D01*
X118178398Y-76284187D01*
X118178392Y-76284190D01*
X117973224Y-76388728D01*
X117973218Y-76388731D01*
X117786920Y-76524085D01*
X117786917Y-76524087D01*
X117624087Y-76686917D01*
X117624085Y-76686920D01*
X117488731Y-76873218D01*
X117488728Y-76873224D01*
X117384190Y-77078392D01*
X117384183Y-77078409D01*
X117313023Y-77297413D01*
X117288603Y-77451599D01*
X117277000Y-77524859D01*
X104674490Y-77524859D01*
X104677821Y-77499556D01*
X104677821Y-77499555D01*
X104699999Y-77331092D01*
X104700000Y-77331088D01*
X104700000Y-77068911D01*
X104699999Y-77068907D01*
X104665781Y-76808992D01*
X104665780Y-76808987D01*
X104597926Y-76555747D01*
X104593720Y-76545594D01*
X104593719Y-76545592D01*
X104593719Y-76545591D01*
X104497591Y-76313520D01*
X104366507Y-76086477D01*
X104279920Y-75973633D01*
X103490477Y-76763075D01*
X103399076Y-76626283D01*
X103273717Y-76500924D01*
X103136922Y-76409521D01*
X103926365Y-75620079D01*
X103813522Y-75533492D01*
X103586479Y-75402408D01*
X103344255Y-75302074D01*
X103091012Y-75234219D01*
X103091007Y-75234218D01*
X102831092Y-75200000D01*
X102568907Y-75200000D01*
X102308992Y-75234218D01*
X102308987Y-75234219D01*
X102055745Y-75302074D01*
X102055744Y-75302074D01*
X101813520Y-75402408D01*
X101586472Y-75533495D01*
X101473633Y-75620078D01*
X101473633Y-75620079D01*
X102263076Y-76409522D01*
X102126283Y-76500924D01*
X102000924Y-76626283D01*
X101909522Y-76763076D01*
X101120079Y-75973633D01*
X101120078Y-75973633D01*
X101033495Y-76086472D01*
X100902408Y-76313520D01*
X100802074Y-76555744D01*
X100802074Y-76555745D01*
X100734219Y-76808987D01*
X100734218Y-76808992D01*
X100700000Y-77068907D01*
X98300500Y-77068907D01*
X98300500Y-74981196D01*
X114387500Y-74981196D01*
X114387500Y-75218803D01*
X114418510Y-75454350D01*
X114480009Y-75683867D01*
X114570927Y-75903363D01*
X114570928Y-75903365D01*
X114689729Y-76109134D01*
X114689730Y-76109136D01*
X114753805Y-76192639D01*
X115427545Y-75518898D01*
X115520343Y-75657780D01*
X115642220Y-75779657D01*
X115781099Y-75872453D01*
X115107358Y-76546193D01*
X115190863Y-76610269D01*
X115190865Y-76610270D01*
X115396634Y-76729071D01*
X115396636Y-76729072D01*
X115616132Y-76819990D01*
X115845649Y-76881489D01*
X116081196Y-76912499D01*
X116081202Y-76912500D01*
X116318798Y-76912500D01*
X116318803Y-76912499D01*
X116554350Y-76881489D01*
X116783867Y-76819990D01*
X117003363Y-76729072D01*
X117003365Y-76729071D01*
X117209132Y-76610272D01*
X117292639Y-76546193D01*
X117292640Y-76546193D01*
X116618900Y-75872453D01*
X116757780Y-75779657D01*
X116879657Y-75657780D01*
X116972453Y-75518900D01*
X117646193Y-76192640D01*
X117646193Y-76192639D01*
X117710272Y-76109132D01*
X117829071Y-75903365D01*
X117829072Y-75903363D01*
X117919990Y-75683867D01*
X117981489Y-75454350D01*
X118012499Y-75218803D01*
X118012500Y-75218798D01*
X118012500Y-74981202D01*
X118012499Y-74981196D01*
X119467500Y-74981196D01*
X119467500Y-75218803D01*
X119498510Y-75454350D01*
X119560009Y-75683867D01*
X119650927Y-75903363D01*
X119650928Y-75903365D01*
X119769729Y-76109134D01*
X119769730Y-76109136D01*
X119833805Y-76192639D01*
X120507545Y-75518898D01*
X120600343Y-75657780D01*
X120722220Y-75779657D01*
X120861099Y-75872453D01*
X120187358Y-76546193D01*
X120270863Y-76610269D01*
X120270865Y-76610270D01*
X120476634Y-76729071D01*
X120476636Y-76729072D01*
X120696132Y-76819990D01*
X120925649Y-76881489D01*
X121161196Y-76912499D01*
X121161202Y-76912500D01*
X121398798Y-76912500D01*
X121398803Y-76912499D01*
X121634350Y-76881489D01*
X121863867Y-76819990D01*
X122083363Y-76729072D01*
X122083365Y-76729071D01*
X122289132Y-76610272D01*
X122372639Y-76546193D01*
X122372640Y-76546193D01*
X121698900Y-75872453D01*
X121837780Y-75779657D01*
X121959657Y-75657780D01*
X122052453Y-75518900D01*
X122726193Y-76192640D01*
X122726193Y-76192639D01*
X122790272Y-76109132D01*
X122909071Y-75903365D01*
X122909072Y-75903363D01*
X122999990Y-75683867D01*
X123061489Y-75454350D01*
X123092499Y-75218803D01*
X123092500Y-75218798D01*
X123092500Y-74981202D01*
X123092499Y-74981196D01*
X123061489Y-74745649D01*
X122999990Y-74516132D01*
X122909072Y-74296636D01*
X122909071Y-74296634D01*
X122790270Y-74090865D01*
X122790269Y-74090863D01*
X122726193Y-74007358D01*
X122052452Y-74681098D01*
X121959657Y-74542220D01*
X121837780Y-74420343D01*
X121698899Y-74327545D01*
X122372640Y-73653805D01*
X122289136Y-73589730D01*
X122289134Y-73589729D01*
X122083365Y-73470928D01*
X122083363Y-73470927D01*
X121863867Y-73380009D01*
X121634350Y-73318510D01*
X121398803Y-73287500D01*
X121161196Y-73287500D01*
X120925649Y-73318510D01*
X120696132Y-73380009D01*
X120476636Y-73470927D01*
X120476634Y-73470928D01*
X120270869Y-73589727D01*
X120187359Y-73653806D01*
X120861099Y-74327546D01*
X120722220Y-74420343D01*
X120600343Y-74542220D01*
X120507546Y-74681099D01*
X119833805Y-74007359D01*
X119769727Y-74090869D01*
X119650928Y-74296634D01*
X119650927Y-74296636D01*
X119560009Y-74516132D01*
X119498510Y-74745649D01*
X119467500Y-74981196D01*
X118012499Y-74981196D01*
X117981489Y-74745649D01*
X117919990Y-74516132D01*
X117829072Y-74296636D01*
X117829071Y-74296634D01*
X117710270Y-74090865D01*
X117710269Y-74090863D01*
X117646193Y-74007358D01*
X116972452Y-74681098D01*
X116879657Y-74542220D01*
X116757780Y-74420343D01*
X116618899Y-74327545D01*
X117292640Y-73653805D01*
X117209136Y-73589730D01*
X117209134Y-73589729D01*
X117003365Y-73470928D01*
X117003363Y-73470927D01*
X116783867Y-73380009D01*
X116554350Y-73318510D01*
X116318803Y-73287500D01*
X116081196Y-73287500D01*
X115845649Y-73318510D01*
X115616132Y-73380009D01*
X115396636Y-73470927D01*
X115396634Y-73470928D01*
X115190869Y-73589727D01*
X115107359Y-73653806D01*
X115781099Y-74327546D01*
X115642220Y-74420343D01*
X115520343Y-74542220D01*
X115427546Y-74681099D01*
X114753805Y-74007359D01*
X114689727Y-74090869D01*
X114570928Y-74296634D01*
X114570927Y-74296636D01*
X114480009Y-74516132D01*
X114418510Y-74745649D01*
X114387500Y-74981196D01*
X98300500Y-74981196D01*
X98300500Y-66049500D01*
X98320462Y-65975000D01*
X98375000Y-65920462D01*
X98449500Y-65900500D01*
X123550500Y-65900500D01*
X123625000Y-65920462D01*
G37*
%TD.AperFunction*%
%TD*%
M02*
